<svg width="500" height="500" viewBox="0 0 500 500" fill="none" xmlns="http://www.w3.org/2000/svg">
<path d="M250 421.39C357.082 421.39 443.89 416.322 443.89 410.07C443.89 403.818 357.082 398.75 250 398.75C142.918 398.75 56.11 403.818 56.11 410.07C56.11 416.322 142.918 421.39 250 421.39Z" fill="#F5F5F5"/>
<path d="M238.4 341.53H45.31C43.7964 341.527 42.3456 340.925 41.2753 339.855C40.2051 338.784 39.6026 337.334 39.6 335.82V64.39C39.6158 62.8851 40.224 61.4471 41.2929 60.3876C42.3617 59.3281 43.805 58.7325 45.31 58.73H238.4C239.913 58.7326 241.362 59.3354 242.431 60.4059C243.5 61.4765 244.1 62.9273 244.1 64.44V335.82C244.1 337.333 243.5 338.783 242.431 339.854C241.362 340.925 239.913 341.527 238.4 341.53ZM45.31 58.93C43.8627 58.9326 42.4755 59.5087 41.4521 60.5321C40.4287 61.5555 39.8526 62.9427 39.85 64.39V335.82C39.8526 337.267 40.4287 338.654 41.4521 339.678C42.4755 340.701 43.8627 341.277 45.31 341.28H238.4C239.846 341.277 241.233 340.701 242.254 339.677C243.276 338.654 243.85 337.266 243.85 335.82V64.39C243.85 62.9436 243.276 61.5564 242.254 60.5327C241.233 59.509 239.846 58.9326 238.4 58.93H45.31Z" fill="#E6E6E6"/>
<path d="M454.7 341.53H261.6C260.087 341.527 258.638 340.925 257.569 339.854C256.5 338.783 255.9 337.333 255.9 335.82V64.39C255.913 62.886 256.519 61.448 257.586 60.3882C258.654 59.3284 260.096 58.7326 261.6 58.73H454.7C456.204 58.7326 457.646 59.3284 458.714 60.3882C459.781 61.448 460.387 62.886 460.4 64.39V335.82C460.4 337.333 459.8 338.783 458.731 339.854C457.662 340.925 456.213 341.527 454.7 341.53ZM261.6 58.93C260.154 58.9326 258.767 59.509 257.746 60.5327C256.724 61.5564 256.15 62.9436 256.15 64.39V335.82C256.15 337.266 256.724 338.654 257.746 339.677C258.767 340.701 260.154 341.277 261.6 341.28H454.7C456.148 341.277 457.536 340.702 458.561 339.678C459.586 338.655 460.165 337.268 460.17 335.82V64.39C460.165 62.9418 459.586 61.5546 458.561 60.5315C457.536 59.5084 456.148 58.9326 454.7 58.93H261.6Z" fill="#E6E6E6"/>
<path d="M95 392.21H53.79V392.46H95V392.21Z" fill="#E0E0E0"/>
<path d="M179 390.21H137.67V390.46H179V390.21Z" fill="#E0E0E0"/>
<path d="M232.78 390.21H222.78V390.46H232.78V390.21Z" fill="#E0E0E0"/>
<path d="M132.83 398.75H86.58V399H132.83V398.75Z" fill="#E0E0E0"/>
<path d="M292.8 392.08H271.2V392.33H292.8V392.08Z" fill="#E0E0E0"/>
<path d="M329.63 392.08H301.7V392.33H329.63V392.08Z" fill="#E0E0E0"/>
<path d="M464.33 396.31H401.89V396.56H464.33V396.31Z" fill="#E0E0E0"/>
<path d="M412.44 114.23H364.83V147.5H412.44V114.23Z" fill="#E6E6E6"/>
<path d="M386.3 114.23H364.83V147.5H386.3V114.23Z" fill="#F0F0F0"/>
<path opacity="0.4" d="M375.55 118.74C376.952 118.74 378.323 119.156 379.489 119.935C380.655 120.714 381.564 121.821 382.1 123.117C382.637 124.412 382.777 125.838 382.504 127.213C382.23 128.589 381.555 129.852 380.563 130.843C379.572 131.835 378.309 132.51 376.933 132.784C375.558 133.057 374.132 132.917 372.837 132.38C371.541 131.844 370.434 130.935 369.655 129.769C368.876 128.603 368.46 127.232 368.46 125.83C368.46 123.95 369.207 122.146 370.537 120.817C371.866 119.487 373.67 118.74 375.55 118.74Z" fill="#E0E0E0"/>
<path d="M379 139.66C379 140.344 378.797 141.013 378.417 141.582C378.037 142.151 377.496 142.595 376.864 142.857C376.232 143.118 375.536 143.187 374.865 143.053C374.194 142.92 373.577 142.59 373.093 142.107C372.61 141.623 372.28 141.006 372.146 140.335C372.013 139.664 372.081 138.968 372.343 138.336C372.605 137.704 373.049 137.163 373.618 136.783C374.187 136.403 374.856 136.2 375.54 136.2C375.995 136.199 376.445 136.287 376.866 136.461C377.286 136.634 377.668 136.889 377.99 137.21C378.311 137.532 378.566 137.914 378.739 138.334C378.913 138.755 379.001 139.205 379 139.66Z" fill="#E0E0E0"/>
<path d="M375.5 128.33C376.616 128.33 377.52 127.426 377.52 126.31C377.52 125.194 376.616 124.29 375.5 124.29C374.384 124.29 373.48 125.194 373.48 126.31C373.48 127.426 374.384 128.33 375.5 128.33Z" fill="#FAFAFA"/>
<path d="M310.8 102.31H290.21V147.51H310.8V102.31Z" fill="#F0F0F0"/>
<path d="M337.55 102.31H310.23V147.51H337.55V102.31Z" fill="#E6E6E6"/>
<path d="M300.43 116.66C300.996 116.658 301.551 116.824 302.023 117.138C302.495 117.451 302.863 117.898 303.08 118.421C303.298 118.944 303.356 119.52 303.246 120.075C303.135 120.631 302.863 121.142 302.462 121.542C302.062 121.943 301.551 122.215 300.995 122.325C300.44 122.435 299.864 122.378 299.341 122.16C298.818 121.943 298.371 121.574 298.058 121.103C297.744 120.631 297.578 120.076 297.58 119.51C297.583 118.755 297.884 118.031 298.418 117.498C298.952 116.964 299.675 116.663 300.43 116.66Z" fill="white"/>
<path d="M300.43 112.21C300.713 112.21 300.989 112.294 301.224 112.451C301.46 112.608 301.643 112.831 301.751 113.093C301.859 113.354 301.888 113.642 301.833 113.919C301.777 114.196 301.641 114.451 301.441 114.651C301.241 114.851 300.986 114.987 300.709 115.042C300.432 115.098 300.144 115.069 299.883 114.961C299.621 114.853 299.398 114.67 299.241 114.434C299.084 114.199 299 113.923 299 113.64C299 113.452 299.037 113.266 299.109 113.093C299.181 112.919 299.286 112.762 299.419 112.629C299.552 112.496 299.709 112.391 299.883 112.319C300.056 112.247 300.242 112.21 300.43 112.21Z" fill="white"/>
<path d="M300.43 107.89C300.713 107.89 300.989 107.974 301.224 108.131C301.46 108.288 301.643 108.511 301.751 108.773C301.859 109.034 301.888 109.322 301.833 109.599C301.777 109.876 301.641 110.131 301.441 110.331C301.241 110.531 300.986 110.667 300.709 110.723C300.432 110.778 300.144 110.749 299.883 110.641C299.621 110.533 299.398 110.35 299.241 110.114C299.084 109.879 299 109.603 299 109.32C299 109.132 299.037 108.946 299.109 108.773C299.181 108.599 299.286 108.442 299.419 108.309C299.552 108.176 299.709 108.071 299.883 107.999C300.056 107.927 300.242 107.89 300.43 107.89Z" fill="white"/>
<path d="M337.07 127.66H290.67V128.37H337.07V127.66Z" fill="#E0E0E0"/>
<path d="M337.07 131.67H290.67V132.38H337.07V131.67Z" fill="#E0E0E0"/>
<path d="M337.07 135.68H290.67V136.39H337.07V135.68Z" fill="#E0E0E0"/>
<path d="M337.07 139.69H290.67V140.4H337.07V139.69Z" fill="#E0E0E0"/>
<path d="M337.07 143.7H290.67V144.41H337.07V143.7Z" fill="#E0E0E0"/>
<path d="M300.92 128.88H298.96V130.84H300.92V128.88Z" fill="#E0E0E0"/>
<path d="M300.92 133.1H298.96V135.06H300.92V133.1Z" fill="#E0E0E0"/>
<path d="M300.92 136.9H298.96V138.86H300.92V136.9Z" fill="#E0E0E0"/>
<path d="M300.92 141H298.96V142.96H300.92V141Z" fill="#E0E0E0"/>
<path d="M300.92 144.98H298.96V146.94H300.92V144.98Z" fill="#E0E0E0"/>
<path d="M250.87 192H249.87V153.71C249.873 151.642 250.695 149.66 252.157 148.198C253.62 146.735 255.602 145.913 257.67 145.91H290.67V146.91H257.67C255.867 146.913 254.139 147.63 252.865 148.905C251.59 150.179 250.873 151.907 250.87 153.71V192Z" fill="#E0E0E0"/>
<path d="M248.87 192.07H247.87V153.43C247.873 150.922 248.87 148.517 250.644 146.744C252.417 144.97 254.822 143.973 257.33 143.97H290.67V144.97H257.33C255.087 144.973 252.937 145.865 251.351 147.451C249.765 149.037 248.873 151.187 248.87 153.43V192.07Z" fill="#E0E0E0"/>
<path d="M139.37 96H108.06V129.33H139.37V96Z" fill="#E6E6E6"/>
<path d="M147.39 96H139.37V129.33H147.39V96Z" fill="#F5F5F5"/>
<path d="M123.37 90.86H99.85V129.33H123.37V90.86Z" fill="#E6E6E6"/>
<path d="M130.16 90.86H123.36V129.33H130.16V90.86Z" fill="#F5F5F5"/>
<path d="M116.44 96H96.61V129.33H116.44V96Z" fill="#EBEBEB"/>
<path d="M120.97 96H116.44V129.33H120.97V96Z" fill="#F5F5F5"/>
<path d="M100.21 101.64H74.2V129.33H100.21V101.64Z" fill="#E6E6E6"/>
<path d="M106.87 101.64H100.21V129.33H106.87V101.64Z" fill="#F5F5F5"/>
<path d="M86.92 97.37H67.38V129.33H86.92V97.37Z" fill="#E6E6E6"/>
<path d="M92.56 97.37H86.91V129.33H92.56V97.37Z" fill="#F5F5F5"/>
<path d="M81.16 101.64H62.18V129.33H81.16V101.64Z" fill="#E6E6E6"/>
<path d="M84.93 101.64H81.17V129.33H84.93V101.64Z" fill="#F0F0F0"/>
<path d="M40 138.96L244 138.96V129.31L40 129.31V138.96Z" fill="#E6E6E6"/>
<path d="M76.61 139.19H87.89L79.67 151.6H76.61V139.19Z" fill="#E0E0E0"/>
<path d="M76.61 139.19H74.98V151.6H76.61V139.19Z" fill="#E0E0E0"/>
<path d="M203.31 139.19H214.6L206.38 151.6H203.31V139.19Z" fill="#E0E0E0"/>
<path d="M203.32 139.19H201.69V151.6H203.32V139.19Z" fill="#E0E0E0"/>
<path d="M460.23 147.51H256.23V157.16H460.23V147.51Z" fill="#E6E6E6"/>
<path d="M423.63 169.79H420.56L412.34 157.38H423.63V169.79Z" fill="#E0E0E0"/>
<path d="M425.26 157.38H423.63V169.79H425.26V157.38Z" fill="#E0E0E0"/>
<path d="M296.92 169.79H293.85L285.63 157.38H296.92V169.79Z" fill="#E0E0E0"/>
<path d="M298.55 157.38H296.92V169.79H298.55V157.38Z" fill="#E0E0E0"/>
<path d="M197.45 109.89C197.451 108.457 197.239 107.031 196.82 105.66L200.53 102.4L198.2 98.35L193.52 99.94C191.549 97.8336 188.999 96.3582 186.19 95.7L185.19 90.86H180.52L179.52 95.7C176.714 96.3583 174.167 97.8338 172.2 99.94L167.51 98.35L165.18 102.4L168.89 105.66C168.05 108.417 168.05 111.363 168.89 114.12L165.18 117.38L167.51 121.43L172.2 119.84C174.167 121.946 176.714 123.422 179.52 124.08L180.52 128.92H185.19L186.19 124.08C188.999 123.422 191.549 121.946 193.52 119.84L198.2 121.43L200.53 117.38L196.82 114.12C197.239 112.749 197.451 111.323 197.45 109.89ZM182.89 117.75C181.393 117.75 179.929 117.306 178.684 116.474C177.439 115.642 176.469 114.46 175.896 113.077C175.323 111.694 175.173 110.172 175.465 108.703C175.758 107.235 176.479 105.886 177.537 104.827C178.596 103.769 179.945 103.048 181.413 102.755C182.882 102.463 184.404 102.613 185.787 103.186C187.17 103.759 188.352 104.729 189.184 105.974C190.016 107.219 190.46 108.683 190.46 110.18C190.46 112.188 189.662 114.113 188.243 115.533C186.823 116.952 184.898 117.75 182.89 117.75Z" fill="#F0F0F0"/>
<path d="M222.71 112.34C222.224 111.532 221.617 110.804 220.91 110.18L221.91 107.07L219.21 105.6L217.12 108.1C215.294 107.592 213.358 107.64 211.56 108.24L209.35 105.86L206.72 107.46L207.84 110.51C206.491 111.847 205.566 113.551 205.18 115.41L202.01 116.13L202.09 119.2L205.3 119.76C205.778 121.594 206.787 123.247 208.2 124.51L207.2 127.62L209.9 129.09L211.99 126.59C213.82 127.088 215.757 127.04 217.56 126.45L219.77 128.83L222.39 127.23L221.27 124.17C222.618 122.837 223.543 121.136 223.93 119.28L227.1 118.56L227.02 115.48L223.82 114.93C223.585 114.015 223.211 113.141 222.71 112.34ZM217.24 121.76C216.397 122.279 215.419 122.535 214.43 122.498C213.441 122.46 212.485 122.13 211.684 121.548C210.883 120.967 210.272 120.161 209.929 119.233C209.587 118.304 209.527 117.294 209.759 116.332C209.99 115.37 210.502 114.498 211.23 113.826C211.957 113.155 212.867 112.715 213.845 112.562C214.823 112.408 215.825 112.549 216.723 112.965C217.621 113.381 218.375 114.055 218.89 114.9C219.578 116.029 219.791 117.385 219.481 118.671C219.172 119.956 218.366 121.067 217.24 121.76Z" fill="#F0F0F0"/>
<path d="M454.18 273.12H46.56V278.25H454.18V273.12Z" fill="#27BBAD"/>
<path d="M70.84 276.8V399.14H74.02L78.02 276.8H70.84Z" fill="#27BBAD"/>
<path d="M108.38 280.8V394.14H111.56L115.56 280.8H108.38Z" fill="#27BBAD"/>
<path opacity="0.5" d="M108.38 280.8V394.14H111.56L115.56 280.8H108.38Z" fill="black"/>
<path d="M431.35 276.8V399.14H428.18L424.17 276.8H431.35Z" fill="#27BBAD"/>
<path d="M393.81 280.8V394.14H390.63L386.63 280.8H393.81Z" fill="#27BBAD"/>
<path opacity="0.5" d="M393.81 280.8V394.14H390.63L386.63 280.8H393.81Z" fill="black"/>
<path d="M438.6 283.74H63.34L55.04 278.25H446.9L438.6 283.74Z" fill="#27BBAD"/>
<path opacity="0.5" d="M438.6 283.74H63.34L55.04 278.25H446.9L438.6 283.74Z" fill="black"/>
<path d="M73.35 257.39V261.39C73.3499 262.053 73.6124 262.69 74.08 263.16L77.25 266.33C77.5308 266.609 77.8734 266.818 78.25 266.94C78.9036 268.347 79.9454 269.537 81.2529 270.372C82.5603 271.206 84.079 271.65 85.63 271.65H86.82C87.8961 271.657 88.9628 271.45 89.9582 271.041C90.9536 270.632 91.858 270.03 92.6189 269.269C93.3799 268.508 93.9821 267.604 94.3909 266.608C94.7996 265.613 95.0066 264.546 95 263.47V254.14H77.52V254.9H75.85C75.1887 254.9 74.5543 255.162 74.0858 255.629C73.6172 256.095 73.3527 256.729 73.35 257.39ZM75.35 257.39C75.35 257.325 75.363 257.26 75.3882 257.2C75.4135 257.14 75.4505 257.086 75.497 257.04C75.5436 256.994 75.5988 256.958 75.6594 256.934C75.72 256.91 75.7848 256.899 75.85 256.9H77.52V263.47C77.52 263.56 77.52 263.65 77.52 263.74L75.52 261.74C75.472 261.695 75.4338 261.641 75.408 261.581C75.3821 261.521 75.3692 261.456 75.37 261.39L75.35 257.39Z" fill="#27BBAD"/>
<path opacity="0.5" d="M73.35 257.39V261.39C73.3499 262.053 73.6124 262.69 74.08 263.16L77.25 266.33C77.5308 266.609 77.8734 266.818 78.25 266.94C78.9036 268.347 79.9454 269.537 81.2529 270.372C82.5603 271.206 84.079 271.65 85.63 271.65H86.82C87.8961 271.657 88.9628 271.45 89.9582 271.041C90.9536 270.632 91.858 270.03 92.6189 269.269C93.3799 268.508 93.9821 267.604 94.3909 266.608C94.7996 265.613 95.0066 264.546 95 263.47V254.14H77.52V254.9H75.85C75.1887 254.9 74.5543 255.162 74.0858 255.629C73.6172 256.095 73.3527 256.729 73.35 257.39ZM75.35 257.39C75.35 257.325 75.363 257.26 75.3882 257.2C75.4135 257.14 75.4505 257.086 75.497 257.04C75.5436 256.994 75.5988 256.958 75.6594 256.934C75.72 256.91 75.7848 256.899 75.85 256.9H77.52V263.47C77.52 263.56 77.52 263.65 77.52 263.74L75.52 261.74C75.472 261.695 75.4338 261.641 75.408 261.581C75.3821 261.521 75.3692 261.456 75.37 261.39L75.35 257.39Z" fill="white"/>
<path d="M99.14 273H74C72.8505 272.898 71.7806 272.37 71 271.52H102.1C101.331 272.363 100.276 272.891 99.14 273Z" fill="#27BBAD"/>
<path opacity="0.5" d="M99.14 273H74C72.8505 272.898 71.7806 272.37 71 271.52H102.1C101.331 272.363 100.276 272.891 99.14 273Z" fill="white"/>
<path d="M437.36 260.76C437.23 256.76 434.21 255.82 430.27 255.37V253.92C430.265 253.752 430.194 253.593 430.072 253.477C429.95 253.361 429.788 253.297 429.62 253.3H416C415.916 253.297 415.832 253.311 415.754 253.341C415.675 253.371 415.603 253.416 415.542 253.473C415.48 253.531 415.431 253.6 415.396 253.677C415.362 253.753 415.343 253.836 415.34 253.92V272.83H430.28V270.76C434.22 270.32 437.24 264.74 437.36 260.76ZM430.27 268.32V257.82C433.17 258.24 435.17 258.64 434.74 261.54C434.4 263.86 432.58 268 430.27 268.32Z" fill="#27BBAD"/>
<g opacity="0.5">
<path d="M437.36 260.76C437.23 256.76 434.21 255.82 430.27 255.37V253.92C430.265 253.752 430.194 253.593 430.072 253.477C429.95 253.361 429.788 253.297 429.62 253.3H416C415.916 253.297 415.832 253.311 415.754 253.341C415.675 253.371 415.603 253.416 415.542 253.473C415.48 253.531 415.431 253.6 415.396 253.677C415.362 253.753 415.343 253.836 415.34 253.92V272.83H430.28V270.76C434.22 270.32 437.24 264.74 437.36 260.76ZM430.27 268.32V257.82C433.17 258.24 435.17 258.64 434.74 261.54C434.4 263.86 432.58 268 430.27 268.32Z" fill="white"/>
</g>
<path d="M255.89 248.73H244.1V272.68H255.89V248.73Z" fill="#27BBAD"/>
<path opacity="0.5" d="M255.89 248.73H244.1V272.68H255.89V248.73Z" fill="white"/>
<path d="M261.22 273.11H238.88L244.33 268.32H255.77L261.22 273.11Z" fill="#27BBAD"/>
<path opacity="0.5" d="M261.22 273.11H238.88L244.33 268.32H255.77L261.22 273.11Z" fill="white"/>
<path d="M310.33 265.36H254.49L264.58 273.14H320.41L310.33 265.36Z" fill="#27BBAD"/>
<path opacity="0.4" d="M310.33 265.36H254.49L264.58 273.14H320.41L310.33 265.36Z" fill="white"/>
<path d="M255.78 273.14L254.49 265.36L264.58 273.14H255.78Z" fill="#27BBAD"/>
<path opacity="0.5" d="M255.78 273.14L254.49 265.36L264.58 273.14H255.78Z" fill="black"/>
<path d="M300.53 192.04H198.9C197.834 192.04 196.97 192.904 196.97 193.97V256.29C196.97 257.356 197.834 258.22 198.9 258.22H300.53C301.596 258.22 302.46 257.356 302.46 256.29V193.97C302.46 192.904 301.596 192.04 300.53 192.04Z" fill="#27BBAD"/>
<path opacity="0.5" d="M298.52 196.18H200.8V253.85H298.52V196.18Z" fill="black"/>
<path opacity="0.4" d="M295.41 208.04H246.1V241.99H295.41V208.04Z" fill="black"/>
<path d="M295.41 208.04H246.1V211.15H295.41V208.04Z" fill="#27BBAD"/>
<path d="M255.14 226.82L263.2 231.28C263.507 231.428 263.783 231.636 264.01 231.89C264.147 232.09 264.217 232.328 264.21 232.57C264.211 232.739 264.177 232.907 264.112 233.063C264.047 233.22 263.951 233.361 263.83 233.48C263.718 233.599 263.584 233.694 263.434 233.76C263.285 233.825 263.123 233.859 262.96 233.86C262.602 233.819 262.259 233.692 261.96 233.49L251.56 227.71C251.394 227.627 251.254 227.499 251.156 227.341C251.058 227.183 251.006 227.001 251.006 226.815C251.006 226.629 251.058 226.447 251.156 226.289C251.254 226.131 251.394 226.003 251.56 225.92L261.96 220.14C262.261 219.946 262.604 219.826 262.96 219.79C263.124 219.788 263.287 219.819 263.439 219.883C263.59 219.947 263.727 220.041 263.84 220.16C263.961 220.276 264.058 220.416 264.123 220.571C264.189 220.725 264.221 220.892 264.22 221.06C264.229 221.302 264.159 221.541 264.02 221.74C263.793 221.995 263.517 222.202 263.21 222.35L255.14 226.82Z" fill="white"/>
<path d="M275.88 218.49L267.88 235.68C267.752 235.993 267.565 236.278 267.33 236.52C267.113 236.689 266.845 236.778 266.57 236.77C266.407 236.773 266.244 236.742 266.093 236.68C265.942 236.618 265.805 236.526 265.69 236.41C265.572 236.306 265.478 236.178 265.412 236.035C265.347 235.892 265.312 235.737 265.31 235.58C265.339 235.229 265.441 234.889 265.61 234.58L273.61 217.4C273.735 217.094 273.915 216.812 274.14 216.57C274.36 216.399 274.631 216.307 274.91 216.31C275.072 216.308 275.233 216.338 275.382 216.4C275.532 216.462 275.667 216.554 275.78 216.67C275.893 216.775 275.984 216.901 276.046 217.043C276.107 217.184 276.14 217.336 276.14 217.49C276.125 217.838 276.037 218.179 275.88 218.49Z" fill="white"/>
<path d="M285.91 226.82L277.85 222.35C277.546 222.196 277.272 221.99 277.04 221.74C276.901 221.541 276.831 221.302 276.84 221.06C276.838 220.892 276.871 220.725 276.937 220.571C277.002 220.416 277.099 220.276 277.22 220.16C277.335 220.041 277.474 219.947 277.627 219.883C277.78 219.82 277.944 219.788 278.11 219.79C278.466 219.828 278.808 219.948 279.11 220.14L289.51 225.92C289.676 226.003 289.816 226.131 289.914 226.289C290.012 226.447 290.064 226.629 290.064 226.815C290.064 227.001 290.012 227.183 289.914 227.341C289.816 227.499 289.676 227.627 289.51 227.71L279.11 233.49C278.81 233.69 278.468 233.817 278.11 233.86C277.941 233.862 277.773 233.828 277.618 233.761C277.463 233.694 277.324 233.595 277.21 233.47C277.092 233.352 276.998 233.212 276.935 233.057C276.871 232.903 276.839 232.737 276.84 232.57C276.833 232.328 276.903 232.09 277.04 231.89C277.272 231.64 277.546 231.434 277.85 231.28L285.91 226.82Z" fill="white"/>
<path d="M208.15 201.5H204.81V204.84H208.15V201.5Z" fill="white"/>
<path d="M208.15 210.15H204.81V213.49H208.15V210.15Z" fill="white"/>
<path d="M208.15 218.79H204.81V222.13H208.15V218.79Z" fill="white"/>
<path d="M208.15 227.43H204.81V230.77H208.15V227.43Z" fill="white"/>
<path d="M208.15 236.07H204.81V239.41H208.15V236.07Z" fill="white"/>
<path d="M208.15 244.71H204.81V248.05H208.15V244.71Z" fill="white"/>
<path d="M224.63 202.26H211.32V203.26H224.63V202.26Z" fill="white"/>
<path d="M219.16 210.92H214.42V211.92H219.16V210.92Z" fill="white"/>
<path d="M239.79 220.64H235.05V221.64H239.79V220.64Z" fill="white"/>
<path d="M219.16 228.35H214.42V229.35H219.16V228.35Z" fill="white"/>
<path d="M225.99 228.35H221.25V229.35H225.99V228.35Z" fill="white"/>
<path d="M233.36 220.64H221.25V221.64H233.36V220.64Z" fill="white"/>
<path d="M236.28 228.35H228.31V229.35H236.28V228.35Z" fill="white"/>
<path d="M233.02 246.88H228.28V247.88H233.02V246.88Z" fill="white"/>
<path d="M239.86 246.88H235.12V247.88H239.86V246.88Z" fill="white"/>
<path d="M244.82 246.88H242.17V247.88H244.82V246.88Z" fill="white"/>
<path d="M236.28 210.92H221.53V211.92H236.28V210.92Z" fill="white"/>
<path d="M225.99 237.38H221.25V238.38H225.99V237.38Z" fill="white"/>
<path d="M230.32 237.38H227.58V238.38H230.32V237.38Z" fill="white"/>
<path d="M240.15 237.38H232.41V238.38H240.15V237.38Z" fill="white"/>
<path d="M241.44 164.5C241.19 176.6 228.62 186.75 213.35 187.15C208.661 187.308 203.993 186.445 199.67 184.62C198.13 188.42 194.89 191.68 185.6 193.14C195.29 185.65 189.99 179.31 187.78 173.74C186.637 171.308 186.065 168.647 186.11 165.96C186.36 153.85 198.93 143.72 214.2 143.31C229.47 142.9 241.68 152.4 241.44 164.5Z" fill="#27BBAD"/>
<path d="M214.1 151.83H200.79V152.83H214.1V151.83Z" fill="white"/>
<path d="M208.63 160.5H203.89V161.5H208.63V160.5Z" fill="white"/>
<path d="M229.26 170.22H224.52V171.22H229.26V170.22Z" fill="white"/>
<path d="M208.63 177.93H203.89V178.93H208.63V177.93Z" fill="white"/>
<path d="M215.47 177.93H210.73V178.93H215.47V177.93Z" fill="white"/>
<path d="M222.84 170.22H210.73V171.22H222.84V170.22Z" fill="white"/>
<path d="M225.75 177.93H217.78V178.93H225.75V177.93Z" fill="white"/>
<path d="M225.76 160.5H211.01V161.5H225.76V160.5Z" fill="white"/>
<path d="M299.17 393.75L291.88 391.57L293.58 373.7L300.87 375.88L299.17 393.75Z" fill="#7F3E3B"/>
<path opacity="0.2" d="M301.47 371.84L294.18 369.67L293.23 379.68L300.6 381.05L301.47 371.84Z" fill="black"/>
<path d="M342.32 283.38C342.32 283.38 292.19 287.61 293.42 309.38C294.42 327.2 297.07 322.38 291.88 375.38L304.49 376.08C304.49 376.08 317.32 332.74 315.59 315.52C329.72 315.52 362.07 316.76 366.77 304.01C369.102 297.535 370.237 290.691 370.12 283.81L342.32 283.38Z" fill="#27BBAD"/>
<path d="M306.49 378.48L290.01 375.66L290.28 368.37L307.34 372.16L306.49 378.48Z" fill="#263238"/>
<path d="M291.13 388.57L299.55 390.24C299.703 390.276 299.837 390.368 299.926 390.497C300.014 390.627 300.052 390.785 300.03 390.94L299.33 398.94C299.317 399.129 299.267 399.313 299.183 399.481C299.098 399.65 298.981 399.801 298.837 399.924C298.694 400.046 298.527 400.14 298.348 400.197C298.168 400.255 297.978 400.276 297.79 400.26C294.87 399.62 293.49 399.15 289.79 398.41C287.51 397.96 282.3 396.87 279.13 396.51C275.96 396.15 276.34 392.45 277.71 392.26C283.87 391.45 287.37 390.45 289.76 388.91C290.155 388.622 290.646 388.5 291.13 388.57Z" fill="#263238"/>
<path d="M287.35 390C288.013 390.09 288.683 390.11 289.35 390.06C289.384 390.061 289.417 390.051 289.444 390.031C289.471 390.011 289.491 389.983 289.5 389.95C289.515 389.921 289.523 389.888 289.523 389.855C289.523 389.822 289.515 389.789 289.5 389.76C289.29 389.55 287.4 387.76 286.43 387.96C286.318 387.978 286.212 388.027 286.126 388.101C286.04 388.175 285.975 388.272 285.94 388.38C285.861 388.537 285.825 388.713 285.836 388.888C285.846 389.064 285.903 389.233 286 389.38C286.354 389.752 286.837 389.974 287.35 390ZM288.96 389.73C287.57 389.73 286.59 389.57 286.3 389.16C286.241 389.064 286.209 388.953 286.209 388.84C286.209 388.727 286.241 388.616 286.3 388.52C286.316 388.466 286.345 388.418 286.386 388.379C286.426 388.341 286.476 388.313 286.53 388.3C287 388.2 288.18 389 289 389.74L288.96 389.73Z" fill="#27BBAD"/>
<path d="M289.36 390.07H289.44C289.469 390.059 289.494 390.042 289.515 390.019C289.536 389.996 289.551 389.969 289.56 389.94C289.56 389.85 290.11 387.72 289.47 386.87C289.392 386.756 289.288 386.663 289.166 386.599C289.044 386.534 288.908 386.5 288.77 386.5C288.62 386.478 288.467 386.508 288.337 386.584C288.206 386.661 288.105 386.779 288.05 386.92C287.74 387.71 288.6 389.46 289.27 390.03C289.281 390.043 289.295 390.054 289.31 390.061C289.326 390.068 289.343 390.071 289.36 390.07ZM288.84 386.86C288.979 386.889 289.104 386.967 289.19 387.08C289.478 387.87 289.509 388.731 289.28 389.54C288.67 388.857 288.348 387.965 288.38 387.05C288.38 386.95 288.49 386.84 288.75 386.85L288.84 386.86Z" fill="#27BBAD"/>
<path d="M266.67 396.53L259.73 393.41L264.53 376.29L271.47 379.41L266.67 396.53Z" fill="#7F3E3B"/>
<path opacity="0.2" d="M272.64 375L265.7 371.88L263.23 380.71L270.17 383.83L272.64 375Z" fill="black"/>
<path d="M327.4 283.38C327.07 283.38 271.2 289.13 271.13 308.08C271.01 339.42 262.06 375.34 262.06 375.34L273.06 380.81C273.06 380.81 292.29 341.87 292 317.44C307.37 313.03 347.13 320.44 351.83 307.7C355.68 297.28 353.6 283.38 353.6 283.38H327.4Z" fill="#27BBAD"/>
<path d="M274.86 382.4L260.06 375.74L261.25 369.68L276.86 375.07L274.86 382.4Z" fill="#263238"/>
<path d="M260.42 387.66L268.86 389.41C269.018 389.463 269.153 389.57 269.239 389.713C269.325 389.856 269.358 390.025 269.33 390.19L268.67 398.94C268.55 399.89 267.87 400.54 267.14 400.39C264.22 399.72 262.84 399.2 259.14 398.39C256.86 397.93 250.65 396.39 247.52 395.6C244.39 394.81 245.09 390.8 246.52 390.77C252.71 390.68 256.72 389.67 259.1 387.94C259.289 387.805 259.503 387.71 259.731 387.662C259.958 387.613 260.193 387.613 260.42 387.66Z" fill="#263238"/>
<path d="M257 389.55C257.587 389.227 258.14 388.845 258.65 388.41C258.676 388.386 258.695 388.356 258.705 388.323C258.716 388.29 258.717 388.254 258.71 388.22C258.7 388.187 258.68 388.158 258.654 388.137C258.627 388.115 258.594 388.103 258.56 388.1C258.27 388.1 255.69 387.72 255.02 388.47C254.946 388.555 254.895 388.657 254.87 388.767C254.846 388.877 254.849 388.992 254.88 389.1C254.91 389.273 254.984 389.436 255.097 389.571C255.209 389.706 255.355 389.809 255.52 389.87C256.036 389.952 256.564 389.838 257 389.55ZM258.13 388.38C257.04 389.23 256.13 389.64 255.66 389.5C255.555 389.453 255.464 389.379 255.395 389.286C255.327 389.193 255.284 389.084 255.27 388.97C255.253 388.918 255.251 388.863 255.264 388.81C255.276 388.758 255.302 388.709 255.34 388.67C255.64 388.31 257 388.28 258.08 388.38H258.13Z" fill="#27BBAD"/>
<path d="M258.6 388.41L258.67 388.36C258.687 388.335 258.696 388.305 258.696 388.275C258.696 388.245 258.687 388.215 258.67 388.19C258.62 388.12 257.79 386.07 256.78 385.76C256.65 385.719 256.511 385.708 256.376 385.729C256.241 385.75 256.112 385.801 256 385.88C255.866 385.952 255.76 386.067 255.7 386.207C255.64 386.347 255.629 386.503 255.67 386.65C255.88 387.48 257.61 388.37 258.5 388.43L258.6 388.41ZM256.27 386.13C256.336 386.101 256.408 386.086 256.48 386.086C256.552 386.086 256.624 386.101 256.69 386.13C257.394 386.595 257.933 387.27 258.23 388.06C257.331 387.873 256.54 387.347 256.02 386.59C255.96 386.51 256.02 386.35 256.2 386.21L256.27 386.13Z" fill="#27BBAD"/>
<path d="M346.38 222.92C347.85 226.08 349.06 229.12 350.27 232.28C351.48 235.44 352.55 238.6 353.54 241.84C354.53 245.08 355.39 248.4 356.08 251.84C356.833 255.414 357.208 259.057 357.2 262.71C357.189 264.855 356.869 266.987 356.25 269.04C355.858 270.297 355.296 271.495 354.58 272.6C354.157 273.222 353.678 273.804 353.15 274.34L352.72 274.76C352.48 274.96 352.22 275.18 351.97 275.35C351.547 275.637 351.098 275.885 350.63 276.09C349.934 276.389 349.21 276.62 348.47 276.78C347.886 276.901 347.295 276.988 346.7 277.04C345.684 277.1 344.666 277.1 343.65 277.04C341.846 276.951 340.049 276.75 338.27 276.44C331.632 275.232 325.131 273.369 318.86 270.88L320.31 265.37C326.66 266.13 333.14 266.94 339.25 267.22C340.77 267.22 342.25 267.29 343.63 267.22C344.244 267.183 344.856 267.106 345.46 266.99C345.96 266.9 346.39 266.72 346.24 266.73C346.139 266.76 346.045 266.808 345.96 266.87C345.859 266.929 345.765 266.999 345.68 267.08C345.713 267.025 345.744 266.969 345.77 266.91C345.898 266.624 345.999 266.326 346.07 266.02C346.29 264.921 346.38 263.8 346.34 262.68C346.188 259.816 345.763 256.973 345.07 254.19C344.39 251.19 343.51 248.27 342.55 245.3C341.59 242.33 340.55 239.36 339.41 236.4C338.27 233.44 337.07 230.47 335.89 227.68L346.38 222.92Z" fill="#7F3E3B"/>
<path d="M323.07 266.87L316.44 263.14L313.11 270.32C313.11 270.32 320.86 273.55 322.49 271.53L323.07 266.87Z" fill="#7F3E3B"/>
<path d="M311.07 264.5L308.04 269.3L313.11 270.27L316.44 263.09L311.07 264.5Z" fill="#7F3E3B"/>
<path d="M330.92 228.62C329.65 231.81 328.32 234.86 326.92 237.95C325.52 241.04 324.12 244.08 322.64 247.12C319.66 253.31 316.321 259.32 312.64 265.12C311.64 266.6 310.64 268.07 309.52 269.54C308.96 270.28 308.34 271.01 307.68 271.76C307.32 272.14 307.03 272.49 306.61 272.88L306.01 273.46L305.67 273.78C304.718 274.594 303.598 275.188 302.39 275.52C301.753 275.701 301.105 275.838 300.45 275.93C299.382 276.058 298.305 276.102 297.23 276.06C295.373 276.002 293.522 275.818 291.69 275.51C284.91 274.312 278.27 272.429 271.87 269.89L273.33 264.37C279.8 265.15 286.41 265.98 292.63 266.24C294.097 266.295 295.565 266.275 297.03 266.18C297.62 266.132 298.205 266.038 298.78 265.9C298.967 265.853 299.148 265.786 299.32 265.7C299.38 265.7 299.32 265.63 299.05 265.8C298.95 265.852 298.859 265.919 298.78 266L298.88 265.88L299.16 265.57C299.34 265.39 299.56 265.09 299.77 264.85C300.18 264.33 300.6 263.77 301.02 263.16C301.85 261.97 302.66 260.65 303.46 259.31C305.06 256.63 306.55 253.78 308.01 250.9C309.47 248.02 310.87 245.08 312.25 242.12C315 236.22 317.69 230.12 320.25 224.22L330.92 228.62Z" fill="#7F3E3B"/>
<path d="M276.17 265.81L269.53 262L266.2 269.18C266.2 269.18 273.95 272.42 275.59 270.4L276.17 265.81Z" fill="#7F3E3B"/>
<path d="M264.17 263.45L261.13 268.24L266.2 269.21L269.53 262.03L264.17 263.45Z" fill="#7F3E3B"/>
<path d="M348.09 193.14L343.85 198.05L337.38 204.74L337.87 205.95C338.369 207.187 338.66 208.498 338.73 209.83C338.88 212.51 338.62 214.78 334.39 216.6C334.39 216.6 329.95 222.4 340.51 220.79C351.07 219.18 352.66 213.7 352.66 213.7C348 210.37 347.72 199.3 348.09 193.14Z" fill="#7F3E3B"/>
<path d="M326.56 187.6C326.56 188.26 326.23 188.82 325.79 188.84C325.35 188.86 325 188.34 324.99 187.68C324.98 187.02 325.33 186.46 325.76 186.44C326.19 186.42 326.55 186.94 326.56 187.6Z" fill="#263238"/>
<path d="M328.77 185.14C328.706 185.14 328.643 185.123 328.587 185.091C328.531 185.06 328.484 185.015 328.45 184.96C328.191 184.536 327.838 184.177 327.418 183.91C326.999 183.643 326.524 183.475 326.03 183.42C325.927 183.415 325.831 183.371 325.76 183.296C325.689 183.222 325.65 183.123 325.65 183.02C325.65 182.968 325.66 182.917 325.681 182.87C325.701 182.822 325.731 182.78 325.768 182.744C325.806 182.708 325.85 182.681 325.898 182.663C325.947 182.645 325.998 182.637 326.05 182.64C326.673 182.695 327.275 182.896 327.806 183.226C328.337 183.556 328.784 184.006 329.11 184.54C329.163 184.628 329.181 184.734 329.158 184.834C329.136 184.935 329.076 185.023 328.99 185.08C328.923 185.118 328.847 185.139 328.77 185.14Z" fill="#263238"/>
<path d="M326.32 188C325.781 189.8 325.008 191.522 324.02 193.12C324.431 193.352 324.887 193.49 325.358 193.524C325.828 193.559 326.3 193.489 326.74 193.32L326.32 188Z" fill="#630F0F"/>
<path d="M348.69 184.27C348.3 192.43 348.48 197.27 344.43 201.59C343.128 203.025 341.459 204.077 339.602 204.632C337.746 205.186 335.773 205.223 333.897 204.739C332.021 204.254 330.314 203.265 328.959 201.88C327.604 200.495 326.653 198.766 326.21 196.88C324.37 189.65 325.33 177.52 333.21 173.88C334.906 173.04 336.793 172.663 338.681 172.787C340.57 172.911 342.392 173.532 343.963 174.586C345.534 175.641 346.799 177.092 347.629 178.792C348.459 180.493 348.825 182.383 348.69 184.27Z" fill="#7F3E3B"/>
<path d="M352.39 187C351.213 190.461 349.417 193.68 347.09 196.5L336.47 198.5C336.47 198.5 328.08 194.99 330.32 189.21C328.9 188.01 329.43 184.3 330.43 182.26C331.235 182.921 332.251 183.27 333.293 183.243C334.334 183.215 335.331 182.813 336.1 182.11C336.422 182.613 336.855 183.035 337.366 183.344C337.878 183.652 338.454 183.838 339.049 183.887C339.644 183.937 340.242 183.848 340.798 183.628C341.353 183.408 341.85 183.063 342.25 182.62C342.705 183.06 343.256 183.389 343.859 183.581C344.463 183.773 345.103 183.823 345.729 183.726C346.354 183.629 346.949 183.388 347.466 183.023C347.984 182.658 348.409 182.177 348.71 181.62C349.363 182.028 350.127 182.221 350.895 182.17C351.663 182.12 352.396 181.83 352.99 181.34L353.14 181.2C353.284 183.164 353.029 185.137 352.39 187Z" fill="#263238"/>
<path opacity="0.1" d="M352.39 187C351.213 190.461 349.417 193.68 347.09 196.5L336.47 198.5C336.47 198.5 328.08 194.99 330.32 189.21C328.9 188.01 329.43 184.3 330.43 182.26C331.235 182.921 332.251 183.27 333.293 183.243C334.334 183.215 335.331 182.813 336.1 182.11C336.422 182.613 336.855 183.035 337.366 183.344C337.878 183.652 338.454 183.838 339.049 183.887C339.644 183.937 340.242 183.848 340.798 183.628C341.353 183.408 341.85 183.063 342.25 182.62C342.705 183.06 343.256 183.389 343.859 183.581C344.463 183.773 345.103 183.823 345.729 183.726C346.354 183.629 346.949 183.388 347.466 183.023C347.984 182.658 348.409 182.177 348.71 181.62C349.363 182.028 350.127 182.221 350.895 182.17C351.663 182.12 352.396 181.83 352.99 181.34L353.14 181.2C353.284 183.164 353.029 185.137 352.39 187Z" fill="white"/>
<path d="M353.92 177.1C354.208 177.776 354.288 178.523 354.149 179.244C354.01 179.966 353.659 180.629 353.14 181.15L352.99 181.29C352.396 181.78 351.663 182.07 350.895 182.12C350.127 182.171 349.363 181.978 348.71 181.57C348.409 182.127 347.984 182.608 347.467 182.973C346.949 183.338 346.354 183.579 345.729 183.676C345.103 183.773 344.463 183.723 343.859 183.531C343.256 183.339 342.705 183.01 342.25 182.57C341.85 183.013 341.353 183.358 340.798 183.578C340.242 183.798 339.644 183.887 339.049 183.837C338.454 183.788 337.878 183.602 337.366 183.294C336.855 182.985 336.422 182.563 336.1 182.06C335.331 182.763 334.334 183.165 333.293 183.193C332.252 183.22 331.235 182.871 330.43 182.21C330.005 181.88 329.662 181.456 329.43 180.97C329.375 180.864 329.328 180.753 329.29 180.64C329.204 180.738 329.111 180.828 329.01 180.91C328.511 181.309 327.901 181.543 327.263 181.58C326.626 181.618 325.992 181.457 325.45 181.12C325.021 180.822 324.677 180.417 324.453 179.945C324.228 179.473 324.131 178.951 324.17 178.43C324.181 178.213 324.218 177.998 324.28 177.79C324.201 177.941 324.1 178.079 323.98 178.2C323.742 178.43 323.46 178.61 323.151 178.731C322.842 178.851 322.512 178.908 322.181 178.9C321.85 178.892 321.524 178.817 321.221 178.682C320.919 178.546 320.647 178.352 320.42 178.11C320.189 177.761 320.032 177.369 319.958 176.957C319.883 176.546 319.893 176.124 319.986 175.716C320.08 175.308 320.255 174.924 320.502 174.586C320.748 174.248 321.06 173.964 321.42 173.75C321.991 173.418 322.64 173.245 323.3 173.25C324.339 173.265 325.346 173.616 326.17 174.25C325.852 173.62 325.767 172.897 325.93 172.21C326.092 171.523 326.491 170.916 327.057 170.494C327.623 170.072 328.32 169.864 329.025 169.905C329.729 169.947 330.397 170.235 330.91 170.72C330.799 170.21 330.843 169.678 331.037 169.193C331.232 168.708 331.567 168.292 332 168C333.38 167.2 335.68 167.89 336.8 169.23C336.8 169.23 338.34 165.51 341 165.93C341.58 166.01 344.31 167.22 344.24 168.2C344.255 168.263 344.255 168.328 344.24 168.39C344.277 168.313 344.321 168.24 344.37 168.17C344.664 167.773 345.052 167.455 345.498 167.244C345.945 167.033 346.437 166.935 346.93 166.96C347.999 167.039 349.044 167.317 350.01 167.78C352.08 168.63 354.28 169.58 355.48 171.47C356.68 173.36 356.07 176.5 353.92 177.1Z" fill="#263238"/>
<path d="M335 190C334.705 192.014 333.781 193.883 332.36 195.34C330.55 197.07 329.01 195.34 328.99 192.71C328.99 190.33 329.88 186.56 331.99 185.86C334.1 185.16 335.4 187.37 335 190Z" fill="#7F3E3B"/>
<path d="M367 216.54C366.25 214.54 362.75 212.54 360.6 212.54H359.18C356.315 212.565 353.454 212.749 350.61 213.09C344.894 213.722 339.218 214.677 333.61 215.95C331.03 216.63 328.54 217.49 326.56 218.23C324.04 219.23 322.56 219.9 322.56 219.9C322.56 219.9 325.32 238.28 326.75 256.54C327.54 266.71 327.21 276.8 327.47 283.74H370.13C371.6 275.4 371.37 268.13 371.49 253.07C371.55 244 370.08 224.77 367 216.54Z" fill="#263238"/>
<path opacity="0.2" d="M325.82 246.34C326.14 250.17 326.47 254.19 326.82 258.21C331.82 250.91 334.58 230.94 334.58 230.94L325.82 246.34Z" fill="black"/>
<path d="M320.14 221.24C314.03 224.68 308.04 242.24 308.04 242.24L322.04 252.79C327.38 247.74 335.19 235.21 336.04 230.2C337.4 222.56 329.93 215.76 320.14 221.24Z" fill="#263238"/>
<path d="M308.06 400.44C308.06 401.3 307.805 402.141 307.327 402.857C306.849 403.572 306.17 404.13 305.375 404.459C304.58 404.788 303.705 404.874 302.861 404.707C302.018 404.539 301.242 404.124 300.634 403.516C300.026 402.908 299.611 402.133 299.444 401.289C299.276 400.445 299.362 399.57 299.691 398.775C300.02 397.981 300.578 397.301 301.293 396.823C302.009 396.345 302.85 396.09 303.71 396.09C304.864 396.09 305.97 396.548 306.786 397.364C307.602 398.18 308.06 399.286 308.06 400.44Z" fill="#263238"/>
<path d="M373 400.44C373 401.3 373.255 402.141 373.733 402.857C374.211 403.572 374.89 404.13 375.685 404.459C376.48 404.788 377.355 404.874 378.199 404.707C379.042 404.539 379.818 404.124 380.426 403.516C381.034 402.908 381.449 402.133 381.616 401.289C381.784 400.445 381.698 399.57 381.369 398.775C381.04 397.981 380.482 397.301 379.767 396.823C379.051 396.345 378.21 396.09 377.35 396.09C376.196 396.09 375.09 396.548 374.274 397.364C373.458 398.18 373 399.286 373 400.44Z" fill="#263238"/>
<path d="M336.27 399C336.27 399.86 336.525 400.701 337.003 401.417C337.481 402.132 338.16 402.69 338.955 403.019C339.75 403.348 340.625 403.434 341.469 403.266C342.312 403.099 343.088 402.684 343.696 402.076C344.304 401.468 344.719 400.692 344.886 399.849C345.054 399.005 344.968 398.13 344.639 397.335C344.31 396.54 343.752 395.861 343.037 395.383C342.321 394.905 341.48 394.65 340.62 394.65C339.466 394.65 338.36 395.108 337.544 395.924C336.728 396.74 336.27 397.846 336.27 399Z" fill="#263238"/>
<path d="M339.27 393.68V385.27H326.81C324.364 385.267 321.923 385.494 319.52 385.95L296.32 390.45C295.8 390.551 295.336 390.845 295.023 391.273C294.709 391.7 294.568 392.23 294.627 392.757C294.686 393.284 294.942 393.769 295.342 394.116C295.743 394.463 296.26 394.647 296.79 394.63L339.27 393.68Z" fill="#263238"/>
<path d="M339.27 393.68V385.27H351.74C354.178 385.284 356.608 385.529 359 386L385.08 390.16C385.6 390.261 386.064 390.555 386.377 390.983C386.691 391.41 386.832 391.94 386.773 392.467C386.714 392.994 386.458 393.479 386.058 393.826C385.657 394.173 385.14 394.357 384.61 394.34L339.27 393.68Z" fill="#263238"/>
<path d="M346.98 346.77H331.55V385.28H346.98V346.77Z" fill="#263238"/>
<path d="M344.77 328.85H333.77V346.76H344.77V328.85Z" fill="#263238"/>
<path opacity="0.5" d="M333.77 334.11L344.77 336.88V328.85H333.77V334.11Z" fill="black"/>
<path d="M303.71 288.33H298.12V312.18H303.71V288.33Z" fill="#263238"/>
<path d="M331.74 328.85V225.16C331.739 223.22 332.153 221.302 332.955 219.536C333.757 217.77 334.929 216.196 336.39 214.92L343.78 208.45C346.269 206.267 349.47 205.069 352.78 205.08H379.47L392.49 219V328.85H331.74Z" fill="#27BBAD"/>
<path d="M292 308.79H352.9V328.85H282.07C280.8 328.848 279.553 328.51 278.455 327.872C277.358 327.233 276.448 326.315 275.819 325.212C275.19 324.109 274.863 322.859 274.872 321.589C274.881 320.319 275.225 319.074 275.87 317.98C277.526 315.177 279.885 312.854 282.714 311.242C285.543 309.63 288.744 308.785 292 308.79Z" fill="#27BBAD"/>
<path opacity="0.7" d="M392.49 219V328.85H282.07C280.8 328.848 279.553 328.51 278.455 327.872C277.358 327.233 276.448 326.315 275.819 325.212C275.19 324.109 274.863 322.859 274.872 321.589C274.881 320.319 275.225 319.074 275.87 317.98C277.527 315.177 279.886 312.855 282.715 311.243C285.544 309.632 288.744 308.786 292 308.79H322.67C325.086 308.79 327.403 307.83 329.112 306.122C330.82 304.413 331.78 302.096 331.78 299.68V225.16C331.779 223.22 332.193 221.302 332.995 219.536C333.797 217.77 334.968 216.196 336.43 214.92L343.82 208.45C346.309 206.267 349.51 205.069 352.82 205.08H379.51L392.49 219Z" fill="white"/>
<path d="M340.62 328.85V225.16C340.621 223.221 341.037 221.304 341.839 219.538C342.641 217.772 343.81 216.197 345.27 214.92L352.66 208.45C355.149 206.267 358.35 205.069 361.66 205.08H382.47C384.329 205.079 386.169 205.459 387.875 206.196C389.581 206.934 391.118 208.014 392.39 209.37L397.71 215.02C400.081 217.548 401.4 220.884 401.4 224.35V318.46C401.401 319.826 401.133 321.178 400.611 322.44C400.089 323.702 399.322 324.848 398.356 325.813C397.39 326.779 396.243 327.544 394.981 328.065C393.718 328.586 392.366 328.853 391 328.85H340.62Z" fill="#27BBAD"/>
<path opacity="0.5" d="M340.62 328.85V225.16C340.621 223.221 341.037 221.304 341.839 219.538C342.641 217.772 343.81 216.197 345.27 214.92L352.66 208.45C355.149 206.267 358.35 205.069 361.66 205.08H382.47C384.329 205.079 386.169 205.459 387.875 206.196C389.581 206.934 391.118 208.014 392.39 209.37L397.71 215.02C400.081 217.548 401.4 220.884 401.4 224.35V318.46C401.401 319.826 401.133 321.178 400.611 322.44C400.089 323.702 399.322 324.848 398.356 325.813C397.39 326.779 396.243 327.544 394.981 328.065C393.718 328.586 392.366 328.853 391 328.85H340.62Z" fill="white"/>
<path d="M319.9 295.61C307.598 291.31 294.202 291.31 281.9 295.61C280.665 296.071 279.305 296.066 278.074 295.597C276.843 295.128 275.825 294.226 275.21 293.06C274.07 290.65 275.6 287.53 278.7 286.44C293.067 281.42 308.713 281.42 323.08 286.44C326.18 287.52 327.71 290.65 326.57 293.06C325.956 294.221 324.941 295.12 323.714 295.589C322.487 296.058 321.132 296.065 319.9 295.61Z" fill="#27BBAD"/>
<path opacity="0.7" d="M319.9 295.61C307.598 291.31 294.202 291.31 281.9 295.61C280.665 296.071 279.305 296.066 278.074 295.597C276.843 295.128 275.825 294.226 275.21 293.06C274.07 290.65 275.6 287.53 278.7 286.44C293.067 281.42 308.713 281.42 323.08 286.44C326.18 287.52 327.71 290.65 326.57 293.06C325.956 294.221 324.941 295.12 323.714 295.589C322.487 296.058 321.132 296.065 319.9 295.61Z" fill="white"/>
<path d="M164.49 196.39C164.28 196.98 164.43 197.57 164.82 197.7C165.21 197.83 165.69 197.47 165.89 196.88C166.09 196.29 165.95 195.69 165.57 195.56C165.19 195.43 164.7 195.79 164.49 196.39Z" fill="#263238"/>
<path d="M164.38 197C164.462 199.059 164.821 201.098 165.45 203.06C164.946 203.202 164.418 203.235 163.9 203.156C163.383 203.076 162.888 202.887 162.45 202.6L164.38 197Z" fill="#A02724"/>
<path d="M163.53 192.37C163.566 192.385 163.606 192.393 163.645 192.393C163.684 192.393 163.724 192.385 163.76 192.37C164.2 192.23 164.666 192.193 165.122 192.263C165.578 192.332 166.012 192.506 166.39 192.77C166.429 192.799 166.474 192.82 166.521 192.832C166.569 192.844 166.618 192.846 166.667 192.839C166.715 192.831 166.761 192.814 166.803 192.789C166.845 192.763 166.881 192.73 166.91 192.69C166.965 192.622 166.995 192.537 166.995 192.45C166.995 192.363 166.965 192.278 166.91 192.21C166.44 191.861 165.894 191.629 165.317 191.533C164.739 191.438 164.147 191.481 163.59 191.66C163.499 191.694 163.424 191.762 163.381 191.849C163.338 191.937 163.331 192.037 163.36 192.13C163.377 192.184 163.407 192.233 163.447 192.273C163.487 192.313 163.536 192.343 163.59 192.36L163.53 192.37Z" fill="#263238"/>
<path d="M142.56 198.57C143.68 204.26 144.79 214.69 140.81 218.49C140.81 218.49 142.37 224.26 152.95 224.26C164.58 224.26 158.51 218.49 158.51 218.49C152.16 216.97 153.18 212.26 154.29 207.84L142.56 198.57Z" fill="#B55B52"/>
<path d="M145.15 188.25C143.07 195.69 141.47 199.94 143.85 204.95C147.42 212.5 159.9 213.48 163.3 204.84C165.89 196.84 168.45 188.47 162.3 183.1C160.955 181.909 159.329 181.081 157.575 180.695C155.821 180.309 153.997 180.377 152.276 180.893C150.556 181.408 148.996 182.355 147.743 183.642C146.491 184.93 145.588 186.516 145.12 188.25H145.15Z" fill="#B55B52"/>
<path d="M137.09 190.73C136.55 187.99 136.41 184.99 137.78 182.55C139.15 180.11 142.46 178.62 144.87 180.04C145.653 178.391 146.811 176.947 148.252 175.826C149.693 174.704 151.377 173.935 153.168 173.581C154.959 173.226 156.808 173.296 158.568 173.784C160.327 174.272 161.948 175.166 163.3 176.392C164.653 177.619 165.699 179.146 166.356 180.849C167.013 182.553 167.262 184.387 167.083 186.204C166.904 188.021 166.302 189.771 165.326 191.314C164.35 192.857 163.026 194.15 161.46 195.09C162.01 193.04 162.57 191 163.12 188.95C162.629 191.804 161.114 194.382 158.86 196.2L159.86 190.07C159.703 191.517 159.211 192.907 158.423 194.131C157.635 195.355 156.572 196.378 155.32 197.12L156.49 192.83C155.897 194.803 155.141 196.723 154.23 198.57C153.23 199.72 152.59 207.24 149.15 207.48C137.33 209.83 138.35 197.13 137.09 190.73Z" fill="#263238"/>
<path d="M153 194.29C152.8 196.198 153.229 198.118 154.22 199.76C155.55 201.9 157.5 201.08 158.22 198.89C158.86 196.89 158.93 193.44 157.08 192.05C155.23 190.66 153.28 192 153 194.29Z" fill="#B55B52"/>
<path d="M124.81 266.37C123.54 265.95 117.59 262.89 116.64 263.44C119.39 256.44 121.1 255.35 122.35 250.89C122.698 249.783 122.759 248.605 122.526 247.468C122.293 246.331 121.775 245.272 121.02 244.39C119.26 242.03 118.65 240.84 115.73 241.13C111.73 247.85 106.64 256.13 104.66 263.72C103.99 266.27 103.51 268.21 105.03 270.37C106.37 272.27 108.84 273.03 111.16 273.24C116.73 273.74 125 272.72 124.89 269.41C124.83 267.32 124.81 266.37 124.81 266.37Z" fill="#B55B52"/>
<path d="M123.87 266.12L128.59 264.59L128.17 273.12C128.17 273.12 124.39 273.25 122.37 270.72L123.87 266.12Z" fill="#B55B52"/>
<path d="M134.49 264.45L133.82 271.49L128.17 273.12L128.59 264.59L134.49 264.45Z" fill="#B55B52"/>
<path d="M188.61 272.18C188.61 272.18 182 267 173.38 250C172.1 247.62 170.88 245.21 169.7 242.79C168.52 240.37 167.4 237.95 166.32 235.38L176.54 230.98C178.64 235.56 181.92 240.29 184.24 244.84C186.56 249.39 192.03 260.17 192.72 261.17C193.06 261.69 193.43 262.12 193.78 262.6L194.31 263.3L187.72 270.92L188.61 272.18Z" fill="#B55B52"/>
<path d="M197.26 239L195.26 236.56L194.32 232.91L200.49 227.18C201.434 228.38 202.273 229.658 203 231C203.159 231.309 203.235 231.653 203.22 232L202.97 238.43L197.26 239Z" fill="#B55B52"/>
<path d="M194.36 228.97L198.97 224.78L200.43 227.23L194.27 232.93L194.36 228.97Z" fill="#B55B52"/>
<path d="M197.35 237.24C197.51 236.55 197.65 237.9 198.11 237.36C199.47 235.72 201.45 235.55 202.63 237.36C203.81 239.17 202.8 256.98 200.92 262.57C199.67 266.28 199 269.24 195.8 271.5C194.507 272.498 192.933 273.065 191.3 273.12C190.487 273.13 189.688 272.907 188.997 272.479C188.306 272.05 187.752 271.433 187.4 270.7C186.4 268.37 189.98 259.97 191.24 257.26C195.19 248.73 195.46 245.3 197.35 237.24Z" fill="#B55B52"/>
<path d="M184.12 236.47L192.29 236.39C193.456 236.465 194.624 236.28 195.71 235.85C197.041 235.073 198.035 233.829 198.5 232.36C199.66 229.36 199.76 226.14 200.21 223C200.66 219.86 201.62 216.56 204 214.45C199.66 215.03 192 213.67 188.65 217.22C186.89 219.11 183.78 236.47 184.12 236.47Z" fill="#27BBAD"/>
<path opacity="0.5" d="M184.12 236.47L192.29 236.39C193.456 236.465 194.624 236.28 195.71 235.85C197.041 235.073 198.035 233.829 198.5 232.36C199.66 229.36 199.76 226.14 200.21 223C200.66 219.86 201.62 216.56 204 214.45C199.66 215.03 192 213.67 188.65 217.22C186.89 219.11 183.78 236.47 184.12 236.47Z" fill="white"/>
<path d="M198.1 224.33C197.63 224.46 197.32 226.13 197.42 226.61L197.88 227.43L198.81 231.43L201.93 229.71L199.12 224.71C199.013 224.546 198.856 224.421 198.672 224.353C198.489 224.285 198.288 224.277 198.1 224.33Z" fill="#B55B52"/>
<path d="M127.63 219.92C120.33 221.59 109.53 244.34 109.53 244.34L124.18 254.34C128.399 248.32 132.208 242.022 135.58 235.49C139.91 226.43 135.09 218.21 127.63 219.92Z" fill="#27BBAD"/>
<path d="M138.29 220.47C137.45 218.64 136.54 216.55 138.43 215.9C140.52 215.18 151.96 214.44 155.9 215.79C156.416 215.93 156.899 216.171 157.322 216.498C157.745 216.826 158.099 217.233 158.364 217.698C158.629 218.162 158.799 218.675 158.865 219.205C158.932 219.736 158.892 220.275 158.75 220.79V220.86L138.29 220.47Z" fill="#263238"/>
<path opacity="0.2" d="M132.14 233.06L121.73 252.66L124.18 254.34C124.18 254.34 128.9 247.77 132.18 242.09L132.14 233.06Z" fill="black"/>
<path d="M172 229.93C173.58 237.93 169.89 256.93 169.93 287.93H128.31C128.04 281.67 132.6 266.83 126.93 237.27C126.75 236.27 126.67 220.12 127.63 219.95C131.66 219.246 135.727 218.765 139.81 218.51C145.705 218.17 151.615 218.17 157.51 218.51C159.92 218.76 163.71 220.25 166.11 221.11C169.84 222.43 171.24 226 172 229.93Z" fill="#27BBAD"/>
<path opacity="0.2" d="M161 237.88C162.08 244.45 166.39 253.13 170.68 258.23C170.85 254.5 171.23 250.6 171.22 247.61L161 237.88Z" fill="black"/>
<path d="M158 228C157 235.37 171.5 254.18 171.5 254.18L186.09 244.18C186.09 244.18 182.04 233.81 175.23 227.01C167.5 219.23 159.17 220 158 228Z" fill="#27BBAD"/>
<path d="M205.72 391.13H213.5L215.27 373.1H207.49L205.72 391.13Z" fill="#B55B52"/>
<path opacity="0.2" d="M215.15 374.19L214.25 383.48H206.46L207.37 374.19H215.15Z" fill="black"/>
<path d="M175.03 391.13H182.81L186.72 373.1H178.94L175.03 391.13Z" fill="#B55B52"/>
<g opacity="0.2">
<path d="M178.77 374.06H186.55L184.53 383.35H176.75L178.77 374.06Z" fill="black"/>
</g>
<path d="M213.94 387.63H205.45C205.274 387.65 205.111 387.732 204.989 387.859C204.867 387.987 204.793 388.154 204.78 388.33L203.24 397.23C203.151 397.575 203.187 397.941 203.341 398.262C203.494 398.584 203.756 398.842 204.08 398.99C204.173 399.005 204.267 399.005 204.36 398.99C207.42 398.93 211.85 398.69 215.7 398.69C220.21 398.69 224.1 399 229.38 399C232.58 399 233.47 394.82 232.13 394.45C226.04 392.73 221.07 392.55 215.81 388.34C215.286 387.896 214.626 387.646 213.94 387.63Z" fill="#263238"/>
<path d="M220.12 390.52C221.12 390.52 222.12 390.38 222.41 389.93C222.493 389.811 222.537 389.67 222.537 389.525C222.537 389.38 222.493 389.239 222.41 389.12C222.277 388.909 222.07 388.756 221.83 388.69C220.53 388.34 217.83 389.89 217.7 389.96C217.666 389.977 217.638 390.005 217.622 390.039C217.606 390.074 217.602 390.113 217.61 390.15C217.615 390.186 217.632 390.22 217.657 390.247C217.682 390.274 217.714 390.292 217.75 390.3C218.531 390.448 219.325 390.522 220.12 390.52ZM221.36 389.01H221.71C221.785 389.025 221.856 389.057 221.918 389.101C221.98 389.146 222.032 389.204 222.07 389.27C222.2 389.5 222.16 389.61 222.07 389.67C221.71 390.18 219.74 390.19 218.29 389.98C219.244 389.466 220.285 389.134 221.36 389V389.01Z" fill="#27BBAD"/>
<path d="M217.77 390.3H217.85C218.79 389.88 220.65 388.2 220.5 387.3C220.5 387.09 220.32 386.84 219.82 386.78C219.458 386.753 219.099 386.868 218.82 387.1C217.82 387.91 217.62 390.01 217.61 390.1C217.605 390.132 217.609 390.165 217.622 390.195C217.634 390.225 217.654 390.251 217.68 390.27C217.706 390.289 217.738 390.299 217.77 390.3ZM219.67 387.15H219.78C220.11 387.15 220.13 387.32 220.14 387.36C220.23 387.89 218.96 389.21 218 389.78C218.082 388.9 218.431 388.066 219 387.39C219.191 387.238 219.426 387.154 219.67 387.15Z" fill="#27BBAD"/>
<path d="M183.36 387.63H174.62C174.445 387.651 174.284 387.732 174.163 387.86C174.042 387.988 173.97 388.154 173.96 388.33L172.42 397.23C172.336 397.583 172.38 397.953 172.543 398.277C172.705 398.601 172.977 398.857 173.31 399C173.393 399.01 173.477 399.01 173.56 399C176.61 398.94 178.1 398.7 181.94 398.7C184.31 398.7 187.34 399.01 190.61 399.01C193.88 399.01 194.3 394.83 192.96 394.46C186.96 392.76 186.55 390.46 184.63 388.18C184.471 388.002 184.275 387.86 184.055 387.765C183.836 387.67 183.599 387.624 183.36 387.63Z" fill="#263238"/>
<path d="M187.93 391.51C188.26 391.556 188.596 391.534 188.917 391.446C189.238 391.359 189.539 391.207 189.8 391C189.892 390.874 189.941 390.721 189.941 390.565C189.941 390.409 189.892 390.256 189.8 390.13C189.741 390.02 189.658 389.925 189.558 389.85C189.458 389.776 189.342 389.725 189.22 389.7C188.08 389.43 185.93 390.9 185.84 390.96C185.811 390.982 185.789 391.011 185.775 391.045C185.761 391.078 185.756 391.114 185.76 391.15C185.766 391.185 185.782 391.217 185.808 391.243C185.833 391.268 185.865 391.284 185.9 391.29C186.567 391.438 187.247 391.512 187.93 391.51ZM188.93 390.03H189.15C189.221 390.043 189.287 390.072 189.346 390.113C189.405 390.154 189.454 390.208 189.49 390.27C189.66 390.58 189.56 390.7 189.49 390.75C189.16 391.18 187.57 391.19 186.4 391C187.152 390.484 188.009 390.142 188.91 390L188.93 390.03Z" fill="#27BBAD"/>
<path d="M186 391.3C186.81 390.86 188.37 389.16 188.2 388.3C188.174 388.162 188.101 388.038 187.994 387.948C187.886 387.859 187.75 387.81 187.61 387.81C187.471 387.796 187.33 387.811 187.196 387.852C187.062 387.893 186.938 387.96 186.83 388.05C185.93 388.79 185.74 391.05 185.73 391.13C185.729 391.164 185.736 391.197 185.752 391.227C185.768 391.257 185.791 391.282 185.82 391.3H186ZM187.57 388.15H187.65C187.89 388.15 187.91 388.29 187.92 388.34C188.02 388.85 187.02 390.14 186.22 390.75C186.282 389.864 186.602 389.016 187.14 388.31C187.26 388.208 187.412 388.151 187.57 388.15Z" fill="#27BBAD"/>
<path d="M157.46 287.91C157.46 287.91 194.31 303.13 201.93 314.82C197.4 344.56 189.27 378.44 189.27 378.44H175.41C175.432 363.781 176.633 349.147 179 334.68C181 298.33 115.58 335.94 128.29 287.91H157.46Z" fill="#263238"/>
<path opacity="0.3" d="M182.94 313C180.359 313.152 177.788 313.449 175.24 313.89L167.17 315.13C171.333 318.628 175.726 321.842 180.32 324.75C183.11 326.52 186.15 328.22 189.44 328.23C193.14 328.23 203.18 323.49 201.52 318.56C199.86 313.63 187.14 312.82 182.94 313Z" fill="black"/>
<path d="M169.94 287.91C169.94 287.91 204 292.31 222.78 303C228.56 306.29 227.78 316.86 227.6 323.82C227.197 342.497 223.613 360.968 217 378.44H205.42C205.42 378.44 206.01 359.57 205.62 329.12C205.5 319.99 187.07 316.98 169.06 315.92C161.433 315.441 154.092 312.839 147.866 308.409C141.639 303.98 136.774 297.898 133.82 290.85L132.59 287.91H169.94Z" fill="#263238"/>
<path d="M219.81 375.34C219.87 375.34 219.06 380.81 219.06 380.81H203.06L202.62 375.93L219.81 375.34Z" fill="#27BBAD"/>
<path d="M190.61 375.34C190.67 375.34 189.14 380.81 189.14 380.81H173.14L173.43 375.93L190.61 375.34Z" fill="#27BBAD"/>
<path d="M147.62 315.51L136.15 400.02L134.08 399.73L142.93 314.87L147.62 315.51Z" fill="#27BBAD"/>
<path opacity="0.4" d="M147.21 318.54L136.15 400.02L134.08 399.73L142.55 318.52L147.21 318.54Z" fill="black"/>
<path d="M187.94 318.53H122.94C122.94 317.556 123.132 316.591 123.505 315.69C123.878 314.79 124.424 313.972 125.113 313.283C125.802 312.594 126.62 312.048 127.52 311.675C128.421 311.302 129.386 311.11 130.36 311.11H180.52C181.494 311.11 182.459 311.302 183.36 311.675C184.26 312.048 185.078 312.594 185.767 313.283C186.456 313.972 187.002 314.79 187.375 315.69C187.748 316.591 187.94 317.556 187.94 318.53Z" fill="#27BBAD"/>
<path opacity="0.7" d="M187.94 318.53H122.94C122.94 317.556 123.132 316.591 123.505 315.69C123.878 314.79 124.424 313.972 125.113 313.283C125.802 312.594 126.62 312.048 127.52 311.675C128.421 311.302 129.386 311.11 130.36 311.11H180.52C181.494 311.11 182.459 311.302 183.36 311.675C184.26 312.048 185.078 312.594 185.767 313.283C186.456 313.972 187.002 314.79 187.375 315.69C187.748 316.591 187.94 317.556 187.94 318.53Z" fill="white"/>
<path d="M125.95 318.52L116.15 400.69H118.25L130.68 318.52H125.95Z" fill="#27BBAD"/>
<path d="M184.93 318.52L194.73 400.69H192.63L180.21 318.52H184.93Z" fill="#27BBAD"/>
<path opacity="0.4" d="M184.93 318.52L194.73 400.69H192.63L180.21 318.52H184.93Z" fill="black"/>
<path d="M171.82 318.52L172.01 400.69H169.92L167.09 318.52H171.82Z" fill="#27BBAD"/>
</svg>
