<svg width="281" height="281" viewBox="0 0 281 281" fill="none" xmlns="http://www.w3.org/2000/svg">
<path d="M140.135 206.36H256.272V90.0264L140.135 206.36ZM234.916 185.094H192.637L234.989 142.748L234.916 185.094Z" fill="#DBDBDB"/>
<path d="M252.715 93.6232L252.197 94.1402L140.135 206.36H256.272V90.0264L252.715 93.6232ZM234.916 185.1H192.637L234.995 142.748L234.916 185.1Z" fill="#EBEBEB"/>
<path d="M256.289 94.95H252.299V95.5063H256.289V94.95Z" fill="#C7C7C7"/>
<path d="M256.289 97.5356H253.934V98.092H256.289V97.5356Z" fill="#C7C7C7"/>
<path d="M256.289 100.115H253.934V100.672H256.289V100.115Z" fill="#C7C7C7"/>
<path d="M256.289 102.7H253.934V103.256H256.289V102.7Z" fill="#C7C7C7"/>
<path d="M256.289 105.285H253.934V105.842H256.289V105.285Z" fill="#C7C7C7"/>
<path d="M256.289 107.864H253.934V108.426H256.289V107.864Z" fill="#C7C7C7"/>
<path d="M256.289 110.45H253.934V111.006H256.289V110.45Z" fill="#C7C7C7"/>
<path d="M256.289 113.035H252.299V113.591H256.289V113.035Z" fill="#C7C7C7"/>
<path d="M256.289 115.625H253.934V116.182H256.289V115.625Z" fill="#C7C7C7"/>
<path d="M256.289 118.199H253.934V118.756H256.289V118.199Z" fill="#C7C7C7"/>
<path d="M256.289 120.79H253.934V121.347H256.289V120.79Z" fill="#C7C7C7"/>
<path d="M256.289 123.376H253.934V123.932H256.289V123.376Z" fill="#C7C7C7"/>
<path d="M256.289 125.956H253.934V126.512H256.289V125.956Z" fill="#C7C7C7"/>
<path d="M256.289 128.541H253.934V129.097H256.289V128.541Z" fill="#C7C7C7"/>
<path d="M256.289 131.125H252.299V131.682H256.289V131.125Z" fill="#C7C7C7"/>
<path d="M256.289 133.706H253.934V134.262H256.289V133.706Z" fill="#C7C7C7"/>
<path d="M256.289 136.291H253.934V136.847H256.289V136.291Z" fill="#C7C7C7"/>
<path d="M256.289 138.876H253.934V139.432H256.289V138.876Z" fill="#C7C7C7"/>
<path d="M256.289 141.456H253.934V142.018H256.289V141.456Z" fill="#C7C7C7"/>
<path d="M256.289 144.041H253.934V144.597H256.289V144.041Z" fill="#C7C7C7"/>
<path d="M256.289 146.632H253.934V147.188H256.289V146.632Z" fill="#C7C7C7"/>
<path d="M256.289 149.217H252.299V149.773H256.289V149.217Z" fill="#C7C7C7"/>
<path d="M256.289 151.791H253.934V152.347H256.289V151.791Z" fill="#C7C7C7"/>
<path d="M256.289 154.382H253.934V154.938H256.289V154.382Z" fill="#C7C7C7"/>
<path d="M256.289 156.967H253.934V157.523H256.289V156.967Z" fill="#C7C7C7"/>
<path d="M256.289 159.547H253.934V160.103H256.289V159.547Z" fill="#C7C7C7"/>
<path d="M256.289 162.131H253.934V162.688H256.289V162.131Z" fill="#C7C7C7"/>
<path d="M256.289 164.717H253.934V165.273H256.289V164.717Z" fill="#C7C7C7"/>
<path d="M256.289 167.296H252.299V167.858H256.289V167.296Z" fill="#C7C7C7"/>
<path d="M256.289 169.881H253.934V170.437H256.289V169.881Z" fill="#C7C7C7"/>
<path d="M256.289 172.467H253.934V173.023H256.289V172.467Z" fill="#C7C7C7"/>
<path d="M256.289 175.058H253.934V175.614H256.289V175.058Z" fill="#C7C7C7"/>
<path d="M256.289 177.631H253.934V178.188H256.289V177.631Z" fill="#C7C7C7"/>
<path d="M256.289 180.222H253.934V180.778H256.289V180.222Z" fill="#C7C7C7"/>
<path d="M256.289 182.807H253.934V183.364H256.289V182.807Z" fill="#C7C7C7"/>
<path d="M256.289 185.387H252.299V185.944H256.289V185.387Z" fill="#C7C7C7"/>
<path d="M256.289 187.972H253.934V188.529H256.289V187.972Z" fill="#C7C7C7"/>
<path d="M256.289 190.557H253.934V191.114H256.289V190.557Z" fill="#C7C7C7"/>
<path d="M256.289 193.137H253.934V193.693H256.289V193.137Z" fill="#C7C7C7"/>
<path d="M256.289 195.722H253.934V196.279H256.289V195.722Z" fill="#C7C7C7"/>
<path d="M256.289 198.308H253.934V198.864H256.289V198.308Z" fill="#C7C7C7"/>
<path d="M256.289 200.887H253.934V201.449H256.289V200.887Z" fill="#C7C7C7"/>
<path d="M243.801 115.418L246.898 110.433L245.369 109.489C245.15 109.35 244.974 109.155 244.86 108.922C244.746 108.69 244.699 108.431 244.723 108.173C244.74 107.881 244.74 107.589 244.723 107.297C244.715 107.039 244.779 106.784 244.908 106.561C245.037 106.337 245.226 106.154 245.453 106.032L247.038 105.184L244.285 100.036L242.7 100.884C242.472 101.005 242.215 101.06 241.958 101.043C241.701 101.026 241.454 100.938 241.244 100.789C241.004 100.621 240.754 100.468 240.497 100.328C240.269 100.206 240.08 100.023 239.95 99.7996C239.82 99.5764 239.754 99.3216 239.76 99.0634L239.817 97.265L233.955 97.0852L233.899 98.8892C233.888 99.147 233.806 99.3968 233.662 99.6111C233.519 99.8253 233.318 99.9956 233.084 100.103C232.949 100.159 232.825 100.227 232.696 100.294C232.567 100.362 232.443 100.435 232.32 100.508C232.101 100.643 231.849 100.714 231.592 100.714C231.335 100.714 231.083 100.643 230.864 100.508L229.324 99.558L226.233 104.543L227.762 105.493C227.98 105.631 228.157 105.827 228.271 106.059C228.385 106.291 228.432 106.55 228.408 106.808C228.382 107.097 228.372 107.388 228.38 107.679C228.388 107.937 228.323 108.192 228.194 108.415C228.065 108.638 227.877 108.821 227.649 108.943L226.064 109.792L228.841 114.968L230.42 114.086C230.648 113.965 230.904 113.91 231.161 113.927C231.418 113.944 231.666 114.032 231.876 114.181C232.115 114.346 232.363 114.498 232.617 114.636C232.846 114.758 233.036 114.94 233.166 115.164C233.296 115.387 233.361 115.643 233.354 115.901L233.303 117.705L239.165 117.885L239.221 116.086C239.232 115.829 239.314 115.579 239.458 115.365C239.602 115.151 239.802 114.981 240.036 114.873L240.429 114.681C240.553 114.608 240.682 114.541 240.806 114.462C241.025 114.327 241.278 114.255 241.536 114.255C241.794 114.255 242.047 114.327 242.267 114.462L243.801 115.418ZM238.85 111.714C238.012 112.162 237.06 112.352 236.115 112.26C235.169 112.167 234.272 111.796 233.537 111.194C232.802 110.592 232.262 109.785 231.986 108.876C231.709 107.967 231.708 106.997 231.983 106.087C232.258 105.178 232.796 104.37 233.53 103.767C234.264 103.163 235.16 102.79 236.106 102.696C237.051 102.602 238.003 102.79 238.842 103.237C239.68 103.683 240.368 104.369 240.817 105.206C241.116 105.762 241.303 106.372 241.366 107.001C241.429 107.629 241.367 108.264 241.184 108.868C241.002 109.473 240.701 110.036 240.301 110.524C239.9 111.012 239.407 111.417 238.85 111.714Z" fill="#DBDBDB"/>
<path d="M89.2513 68.6818L87.1944 65.1187L86.1041 65.7538C85.9474 65.8438 85.7686 65.8884 85.5879 65.8824C85.4072 65.8765 85.2318 65.8202 85.0813 65.7201C84.9104 65.6069 84.7321 65.5055 84.5474 65.4166C84.3819 65.3381 84.2416 65.215 84.1423 65.0611C84.043 64.9072 83.9887 64.7286 83.9854 64.5455V63.281H79.8715V64.5399C79.8696 64.7233 79.8158 64.9024 79.7163 65.0566C79.6169 65.2107 79.4759 65.3336 79.3095 65.411C79.1255 65.5011 78.9472 65.6025 78.7756 65.7145C78.6251 65.8146 78.4497 65.8708 78.269 65.8768C78.0883 65.8828 77.9096 65.8382 77.7528 65.7482L76.6625 65.1187L74.6056 68.6818L75.7015 69.3113C75.8578 69.4037 75.9853 69.5378 76.0697 69.6986C76.154 69.8594 76.192 70.0406 76.1792 70.2217C76.1792 70.3229 76.1792 70.4184 76.1792 70.5252C76.1792 70.632 76.1792 70.7275 76.1792 70.823C76.1928 71.0029 76.1557 71.1829 76.0723 71.3428C75.9889 71.5027 75.8624 71.6361 75.7071 71.7279L74.5831 72.3629L76.64 75.926L77.736 75.2909C77.8936 75.203 78.0725 75.1601 78.2529 75.1671C78.4333 75.174 78.6083 75.2305 78.7588 75.3303C78.9285 75.4422 79.1049 75.5436 79.2871 75.6338C79.4534 75.7112 79.5944 75.834 79.6939 75.9882C79.7933 76.1423 79.8471 76.3214 79.8491 76.5049V77.7637H83.9629V76.5049C83.9662 76.3217 84.0205 76.1432 84.1198 75.9893C84.2191 75.8354 84.3594 75.7122 84.5249 75.6338C84.7077 75.5448 84.8842 75.4434 85.0532 75.3303C85.2047 75.2306 85.3807 75.1742 85.5619 75.1673C85.7432 75.1603 85.9229 75.2031 86.0816 75.2909L87.1719 75.926L89.2288 72.3629L88.133 71.7335C87.978 71.638 87.8527 71.5011 87.7713 71.3383C87.6899 71.1754 87.6555 70.9931 87.6721 70.8118C87.6721 70.7106 87.6721 70.6095 87.6721 70.5083C87.6721 70.4072 87.6721 70.306 87.6721 70.2048C87.6593 70.0237 87.6973 69.8426 87.7816 69.6818C87.866 69.521 87.9935 69.3868 88.1498 69.2944L89.2513 68.6818ZM85.3173 70.5252C85.3173 71.1921 85.1196 71.844 84.749 72.3986C84.3785 72.9531 83.8519 73.3853 83.2357 73.6405C82.6196 73.8957 81.9416 73.9625 81.2875 73.8324C80.6334 73.7023 80.0325 73.3811 79.561 72.9095C79.0894 72.438 78.7682 71.8371 78.6381 71.183C78.508 70.5289 78.5748 69.8509 78.83 69.2348C79.0852 68.6186 79.5174 68.092 80.0719 67.7215C80.6265 67.351 81.2784 67.1532 81.9453 67.1532C82.8396 67.1532 83.6973 67.5085 84.3297 68.1408C84.9621 68.7732 85.3173 69.6309 85.3173 70.5252Z" fill="#DBDBDB"/>
<path d="M56.8069 141.394C53.6386 141.393 50.5411 142.331 47.9062 144.091C45.2714 145.85 43.2176 148.352 42.0046 151.279C40.7916 154.206 40.474 157.427 41.0918 160.534C41.7096 163.642 43.2352 166.496 45.4756 168.737C47.7159 170.977 50.5704 172.502 53.6779 173.12C56.7854 173.738 60.0064 173.42 62.9333 172.207C65.8603 170.995 68.3618 168.941 70.1213 166.306C71.8808 163.671 72.8194 160.574 72.8183 157.405C72.8183 153.159 71.1314 149.086 68.1287 146.083C65.126 143.081 61.0534 141.394 56.8069 141.394ZM56.8069 164.885C55.3275 164.885 53.8813 164.447 52.6511 163.625C51.421 162.803 50.4623 161.635 49.8961 160.268C49.3299 158.901 49.1818 157.397 49.4704 155.946C49.7591 154.495 50.4715 153.162 51.5176 152.116C52.5637 151.07 53.8966 150.357 55.3476 150.069C56.7986 149.78 58.3027 149.928 59.6695 150.494C61.0363 151.061 62.2046 152.019 63.0265 153.249C63.8484 154.48 64.2871 155.926 64.2871 157.405C64.2879 158.388 64.0949 159.361 63.7193 160.269C63.3436 161.176 62.7926 162.001 62.0979 162.696C61.4031 163.391 60.5782 163.942 59.6704 164.318C58.7625 164.693 57.7895 164.886 56.8069 164.885Z" fill="#EBEBEB"/>
<path d="M59.8866 142.056H53.7271L54.0699 137.701H59.5438L59.8866 142.056Z" fill="#EBEBEB"/>
<path d="M48.1634 144.136L43.8079 148.486L40.9698 145.165L44.842 141.293L48.1634 144.136Z" fill="#EBEBEB"/>
<path d="M41.3464 153.887V160.047L36.9852 159.704V154.23L41.3464 153.887Z" fill="#EBEBEB"/>
<path d="M43.4202 165.61L47.7757 169.966L44.4487 172.804L40.5765 168.932L43.4202 165.61Z" fill="#EBEBEB"/>
<path d="M53.1709 172.427H59.3304L58.9932 176.789H53.5137L53.1709 172.427Z" fill="#EBEBEB"/>
<path d="M64.894 170.354L69.2495 166.004L72.0876 169.325L68.2155 173.197L64.894 170.354Z" fill="#EBEBEB"/>
<path d="M71.7169 160.597V154.443L76.0724 154.781V160.26L71.7169 160.597Z" fill="#EBEBEB"/>
<path d="M69.6431 148.879L65.2876 144.524L68.609 141.686L72.4812 145.558L69.6431 148.879Z" fill="#EBEBEB"/>
<path d="M209.238 37.8174C206.071 37.8174 202.976 38.7564 200.343 40.5158C197.71 42.2751 195.657 44.7758 194.446 47.7015C193.234 50.6272 192.917 53.8465 193.534 56.9524C194.152 60.0583 195.677 62.9113 197.916 65.1505C200.156 67.3897 203.009 68.9147 206.115 69.5325C209.22 70.1503 212.44 69.8332 215.365 68.6213C218.291 67.4095 220.792 65.3573 222.551 62.7242C224.311 60.0912 225.25 56.9955 225.25 53.8288C225.25 51.7259 224.837 49.6435 224.032 47.7006C223.228 45.7577 222.049 43.9923 220.562 42.5054C219.075 41.0184 217.309 39.8391 215.366 39.0347C213.423 38.2303 211.341 37.8166 209.238 37.8174ZM209.238 61.3034C207.759 61.3034 206.312 60.8645 205.082 60.0423C203.852 59.2201 202.893 58.0516 202.327 56.6844C201.761 55.3172 201.613 53.8129 201.902 52.3618C202.191 50.9106 202.904 49.5777 203.951 48.5318C204.998 47.4859 206.331 46.774 207.782 46.486C209.234 46.198 210.738 46.3469 212.105 46.9139C213.471 47.481 214.639 48.4406 215.46 49.6714C216.282 50.9023 216.72 52.3491 216.718 53.8288C216.718 54.8108 216.525 55.7832 216.149 56.6905C215.773 57.5977 215.222 58.4219 214.527 59.1161C213.832 59.8102 213.008 60.3607 212.1 60.736C211.193 61.1113 210.22 61.3041 209.238 61.3034Z" fill="#EBEBEB"/>
<path d="M212.318 38.4803H206.158L206.501 34.1191H211.975L212.318 38.4803Z" fill="#EBEBEB"/>
<path d="M200.595 40.5539L196.245 44.9094L193.401 41.5824L197.273 37.7102L200.595 40.5539Z" fill="#EBEBEB"/>
<path d="M193.778 50.3101V56.464L189.416 56.1268V50.6473L193.778 50.3101Z" fill="#EBEBEB"/>
<path d="M195.851 62.0281L200.207 66.3836L196.88 69.2217L193.008 65.3495L195.851 62.0281Z" fill="#EBEBEB"/>
<path d="M205.608 68.8506H211.762L211.424 73.2061H205.945L205.608 68.8506Z" fill="#EBEBEB"/>
<path d="M217.326 66.7718L221.681 62.4219L224.519 65.7433L220.647 69.6155L217.326 66.7718Z" fill="#EBEBEB"/>
<path d="M224.148 57.0211V50.8616L228.504 51.2044V56.6783L224.148 57.0211Z" fill="#EBEBEB"/>
<path d="M222.069 45.2971L217.719 40.9472L221.04 38.1035L224.912 41.9757L222.069 45.2971Z" fill="#EBEBEB"/>
<path d="M34.2709 0H33.7089V51.6309H34.2709V0Z" fill="#C7C7C7"/>
<path d="M36.6312 48.6467H31.354V54.3567H36.6312V48.6467Z" fill="#DBDBDB"/>
<path d="M44.7858 72.5879H23.1938C23.6265 64.3715 27.5437 51.2319 33.9898 51.2319C40.4359 51.2319 44.3587 64.3715 44.7858 72.5879Z" fill="#DBDBDB"/>
<path d="M63.3656 0H62.8036V37.5247H63.3656V0Z" fill="#C7C7C7"/>
<path d="M65.726 34.5461H60.4488V40.2561H65.726V34.5461Z" fill="#DBDBDB"/>
<path d="M73.8863 58.4817H52.2661C52.7045 50.2709 56.6216 37.1257 63.0621 37.1257C69.5026 37.1257 73.4535 50.2709 73.8863 58.4817Z" fill="#DBDBDB"/>
<path d="M140.5 257.896C201.329 257.896 250.641 252.579 250.641 246.021C250.641 239.462 201.329 234.146 140.5 234.146C79.671 234.146 30.3593 239.462 30.3593 246.021C30.3593 252.579 79.671 257.896 140.5 257.896Z" fill="#EBEBEB"/>
<path d="M21.564 206.333L51.2994 206.198L81.0292 206.147L140.5 206.052L199.971 206.147L229.706 206.198L259.436 206.333L229.706 206.473L199.971 206.524L140.5 206.614L81.0292 206.518L51.2994 206.468L21.564 206.333Z" fill="#263238"/>
<path d="M161.918 190.461L161.951 197.66L161.918 197.627H168.858H168.92V197.689L168.96 206.529V206.63H168.853L161.912 206.664L162.047 206.529V213.734L161.901 213.582H165.576V213.739V222.574V222.743H160.316L160.473 222.641C158.762 226.296 155.822 229.233 152.167 230.942C150.352 231.788 148.406 232.316 146.412 232.504C145.417 232.6 144.417 232.594 143.434 232.594H137.538C136.543 232.617 135.547 232.588 134.554 232.51C132.558 232.327 130.608 231.805 128.788 230.965C126.972 230.109 125.314 228.954 123.882 227.548C122.461 226.128 121.294 224.477 120.431 222.664L120.656 222.804H115.564H115.305V222.551V213.717V213.447H119.099L118.824 213.722V206.501L119.099 206.776H112.158H111.894V206.512V197.672V197.419H112.147H119.088L118.852 197.66V190.461L119.076 190.692H112.136H111.917V190.473V181.632V181.424H112.125L140.483 181.469L168.842 181.559H168.915V181.632L168.875 190.473V190.517H168.842L161.918 190.461ZM161.918 190.461L168.858 190.428V190.461L168.819 181.621L168.887 181.688L140.528 181.778L112.169 181.823L112.372 181.621V190.461L112.158 190.242H119.099H119.329V190.473V197.672V197.908H119.088H112.147L112.394 197.66V206.501L112.13 206.237H119.071H119.346V213.992H115.553L115.822 213.722V222.557L115.57 222.299H120.661H120.83L120.897 222.439C121.734 224.202 122.863 225.812 124.236 227.199C125.63 228.567 127.24 229.695 129.001 230.537C130.775 231.36 132.675 231.875 134.621 232.061C135.588 232.156 136.566 232.15 137.561 232.15H143.484C144.479 232.15 145.457 232.15 146.429 232.072C148.375 231.891 150.275 231.38 152.049 230.56C155.62 228.897 158.494 226.033 160.17 222.467L160.215 222.366H165.419L165.25 222.535V213.7L165.402 213.852H161.732V213.706V206.501V206.366H161.867L168.808 206.4L168.707 206.501L168.746 197.66L168.808 197.722L161.867 197.694H161.833V197.666L161.918 190.461Z" fill="#263238"/>
<path d="M185.202 166.412C209.89 141.723 209.89 101.695 185.202 77.0061C160.513 52.3174 120.485 52.3174 95.7959 77.0061C71.1072 101.695 71.1072 141.723 95.7959 166.412C120.485 191.101 160.513 191.101 185.202 166.412Z" fill="white"/>
<path d="M140.5 185.207C127.94 185.207 115.662 181.482 105.218 174.504C94.7745 167.526 86.6348 157.608 81.8282 146.004C77.0215 134.399 75.7639 121.63 78.2143 109.311C80.6647 96.9925 86.7131 85.6768 95.5945 76.7953C104.476 67.9139 115.792 61.8655 128.111 59.4151C140.43 56.9647 153.199 58.2223 164.803 63.029C176.407 67.8356 186.325 75.9753 193.303 86.4188C200.281 96.8623 204.006 109.141 204.006 121.701C203.988 138.538 197.292 154.681 185.386 166.587C173.48 178.492 157.337 185.189 140.5 185.207ZM140.5 58.7569C128.051 58.7569 115.881 62.4485 105.53 69.3648C95.1791 76.2812 87.1115 86.1117 82.3474 97.6132C77.5833 109.115 76.3368 121.771 78.7655 133.981C81.1942 146.191 87.189 157.406 95.9919 166.209C104.795 175.012 116.01 181.007 128.22 183.435C140.43 185.864 153.086 184.618 164.588 179.854C176.089 175.089 185.92 167.022 192.836 156.671C199.752 146.32 203.444 134.15 203.444 121.701C203.422 105.014 196.783 89.0179 184.983 77.2193C173.184 65.4208 157.186 58.7833 140.5 58.7625V58.7569Z" fill="#263238"/>
<path d="M203.719 121.707C203.725 132.866 200.774 143.828 195.168 153.478C189.562 163.127 181.501 171.119 171.803 176.642C167.122 175.136 163.638 171.612 160.147 168.089C157.635 165.548 163.761 164.509 160.046 163.165C163.66 159.585 168.431 152.353 162.294 153.392C158.58 152.043 156.27 159.355 151.302 156.764C146.334 154.173 144.996 147.93 140 145.316L135.178 150.088C131.457 148.733 128.838 141.276 127.636 142.467C121.51 143.501 117.947 149.543 113.131 154.308C110.613 151.774 106.898 150.431 108.073 146.772C130.755 121.448 153.033 94.9049 176.513 69.7217C184.916 75.5387 191.781 83.308 196.52 92.3627C201.259 101.417 203.729 111.487 203.719 121.707Z" fill="#FFC727"/>
<path d="M147.047 188.832H145.923V148.711C144.406 148.711 141.854 148.739 140.713 148.739H140.286C139.162 148.739 136.6 148.739 135.077 148.711V188.832H133.953V147.57H134.515C135.751 147.57 138.707 147.604 140.275 147.604H140.702C142.27 147.604 145.226 147.604 146.463 147.57H147.025L147.047 188.832Z" fill="#263238"/>
<path d="M145.923 148.716V135.554C145.923 130.692 148.61 127.197 152.769 126.646C156.703 126.129 161.761 128.652 163.565 135.408C164.734 139.746 164.565 142.714 163.048 144.72C160.67 147.867 155.18 148.564 146.491 148.705L145.923 148.716ZM153.791 127.708C153.502 127.707 153.213 127.726 152.926 127.764C149.363 128.231 147.059 131.288 147.059 135.554V147.569C154.87 147.418 160.12 146.743 162.16 144.046C163.452 142.326 163.559 139.679 162.491 135.7C160.979 130.097 157.085 127.708 153.78 127.708H153.791Z" fill="#263238"/>
<path d="M135.077 148.716H134.515C125.832 148.576 120.341 147.879 117.969 144.731C116.446 142.72 116.283 139.758 117.441 135.419C119.256 128.675 124.314 126.141 128.248 126.658C132.402 127.22 135.088 130.704 135.088 135.565L135.077 148.716ZM127.209 127.708C123.904 127.708 120.009 130.097 118.503 135.7C117.441 139.679 117.548 142.326 118.841 144.046C120.881 146.743 126.147 147.418 133.941 147.57V135.554C133.941 131.288 131.637 128.248 128.074 127.765C127.791 127.727 127.506 127.708 127.22 127.708H127.209Z" fill="#263238"/>
<path d="M148.464 172.23H132.536C129.613 172.23 127.242 174.6 127.242 177.524V180.812C127.242 183.736 129.613 186.106 132.536 186.106H148.464C151.387 186.106 153.758 183.736 153.758 180.812V177.524C153.758 174.6 151.387 172.23 148.464 172.23Z" fill="#A6A6A6"/>
<path d="M95.1184 76.8871C101.056 70.9463 108.112 66.2416 115.879 63.0451C123.649 59.8494 131.958 58.1707 140.359 58.0995C148.767 58.0217 157.11 59.5772 164.924 62.6798C172.744 65.7896 179.853 70.4526 185.82 76.3869C191.767 82.3407 196.461 89.4267 199.622 97.2259C205.978 112.989 206.054 130.588 199.836 146.407C196.758 154.258 192.109 161.398 186.175 167.39C180.24 173.381 173.145 178.098 165.323 181.251C157.514 184.42 149.164 186.04 140.736 186.022C132.316 186.008 123.977 184.379 116.171 181.222C108.365 178.071 101.267 173.393 95.2928 167.461C89.319 161.53 84.59 154.465 81.3832 146.682C74.9437 130.982 74.9155 113.384 81.3045 97.6643C84.4774 89.8866 89.1742 82.8223 95.1184 76.8871ZM95.1184 76.8871C89.1948 82.833 84.5192 89.9028 81.3663 97.6811C75.0415 113.38 75.1182 130.932 81.5799 146.575C84.7967 154.311 89.5243 161.328 95.4861 167.214C101.448 173.101 108.524 177.739 116.3 180.857C124.07 183.972 132.365 185.569 140.736 185.561C149.102 185.568 157.389 183.949 165.138 180.795C172.876 177.627 179.896 172.931 185.778 166.989C191.661 161.046 196.285 153.979 199.375 146.21C205.605 130.502 205.577 113.004 199.296 97.3158C196.189 89.5328 191.533 82.4621 185.611 76.5325C179.689 70.6028 172.625 65.9378 164.846 62.8203C157.062 59.7057 148.748 58.1329 140.365 58.1894C131.976 58.2342 123.674 59.8863 115.907 63.0563C108.131 66.2471 101.066 70.948 95.1184 76.8871Z" fill="#263238"/>
<path d="M204.281 122.269C204.262 113.874 202.577 105.567 199.324 97.8275C196.072 90.0919 191.365 83.052 185.46 77.0897C179.572 71.1185 172.58 66.3469 164.874 63.0397C157.168 59.7525 148.877 58.0587 140.5 58.0604C132.123 58.091 123.837 59.7994 116.132 63.0847C100.611 69.7403 88.2272 82.0857 81.5237 97.5859C78.2135 105.264 76.4855 113.531 76.443 121.892C76.4005 130.254 78.0444 138.538 81.2764 146.249C84.5241 153.959 89.2386 160.964 95.1578 166.875C101.075 172.799 108.072 177.534 115.772 180.824C123.474 184.123 131.758 185.85 140.137 185.904C148.515 185.958 156.821 184.338 164.565 181.138C180.207 174.643 192.677 162.272 199.296 146.682C202.567 138.958 204.262 130.657 204.281 122.269ZM204.281 122.269C204.289 130.668 202.615 138.985 199.358 146.727C192.763 162.355 180.31 174.778 164.666 181.335C156.895 184.568 148.557 186.217 140.141 186.185C131.725 186.153 123.4 184.441 115.654 181.15C107.891 177.866 100.831 173.121 94.8599 167.173C88.8775 161.238 84.1057 154.196 80.8099 146.441C77.5076 138.679 75.8267 130.324 75.8701 121.889C75.9136 113.454 77.6807 105.117 81.0628 97.3892C87.8494 81.8076 100.346 69.4172 115.985 62.7643C123.729 59.4625 132.063 57.7684 140.482 57.7848C148.9 57.8012 157.227 59.5278 164.958 62.8599C172.681 66.1906 179.682 70.9911 185.572 76.9942C191.465 82.9793 196.156 90.0379 199.392 97.7882C202.623 105.545 204.284 113.866 204.281 122.269Z" fill="#263238"/>
<path d="M139.938 186.96C148.452 186.938 156.877 185.23 164.728 181.936C172.571 178.64 179.71 173.87 185.758 167.886C191.814 161.914 196.65 154.821 199.999 147.002C203.339 139.186 205.06 130.774 205.057 122.274C205.029 113.774 203.296 105.365 199.96 97.5462C193.213 81.8021 180.692 69.2405 164.97 62.4437C157.181 59.0862 148.796 57.3334 140.315 57.29C131.834 57.2465 123.431 58.9133 115.609 62.1908C107.792 65.4887 100.688 70.2716 94.6914 76.2745C88.683 82.2739 83.8794 89.3686 80.5403 97.1753C77.1964 104.987 75.4461 113.388 75.3921 121.886C75.3381 130.383 76.9813 138.806 80.2256 146.659C86.8102 162.521 99.3498 175.17 115.154 181.891C122.994 185.218 131.421 186.941 139.938 186.96ZM139.938 186.96C131.419 186.965 122.986 185.268 115.131 181.97C99.2793 175.272 86.6821 162.63 80.0401 146.755C76.7578 138.875 75.0835 130.418 75.1153 121.882C75.1472 113.345 76.8846 104.901 80.2256 97.046C83.5656 89.1838 88.3828 82.0353 94.4161 75.9879C100.436 69.9241 107.576 65.0874 115.44 61.7468C123.313 58.3991 131.787 56.6952 140.341 56.7396C148.896 56.7841 157.351 58.5759 165.189 62.0053C180.987 68.8877 193.551 81.5566 200.302 97.4113C203.652 105.264 205.371 113.716 205.355 122.253C205.339 130.79 203.587 139.235 200.207 147.075C196.827 154.904 191.96 162.002 185.876 167.976C179.801 173.951 172.638 178.707 164.773 181.987C156.905 185.271 148.464 186.962 139.938 186.96Z" fill="#263238"/>
<path d="M119.751 182.015H161.249V215.246C161.249 219.646 159.501 223.866 156.39 226.977C153.279 230.089 149.059 231.836 144.659 231.836H136.341C131.941 231.836 127.721 230.089 124.61 226.977C121.499 223.866 119.751 219.646 119.751 215.246V182.015Z" fill="#455A64"/>
<path d="M167.982 182.015H113.024V190.698H167.982V182.015Z" fill="#37474F"/>
<path d="M167.982 197.768H113.024V206.45H167.982V197.768Z" fill="#37474F"/>
<path d="M164.66 213.526H116.34V222.209H164.66V213.526Z" fill="#37474F"/>
<path d="M193.008 123.027C192.262 123.027 191.548 122.731 191.021 122.204C190.494 121.677 190.198 120.962 190.198 120.217C190.198 90.6895 161.159 73.6328 160.867 73.4642C160.221 73.0916 159.749 72.4776 159.556 71.7572C159.362 71.0368 159.463 70.2691 159.836 69.623C160.208 68.9768 160.822 68.5052 161.543 68.3118C162.263 68.1184 163.031 68.2191 163.677 68.5917C169.621 72.2466 175.022 76.7189 179.722 81.8774C190.265 93.3309 195.834 106.605 195.834 120.217C195.834 120.587 195.761 120.954 195.619 121.296C195.477 121.638 195.268 121.949 195.006 122.21C194.743 122.471 194.431 122.678 194.088 122.818C193.745 122.958 193.378 123.029 193.008 123.027Z" fill="white"/>
<path d="M192.322 137.162C194.175 137.162 195.677 135.66 195.677 133.807C195.677 131.954 194.175 130.451 192.322 130.451C190.469 130.451 188.967 131.954 188.967 133.807C188.967 135.66 190.469 137.162 192.322 137.162Z" fill="white"/>
<path d="M113.631 236.333L120.347 236.203L127.091 236.13L140.522 236.068L153.954 236.13C158.45 236.175 162.913 236.226 167.392 236.333V236.366C162.896 236.473 158.433 236.524 153.954 236.569L140.522 236.63L127.091 236.569L120.347 236.49L113.631 236.366V236.333Z" fill="#263238"/>
<path d="M115.491 238.648L115.879 238.238L113.844 236.349L115.879 234.461L115.491 234.051L113.024 236.349L115.491 238.648Z" fill="#263238"/>
<path d="M165.509 238.648L165.121 238.238L167.156 236.349L165.121 234.461L165.509 234.051L167.976 236.349L165.509 238.648Z" fill="#263238"/>
<path d="M77.8876 50.1306L93.5393 49.9957L109.191 49.9227L140.5 49.8552L171.803 49.9227L187.461 49.9957L203.112 50.1306V50.1418L187.461 50.2767L171.803 50.3554L140.5 50.4172L109.191 50.3554L93.5393 50.2767L77.8876 50.1418V50.1306Z" fill="#263238"/>
<path d="M79.7478 52.4351L80.1356 52.0248L78.1012 50.1365L80.1356 48.2538L79.7478 47.8379L77.275 50.1365L79.7478 52.4351Z" fill="#263238"/>
<path d="M201.252 52.4351L200.87 52.0248L202.899 50.1365L200.87 48.2538L201.252 47.8379L203.725 50.1365L201.252 52.4351Z" fill="#263238"/>
<path d="M100.323 231.235C100.216 227.189 100.165 223.137 100.12 219.085L100.036 206.929L100.098 194.778C100.143 190.726 100.193 186.674 100.3 182.622H100.334C100.441 186.674 100.491 190.726 100.536 194.778L100.598 206.929L100.536 219.085C100.491 223.137 100.441 227.189 100.334 231.235H100.323Z" fill="#263238"/>
<path d="M102.638 229.374L102.228 228.992L100.34 231.021L98.4513 228.992L98.041 229.374L100.34 231.847L102.638 229.374Z" fill="#263238"/>
<path d="M102.638 184.488L102.228 184.87L100.34 182.841L98.4513 184.87L98.041 184.488L100.34 182.015L102.638 184.488Z" fill="#263238"/>
<path d="M207.282 231.235L207.148 209.722L207.097 188.203L207.007 145.165L207.097 102.127L207.148 80.6135L207.282 59.0945H207.288L207.429 80.6135L207.473 102.127L207.563 145.165L207.473 188.203L207.423 209.722L207.288 231.235H207.282Z" fill="#263238"/>
<path d="M209.587 229.374L209.171 228.992L207.288 231.021L205.4 228.992L204.989 229.374L207.288 231.847L209.587 229.374Z" fill="#263238"/>
<path d="M209.587 60.9547L209.171 61.3369L207.288 59.3081L205.4 61.3369L204.989 60.9547L207.288 58.4819L209.587 60.9547Z" fill="#263238"/>
<path d="M125.129 182.015C122.213 182.128 119.296 182.184 116.379 182.229C113.462 182.274 110.546 182.274 107.629 182.296C104.712 182.319 101.79 182.296 98.8728 182.229L94.5004 182.15C93.0392 182.105 91.5836 182.077 90.1224 182.015C91.5836 181.948 93.0392 181.925 94.5004 181.875L98.8728 181.796C101.79 181.751 104.712 181.757 107.629 181.734C110.546 181.712 113.462 181.734 116.379 181.802C119.296 181.869 122.213 181.897 125.129 182.015Z" fill="#263238"/>
<path d="M135.92 231.847C132.104 231.965 128.288 232.016 124.472 232.061C120.656 232.106 116.84 232.106 113.024 232.128L101.57 232.061L95.8492 231.982C93.9384 231.937 92.0332 231.909 90.1224 231.847C92.0332 231.786 93.9384 231.757 95.8492 231.707L101.57 231.628L113.024 231.566C116.84 231.566 120.656 231.566 124.472 231.634C128.288 231.701 132.104 231.729 135.92 231.847Z" fill="#263238"/>
<path d="M113.024 182.015C113.136 187.191 113.192 192.373 113.237 197.549L113.305 213.088L113.237 228.622L113.159 236.394L113.024 244.161L112.883 236.394L112.805 228.622L112.743 213.088L112.805 197.549C112.85 192.373 112.906 187.191 113.024 182.015Z" fill="#263238"/>
<path d="M167.976 182.015C168.094 187.191 168.15 192.373 168.195 197.549L168.257 213.088L168.195 228.622L168.117 236.394L167.976 244.161L167.841 236.394L167.763 228.622L167.695 213.088L167.763 197.549C167.808 192.373 167.864 187.191 167.976 182.015Z" fill="#263238"/>
<path d="M143.31 231.847C149.571 231.729 155.831 231.679 162.092 231.634L180.88 231.566L199.662 231.628L209.058 231.707L218.45 231.847L209.058 231.982L199.662 232.061L180.88 232.128L162.092 232.061C155.848 232.016 149.588 231.965 143.31 231.847Z" fill="#263238"/>
<path d="M143.31 58.4817C149.571 58.3693 155.831 58.3131 162.092 58.2681L180.88 58.2063L199.662 58.2681L209.058 58.3468L218.45 58.4817L209.058 58.6222L199.662 58.7009L180.88 58.7627L162.092 58.7009C155.848 58.6559 149.588 58.5997 143.31 58.4817Z" fill="#263238"/>
<path d="M77.275 231.848L77.1401 208.373L77.0896 184.904L76.9996 137.954L77.0896 91.0105L77.1401 67.5358L77.275 44.0667L77.4155 67.5358L77.4661 91.0105L77.556 137.954L77.4661 184.904L77.4155 208.373L77.275 231.848Z" fill="#263238"/>
<path d="M203.725 231.848L203.585 208.373L203.534 184.904L203.444 137.954L203.534 91.0105L203.585 67.5358L203.725 44.0667L203.86 67.5358L203.91 91.0105L204 137.954L203.91 184.904L203.86 208.373L203.725 231.848Z" fill="#263238"/>
<path d="M26.6894 215.28C26.6894 215.28 26.1274 237.541 26.1274 237.557C26.1274 241.671 26.2229 245.279 26.4421 247.14C26.4395 247.151 26.4395 247.162 26.4421 247.173C26.4463 247.615 26.5521 248.049 26.7512 248.443C27.9764 249.27 60.8646 250.129 62.0223 249.77C63.18 249.41 62.2584 246.083 61.0051 245.032C59.7518 243.981 47.3035 238.024 47.3035 238.024L47.6913 215.808L26.6894 215.28Z" fill="#EB9481"/>
<path d="M26.0881 233.14C26.0881 233.14 26.1274 237.54 26.1274 237.557C26.1274 241.671 26.223 245.279 26.4421 247.139C26.4395 247.15 26.4395 247.162 26.4421 247.173C26.4949 247.607 26.5987 248.033 26.7512 248.443C27.9764 249.269 60.8646 250.129 62.0224 249.769C63.1801 249.41 62.2584 246.083 61.0051 245.032C59.7519 243.981 47.3036 238.023 47.3036 238.023V233.527L26.0881 233.14Z" fill="white"/>
<path d="M49.3491 238.058C47.1573 237.698 44.499 238.091 42.8636 239.682C42.8018 239.744 42.8636 239.828 42.9592 239.806C45.0302 239.087 47.1725 238.593 49.3491 238.333C49.3809 238.327 49.4094 238.309 49.4299 238.284C49.4504 238.259 49.4617 238.228 49.4617 238.195C49.4617 238.163 49.4504 238.132 49.4299 238.106C49.4094 238.081 49.3809 238.064 49.3491 238.058Z" fill="#263238"/>
<path d="M50.9453 238.974C48.7535 238.614 46.0952 239.007 44.4598 240.592C44.398 240.654 44.4598 240.744 44.5554 240.721C46.6247 240.003 48.765 239.51 50.9397 239.249C50.9716 239.243 51.0005 239.226 51.0216 239.202C51.0426 239.177 51.0545 239.146 51.0551 239.114C51.0558 239.081 51.0452 239.049 51.0252 239.024C51.0052 238.998 50.977 238.981 50.9453 238.974Z" fill="#263238"/>
<path d="M52.5414 239.89C50.3496 239.53 47.6857 239.89 46.0559 241.508C45.9885 241.57 46.0559 241.66 46.1514 241.638C48.2207 240.92 50.3611 240.426 52.5358 240.165C52.5677 240.16 52.5966 240.143 52.6177 240.118C52.6387 240.094 52.6506 240.062 52.6512 240.03C52.6519 239.997 52.6413 239.966 52.6213 239.94C52.6013 239.915 52.573 239.897 52.5414 239.89Z" fill="#263238"/>
<path d="M62.0504 249.792C60.8927 250.146 28.0101 249.292 26.7793 248.466C26.3072 248.157 26.1499 243.363 26.1274 237.557C26.1274 237.495 26.1274 237.434 26.1274 237.372L47.3485 237.687V238.046C47.3485 238.046 59.7856 244.003 61.0444 245.06C62.3033 246.117 63.2138 249.438 62.0504 249.792Z" fill="#37474F"/>
<path d="M26.1274 237.372V237.557C26.1274 243.363 26.3016 248.162 26.7793 248.466C27.257 248.769 34.4618 249.224 42.15 249.528C51.3668 249.854 61.4041 250.017 62.0392 249.82C63.1969 249.466 62.264 246.133 61.0163 245.082C59.7687 244.032 47.3204 238.074 47.3204 238.074V237.72L40.2448 237.613L26.1274 237.372Z" fill="#FFC727"/>
<path d="M61.7132 248.505C56.1719 248.224 33.8043 247.617 28.3079 247.763C28.2629 247.763 28.2573 247.797 28.3079 247.797C33.793 248.196 56.1719 248.623 61.7188 248.595C61.82 248.595 61.82 248.511 61.7132 248.505Z" fill="#263238"/>
<path opacity="0.1" d="M40.2786 237.585C40.7956 241.137 41.588 246.375 42.15 249.528C51.3668 249.854 61.4041 250.017 62.0392 249.82C63.1969 249.466 62.264 246.133 61.0164 245.082C59.7687 244.031 47.3204 238.074 47.3204 238.074V237.72L40.2786 237.585Z" fill="black"/>
<path d="M24.2166 237.676L48.0116 237.906C48.0116 237.906 49.3661 199.156 49.4672 186.236C49.5852 171.472 48.7479 127.226 48.7479 127.226H30.9549C30.9549 127.226 26.1779 136.982 28.9093 147.964L29.6623 187.467L24.2166 237.676Z" fill="#37474F"/>
<path d="M25.9812 233.511C26.6093 233.426 27.2416 233.375 27.8752 233.359C28.5777 233.308 29.2802 233.258 29.9827 233.224C31.3371 233.168 32.6915 233.145 34.0459 233.14C36.7772 233.14 39.5142 233.14 42.2455 233.235C43.7966 233.286 45.3534 233.348 46.9045 233.438C46.9663 233.438 46.9607 233.533 46.9045 233.533C44.1956 233.634 41.4868 233.674 38.778 233.724C36.0691 233.775 33.3547 233.831 30.6514 233.78C29.8759 233.78 29.1003 233.78 28.3248 233.713C27.5492 233.645 26.7512 233.713 25.9925 233.6C25.9419 233.595 25.925 233.522 25.9812 233.511Z" fill="#263238"/>
<path d="M46.2975 212.121C46.5785 205.714 46.7808 199.302 46.955 192.895C47.311 180.07 47.4046 167.243 47.236 154.415C47.1461 147.221 46.9494 140.027 46.7358 132.834C46.7358 132.75 46.8595 132.755 46.8651 132.834C47.5451 145.709 47.8036 158.613 47.8205 171.505C47.8374 184.397 47.5676 197.16 46.9325 209.974C46.5785 217.162 46.1401 224.361 45.4601 231.527C45.4567 231.537 45.4502 231.545 45.4416 231.551C45.4331 231.557 45.4228 231.561 45.4123 231.561C45.4018 231.561 45.3916 231.557 45.383 231.551C45.3745 231.545 45.368 231.537 45.3646 231.527C45.6568 225.058 46.0221 218.618 46.2975 212.121Z" fill="#263238"/>
<path d="M52.1479 218.815C52.1479 218.815 52.3333 240.334 52.3333 240.345C52.3333 244.464 52.4289 248.072 52.6481 249.933C52.6508 250.374 52.7546 250.808 52.9515 251.203V251.231C54.1767 252.057 87.0649 252.917 88.2227 252.552C89.3804 252.186 88.4531 248.87 87.2054 247.82C85.9578 246.769 73.5039 240.811 73.5039 240.811L73.1161 219.304L52.1479 218.815Z" fill="#EB9481"/>
<path d="M52.2941 235.927C52.2941 235.927 52.3335 240.334 52.3335 240.345C52.3335 244.464 52.429 248.072 52.6482 249.933C52.6996 250.366 52.8015 250.793 52.9517 251.203V251.231C54.1768 252.057 87.0651 252.917 88.2228 252.551C89.3805 252.186 88.4532 248.87 87.2056 247.819C85.9579 246.768 73.504 240.811 73.504 240.811V236.315L52.2941 235.927Z" fill="white"/>
<path d="M75.5554 240.851C73.3636 240.491 70.6997 240.879 69.0699 242.47C69.0024 242.532 69.0699 242.621 69.1654 242.599C71.2347 241.881 73.3751 241.387 75.5497 241.127C75.5816 241.121 75.6106 241.104 75.6316 241.079C75.6527 241.055 75.6645 241.024 75.6652 240.991C75.6659 240.959 75.6553 240.927 75.6353 240.902C75.6152 240.876 75.587 240.858 75.5554 240.851Z" fill="#263238"/>
<path d="M77.1457 241.767C74.9595 241.407 72.2956 241.795 70.6602 243.385C70.5984 243.447 70.6602 243.537 70.7557 243.515C72.8271 242.797 74.9693 242.304 77.1457 242.042C77.1774 242.036 77.206 242.019 77.2265 241.993C77.247 241.968 77.2582 241.937 77.2582 241.905C77.2582 241.872 77.247 241.841 77.2265 241.816C77.206 241.791 77.1774 241.773 77.1457 241.767Z" fill="#263238"/>
<path d="M78.7418 242.683C76.5556 242.318 73.8917 242.712 72.2563 244.302C72.1945 244.364 72.2844 244.454 72.3518 244.431C74.4232 243.714 76.5654 243.22 78.7418 242.959C78.7735 242.952 78.8021 242.935 78.8226 242.91C78.8431 242.885 78.8543 242.854 78.8543 242.821C78.8543 242.789 78.8431 242.757 78.8226 242.732C78.8021 242.707 78.7735 242.69 78.7418 242.683Z" fill="#263238"/>
<path d="M88.234 252.579C87.0763 252.939 54.1881 252.085 52.9573 251.258C52.4852 250.949 52.3335 246.15 52.311 240.35V240.165L73.5321 240.479V240.839C73.5321 240.839 85.986 246.796 87.2393 247.841C88.4925 248.887 89.4142 252.231 88.234 252.579Z" fill="#FFC727"/>
<path d="M87.9192 251.299C82.3779 251.018 60.0047 250.411 54.5083 250.557C54.4634 250.557 54.4634 250.585 54.5083 250.591C59.9934 250.99 82.3667 251.411 87.9136 251.389C88.0316 251.389 88.0373 251.304 87.9192 251.299Z" fill="#263238"/>
<path d="M41.2789 149.975C41.2789 149.975 51.0408 180.75 51.215 186.404C51.3668 191.226 50.7486 240.704 50.7486 240.704L75.4766 240.851C75.4766 240.851 73.3859 190.394 73.0038 185.37C72.2788 175.973 64.0511 150.177 58.1613 127.197H31.5057C31.5057 127.197 31.7361 139.235 37.21 147.935C37.21 147.935 39.6884 149.082 41.2789 149.975Z" fill="#37474F"/>
<path d="M52.0637 236.147C54.9187 236.063 57.8804 235.978 60.7354 236.051C63.5903 236.124 66.406 236.164 69.2328 236.332C70.8401 236.428 72.4418 236.484 74.0435 236.641C74.0521 236.645 74.0596 236.65 74.0648 236.658C74.0701 236.665 74.0729 236.674 74.0729 236.684C74.0729 236.693 74.0701 236.702 74.0648 236.709C74.0596 236.717 74.0521 236.723 74.0435 236.726C71.1942 236.894 68.328 236.861 65.4674 236.832C62.6068 236.804 59.8025 236.776 56.97 236.647C55.3627 236.574 53.761 236.495 52.1593 236.383C51.9794 236.372 51.8895 236.152 52.0637 236.147Z" fill="#263238"/>
<path d="M57.47 141.697C58.3467 144.636 59.0942 147.62 59.881 150.588C60.6678 153.555 61.4658 156.567 62.2526 159.58C63.7757 165.368 65.2818 171.162 66.4283 177.041C67.593 182.941 68.2529 188.929 68.4009 194.941C68.5358 201.067 68.4009 207.204 68.3616 213.329C68.3222 219.455 68.2717 225.654 68.1649 231.814C68.1649 232.578 68.1312 233.342 68.1031 234.112C68.1031 234.185 67.9907 234.18 67.9907 234.112C67.8277 227.986 67.912 221.844 67.9345 215.718C67.9569 209.592 68.0356 203.455 67.985 197.329C67.9589 191.244 67.4326 185.17 66.4114 179.171C65.3774 173.276 63.9274 167.465 62.4212 161.67C61.5614 158.366 60.6903 155.067 59.836 151.762C58.9818 148.458 58.0489 145.114 57.2902 141.764C57.2812 141.74 57.2821 141.714 57.2927 141.691C57.3032 141.668 57.3225 141.65 57.3464 141.641C57.3702 141.632 57.3966 141.633 57.4198 141.643C57.443 141.654 57.4611 141.673 57.47 141.697Z" fill="#263238"/>
<path d="M47.3878 150.571C46.1574 150.562 44.93 150.451 43.7179 150.24C42.5157 149.972 41.3283 149.642 40.1605 149.25C39.0121 148.99 37.8483 148.802 36.6761 148.688C35.4937 148.517 34.3426 148.175 33.2591 147.671C33.2085 147.643 33.1635 147.722 33.2141 147.744C34.2647 148.309 35.3607 148.785 36.4906 149.166C37.6652 149.537 38.8903 149.588 40.0761 149.88C41.2766 150.237 42.4987 150.516 43.7348 150.717C44.9548 150.871 46.1905 150.851 47.4046 150.655C47.4496 150.644 47.4327 150.571 47.3878 150.571Z" fill="#263238"/>
<path d="M48.9502 175.052C48.7141 174.136 48.495 173.225 48.2477 172.315C47.7475 170.477 47.2361 168.639 46.6853 166.818C45.5613 163.199 44.5385 159.557 43.3695 155.961C42.712 153.915 42.1163 151.847 41.3407 149.846C41.337 149.836 41.3293 149.827 41.3192 149.822C41.3092 149.818 41.2977 149.817 41.2873 149.821C41.2769 149.825 41.2683 149.832 41.2636 149.842C41.2589 149.852 41.2583 149.864 41.262 149.874C41.6498 151.74 42.2062 153.567 42.7007 155.404C43.1953 157.242 43.7236 159.074 44.2519 160.906C45.3084 164.537 46.3369 168.179 47.489 171.787C47.8149 172.798 48.1465 173.804 48.495 174.81C48.8434 175.816 49.13 176.89 49.5571 177.884C49.5571 177.896 49.5619 177.908 49.5703 177.916C49.5787 177.924 49.5902 177.929 49.6021 177.929C49.614 177.929 49.6255 177.924 49.6339 177.916C49.6423 177.908 49.6471 177.896 49.6471 177.884C49.456 176.912 49.1862 175.985 48.9502 175.052Z" fill="#263238"/>
<path d="M51.1026 99.8784C56.4303 107.746 64.4557 118.391 67.1926 116.834C74.1951 112.855 82.2655 100.89 83.6873 97.8777C84.5135 96.1299 73.0711 87.5088 71.9415 89.2454C70.6208 91.2742 65.102 102.02 64.1915 102.273C63.5003 102.464 56.8293 96.8155 54.6375 95.6466C49.1861 92.7635 48.6298 96.2367 51.1026 99.8784Z" fill="#EB9481"/>
<path d="M69.8004 91.9102L83.4514 100.661C83.4514 100.661 71.5932 117.116 66.3947 117.138C63.3599 117.138 54.677 107.022 50.9004 100.486C46.7809 93.332 51.6141 93.2365 55.5425 95.9285C58.6672 98.0697 63.7477 101.976 63.9725 101.779C64.1973 101.582 69.8004 91.9102 69.8004 91.9102Z" fill="#FFC727"/>
<path opacity="0.1" d="M66.9566 101.621C66.7395 102.07 66.5917 102.55 66.5183 103.043C66.8384 102.66 67.1033 102.235 67.3051 101.778C67.5175 101.327 67.6669 100.849 67.749 100.357C67.4271 100.739 67.1604 101.165 66.9566 101.621ZM63.3711 115.581L63.6689 115.806C63.8251 115.447 63.9346 115.069 63.9949 114.682C63.7527 114.957 63.5434 115.258 63.3711 115.581ZM72.5598 98.4739C72.1108 98.2616 71.6339 98.114 71.1435 98.0356C71.9153 98.6702 72.8393 99.0925 73.8243 99.2607C73.4403 98.9425 73.0149 98.6778 72.5598 98.4739ZM61.2242 107.994C60.7771 107.776 60.2997 107.626 59.808 107.55C60.1863 107.875 60.6105 108.142 61.0669 108.343C61.5178 108.555 61.9965 108.703 62.4887 108.781C62.1083 108.458 61.6822 108.193 61.2242 107.994ZM51.5803 96.5631C51.4143 96.0938 51.1815 95.6509 50.889 95.248C50.9294 95.743 51.0411 96.2294 51.2206 96.6924C51.3865 97.1635 51.6193 97.6083 51.9119 98.0131C51.8715 97.5164 51.7598 97.028 51.5803 96.5631ZM79.4948 102.666C79.3266 102.196 79.094 101.752 78.8036 101.346C78.8433 101.843 78.955 102.331 79.1352 102.796C79.3034 103.266 79.536 103.71 79.8264 104.116C79.7867 103.62 79.675 103.131 79.4948 102.666ZM69.0641 111.276C68.8947 110.807 68.6622 110.362 68.3729 109.956C68.4665 110.953 68.8191 111.908 69.3957 112.726C69.3553 112.23 69.2436 111.741 69.0641 111.276ZM73.7568 106.19C73.2867 106.358 72.8422 106.591 72.4361 106.881C73.434 106.792 74.3903 106.439 75.2068 105.859C74.7087 105.908 74.2203 106.029 73.7568 106.218V106.19ZM58.0208 100.992C57.553 101.161 57.1106 101.394 56.7057 101.683C57.7037 101.594 58.6599 101.241 59.4764 100.66C58.9716 100.702 58.4756 100.818 58.004 101.003L58.0208 100.992Z" fill="black"/>
<path d="M74.746 99.142C73.7625 98.4957 72.7565 97.8832 71.7562 97.265C71.2785 96.9671 70.8008 96.6636 70.3062 96.3826C69.8117 96.1016 69.2609 95.7307 68.7158 95.4666C68.6764 95.4666 68.6483 95.4666 68.682 95.5171C69.1429 95.9105 69.6768 96.2365 70.1713 96.5906C70.6659 96.9446 71.0986 97.2369 71.5651 97.5516C72.5374 98.2147 73.5152 98.8723 74.5044 99.5073C76.4826 100.783 78.4946 102.003 80.529 103.194C80.5383 103.196 80.5481 103.196 80.5569 103.192C80.5658 103.189 80.5733 103.182 80.5783 103.174C80.5833 103.166 80.5856 103.156 80.5848 103.147C80.584 103.137 80.5802 103.128 80.574 103.121C78.68 101.755 76.7467 100.423 74.746 99.142Z" fill="#263238"/>
<path opacity="0.1" d="M75.8699 110.034C72.4979 113.738 68.7719 117.126 66.4171 117.138C63.3823 117.138 54.6994 107.022 50.9227 100.486C48.7815 96.7708 49.0569 94.9611 50.3607 94.4497L75.8699 110.034Z" fill="black"/>
<path d="M116.205 114.086C116.205 114.086 101.031 106.218 85.6768 97.4113C70.323 88.6047 33.5794 76.4318 32.4105 77.331C31.2415 78.2302 65.5685 97.8609 81.6023 104.672C97.6362 111.484 114.356 117.345 114.356 117.345L116.205 114.086Z" fill="#455A64"/>
<path d="M116.626 114.091L106.415 108.201L103.824 114.052L114.727 117.997L116.626 114.091Z" fill="#DBDBDB"/>
<path d="M116.626 114.086C119.054 113.856 121.819 114.271 124.556 117.07C127.861 120.442 130.951 120.217 130.951 120.217C130.951 120.217 120.937 125.472 114.727 117.969L116.626 114.086Z" fill="#263238"/>
<path d="M131.401 120.268C130.907 119.813 128.029 120.015 126.107 118.318C124.298 116.728 119.813 122.353 123.145 122.443C126.933 122.516 132.3 121.072 131.401 120.268Z" fill="#FFC727"/>
<path d="M56.1044 99.7998C54.306 99.8335 51.6084 96.276 50.9003 93.8988C50.8553 93.7358 51.4117 92.2521 52.0243 90.4144C52.3783 89.2904 52.7492 88.0484 53.0021 86.8794L59.926 90.2514C59.1911 91.6184 58.625 93.0697 58.24 94.5732C58.207 94.7341 58.1901 94.8979 58.1894 95.0621C58.1864 95.0883 58.1864 95.1147 58.1894 95.1408C58.1163 96.1018 57.8466 99.7661 56.1044 99.7998Z" fill="#EB9481"/>
<path d="M58.1727 95.0628C58.1693 95.0908 58.1693 95.1191 58.1727 95.1471C57.9147 95.1259 57.659 95.0827 57.4084 95.0178C53.1428 93.8938 53.0641 88.8358 53.1877 86.9812L59.9317 90.252C59.1959 91.6186 58.6297 93.07 58.2457 94.5738C58.208 94.7345 58.1836 94.898 58.1727 95.0628Z" fill="#263238"/>
<path d="M52.8954 78.0669C51.6984 80.5735 51.9513 88.3628 53.5642 90.3298C55.9077 93.1847 60.3082 94.0839 62.8709 91.1391C65.3606 88.2897 64.8492 78.1456 62.9946 76.2966C60.2632 73.5766 54.6545 74.369 52.8954 78.0669Z" fill="#EB9481"/>
<path d="M59.8923 83.7944C59.8923 83.7944 59.8474 83.8225 59.8474 83.8394C59.8755 84.3677 59.8136 84.9634 59.3416 85.1545C59.926 85.0927 59.9991 84.3002 59.8923 83.7944Z" fill="#263238"/>
<path d="M59.4146 83.2543C58.566 83.1981 58.5266 84.8953 59.3078 84.9403C60.089 84.9853 60.1339 83.2936 59.4146 83.2543Z" fill="#263238"/>
<path d="M62.8372 83.8616C62.8372 83.8616 62.8765 83.8616 62.8765 83.9065C62.8765 84.4292 62.8765 85.0305 63.3711 85.2216C63.3711 85.2216 63.3711 85.2553 63.3711 85.2497C62.7866 85.1542 62.7248 84.3505 62.8372 83.8616Z" fill="#263238"/>
<path d="M63.3205 83.3222C64.1635 83.2829 64.186 84.9745 63.4048 85.0082C62.6236 85.0419 62.6124 83.3615 63.3205 83.3222Z" fill="#263238"/>
<path d="M58.7626 82.4622C58.9873 82.4029 59.2087 82.3316 59.4257 82.2486C59.6701 82.2057 59.8934 82.0832 60.0608 81.9002C60.1013 81.8316 60.1183 81.7516 60.1092 81.6725C60.1001 81.5934 60.0653 81.5194 60.0102 81.4618C59.8846 81.3656 59.7356 81.3046 59.5786 81.2848C59.4216 81.2651 59.2622 81.2874 59.1167 81.3494C58.8013 81.4361 58.5291 81.6363 58.3523 81.9114C58.3195 81.975 58.3052 82.0466 58.3111 82.1179C58.317 82.1892 58.3427 82.2575 58.3855 82.3149C58.4283 82.3723 58.4863 82.4165 58.5529 82.4426C58.6196 82.4686 58.6922 82.4754 58.7626 82.4622Z" fill="#263238"/>
<path d="M63.995 82.485C63.7681 82.4359 63.5447 82.3721 63.3262 82.2939C63.0807 82.2595 62.8535 82.1449 62.6799 81.968C62.6367 81.9024 62.6165 81.8242 62.6227 81.7458C62.6288 81.6675 62.6608 81.5934 62.7136 81.5353C62.8352 81.434 62.9816 81.3671 63.1377 81.3414C63.2938 81.3157 63.454 81.3322 63.6016 81.3891C63.9193 81.457 64.2 81.6415 64.3884 81.9062C64.4278 81.9691 64.4481 82.0421 64.4467 82.1163C64.4454 82.1905 64.4224 82.2627 64.3807 82.3241C64.339 82.3855 64.2803 82.4334 64.2118 82.462C64.1433 82.4906 64.0679 82.4986 63.995 82.485Z" fill="#263238"/>
<path d="M59.808 86.9925C59.9365 87.2024 60.1064 87.384 60.3074 87.5261C60.5084 87.6681 60.7362 87.7677 60.977 87.8186C61.1895 87.8619 61.4068 87.877 61.6233 87.8636H61.7469H61.8593C61.8873 87.8598 61.9131 87.8467 61.9325 87.8262C61.952 87.8058 61.9638 87.7793 61.9661 87.7512V87.6725V87.6276C61.9661 87.2229 61.9661 86.6047 61.9661 86.6047C62.1122 86.6834 62.8597 87.0431 62.8485 86.8295C62.8491 85.0072 62.6608 83.1897 62.2865 81.4062C62.2865 81.35 62.1853 81.3613 62.1909 81.4062C62.1909 83.0922 62.4719 84.7782 62.4888 86.4642C62.2242 86.333 61.9422 86.2403 61.6514 86.1888C61.5952 86.1888 61.7188 87.3803 61.6964 87.5601C61.3651 87.5851 61.0323 87.5433 60.7175 87.4371C60.4028 87.3309 60.1126 87.1625 59.8642 86.9419C59.8193 86.9138 59.7743 86.9475 59.808 86.9925Z" fill="#263238"/>
<path d="M61.3873 87.6725C61.1591 87.9561 60.8608 88.175 60.5218 88.3075C60.339 88.366 60.1425 88.366 59.9598 88.3075C59.5439 88.1895 59.5439 87.8017 59.6282 87.4758C59.6744 87.3012 59.7424 87.1332 59.8305 86.9756C60.2615 87.3684 60.8072 87.6127 61.3873 87.6725Z" fill="#263238"/>
<path d="M60.5218 88.2844C60.339 88.3429 60.1425 88.3429 59.9598 88.2844C59.5439 88.1664 59.5439 87.7786 59.6282 87.4526C59.8491 87.4704 60.0575 87.5621 60.2197 87.7131C60.3818 87.8641 60.4883 88.0654 60.5218 88.2844Z" fill="#FF97B8"/>
<path opacity="0.2" d="M54.7499 75.9092C54.7499 76.9489 54.6151 80.1635 54.143 80.8379C53.6709 81.5123 52.6762 83.0859 52.1479 83.3276C52.1479 81.1864 52.3839 79.1407 52.8953 78.0673C53.3116 77.1964 53.9516 76.4517 54.7499 75.9092Z" fill="#263238"/>
<path d="M58.448 72.3189C57.7747 72.323 57.1132 72.4959 56.5241 72.8219C55.935 73.1479 55.4371 73.6165 55.076 74.1848C54.7719 74.7584 54.6727 75.4186 54.795 76.0562H54.8512C54.8206 75.4912 54.9421 74.9282 55.2031 74.4261C55.464 73.9239 55.8549 73.501 56.3349 73.2013C56.8613 72.8562 57.4604 72.6375 58.0854 72.5624C58.7103 72.4874 59.3442 72.5579 59.9373 72.7685C60.5183 72.9649 61.009 73.3639 61.3198 73.8925C61.3198 73.9431 61.4603 73.8925 61.4322 73.8532C61.0051 72.909 59.78 72.2852 58.448 72.3189Z" fill="#263238"/>
<path d="M67.0635 75.5276C66.8182 74.795 66.3228 74.1722 65.6641 73.7685C64.7537 73.2065 63.7252 73.2908 62.7024 73.3976C62.7024 73.3976 62.7024 73.4425 62.7024 73.4369C63.5645 73.2813 64.4533 73.3809 65.2595 73.7235C65.9224 74.0581 66.4487 74.6123 66.7488 75.2915C67.0384 75.9875 67.0671 76.7647 66.8297 77.4802C66.5922 78.1957 66.1045 78.8015 65.4562 79.1862C65.0761 79.398 64.6568 79.5302 64.2239 79.5746C63.7911 79.6191 63.3537 79.5749 62.9384 79.4447C62.9384 79.4447 62.8822 79.484 62.9384 79.4953C63.4992 79.6969 64.1051 79.738 64.688 79.6141C65.2709 79.4903 65.8077 79.2062 66.238 78.794C66.6684 78.3818 66.9752 77.8577 67.124 77.2806C67.2728 76.7036 67.2577 76.0965 67.0804 75.5276H67.0635Z" fill="#263238"/>
<path d="M52.3391 79.5731C52.3391 79.5731 50.9397 76.9092 52.1199 75.375C52.7943 74.5095 55.0086 74.6275 55.0086 74.6275C55.6041 73.7491 56.5237 73.1427 57.5657 72.9415C59.4203 72.5256 61.6233 73.6159 61.6233 73.6159C61.6233 73.6159 63.388 72.6155 65.0347 73.5653C67.3332 74.886 67.0298 78.3929 64.7143 79.5113C63.0845 80.2925 60.8815 78.8481 60.8815 78.8481C60.6679 78.8481 58.4874 80.1801 56.8519 78.2299C56.8519 78.2299 55.5088 79.4158 54.3117 78.5784C54.1239 78.9258 53.8341 79.2074 53.4815 79.3853C53.1288 79.5631 52.7301 79.6287 52.3391 79.5731Z" fill="#263238"/>
<path d="M53.5922 84.4907C53.5922 84.4907 52.1872 81.81 50.9958 82.2764C49.8044 82.7429 50.6305 86.4802 51.8781 87.1321C52.0321 87.2274 52.2037 87.2905 52.3827 87.3177C52.5617 87.345 52.7444 87.3357 52.9197 87.2906C53.095 87.2454 53.2594 87.1653 53.403 87.055C53.5466 86.9447 53.6664 86.8066 53.7552 86.6488L53.5922 84.4907Z" fill="#EB9481"/>
<path d="M51.2599 83.3452C51.2599 83.3452 51.2599 83.3452 51.2599 83.3789C51.6542 83.6419 51.9886 83.985 52.2413 84.3859C52.494 84.7868 52.6594 85.2365 52.7267 85.7056C52.6844 85.6076 52.6215 85.5198 52.5424 85.4481C52.4632 85.3764 52.3697 85.3226 52.268 85.2901C52.1663 85.2576 52.0588 85.2473 51.9527 85.2598C51.8467 85.2724 51.7446 85.3075 51.6533 85.3628C51.6458 85.3628 51.6387 85.3658 51.6334 85.371C51.6281 85.3763 51.6252 85.3834 51.6252 85.3909C51.6252 85.3983 51.6281 85.4055 51.6334 85.4108C51.6387 85.416 51.6458 85.419 51.6533 85.419C51.8211 85.388 51.9944 85.4097 52.1494 85.4811C52.3043 85.5526 52.4334 85.6703 52.5188 85.818C52.6595 86.0672 52.7725 86.3311 52.856 86.6048C52.8897 86.6891 53.0414 86.6666 53.0246 86.5711C53.1988 85.3796 52.5019 83.6206 51.2599 83.3452Z" fill="#263238"/>
<path d="M27.2176 132.705C27.2795 132.807 60.9376 139.702 61.3142 139.416C61.8368 139.017 63.6296 104.774 58.3468 97.1421C57.043 95.265 52.0018 92.6124 50.1416 93.4891C45.3197 95.7371 41.8353 101.717 39.6435 105.167C38.0193 107.719 35.7938 112.181 33.6863 116.784C30.2019 124.371 27.0041 132.329 27.2176 132.705Z" fill="#FFC727"/>
<path opacity="0.1" d="M50.6137 106.78C50.3963 107.23 50.2467 107.709 50.1697 108.202C50.4929 107.824 50.7581 107.4 50.9565 106.943C51.1724 106.493 51.3219 106.014 51.4005 105.521C51.0773 105.9 50.8121 106.324 50.6137 106.78ZM35.968 114.053C35.7557 114.504 35.6081 114.982 35.5296 115.474C35.8528 115.096 36.118 114.672 36.3164 114.216C36.5312 113.766 36.6789 113.287 36.7548 112.794C36.4354 113.175 36.1706 113.598 35.968 114.053ZM53.5754 136.28C53.3623 136.73 53.2147 137.209 53.1371 137.702C53.4601 137.322 53.7269 136.898 53.9295 136.443C54.1386 135.99 54.286 135.512 54.3679 135.021C54.0369 135.399 53.7625 135.823 53.553 136.28H53.5754ZM36.5862 134.594V134.655L36.974 134.729C37.1808 134.286 37.3246 133.817 37.4011 133.335C37.059 133.713 36.7767 134.141 36.5637 134.605L36.5862 134.594ZM28.0382 130.84C27.8257 131.291 27.6763 131.769 27.5942 132.261C27.9211 131.883 28.1883 131.456 28.3866 130.997C28.602 130.547 28.7497 130.068 28.825 129.575C28.4979 129.961 28.2256 130.39 28.0157 130.851L28.0382 130.84ZM46.3594 124.202C46.1469 124.654 45.9975 125.132 45.9154 125.624C46.2422 125.247 46.5095 124.823 46.7078 124.365C46.9219 123.915 47.0695 123.436 47.1462 122.943C46.8268 123.325 46.562 123.748 46.3594 124.202ZM43.9203 99.9014C43.7049 100.351 43.5571 100.83 43.4819 101.323C43.8014 100.94 44.0662 100.515 44.2687 100.059C44.4844 99.6106 44.634 99.1336 44.7127 98.6425C44.3902 99.0204 44.1233 99.4424 43.9203 99.8958V99.9014ZM61.258 108.005C60.8109 107.787 60.3334 107.638 59.8417 107.561C60.22 107.886 60.6442 108.153 61.1006 108.354L61.3367 108.449C61.2861 108.292 61.258 108.146 61.258 108.005ZM36.8166 124.601C36.3652 124.389 35.8868 124.239 35.3947 124.157C35.7726 124.485 36.1992 124.753 36.6592 124.95C37.1074 125.165 37.5844 125.315 38.0755 125.394C37.6972 125.069 37.273 124.802 36.8166 124.601ZM61.4659 137.78C61.0159 137.566 60.5368 137.418 60.0441 137.342C60.4252 137.664 60.8512 137.929 61.3086 138.129L61.5109 138.219C61.5109 138.095 61.5109 137.966 61.5502 137.825L61.4659 137.78ZM49.4054 131.368C48.9548 131.155 48.476 131.007 47.9835 130.929C48.3647 131.252 48.7907 131.517 49.248 131.716C49.6975 131.934 50.1766 132.083 50.6699 132.16C50.2875 131.838 49.8618 131.572 49.4054 131.368ZM59.7799 122.145C59.3315 121.932 58.8545 121.784 58.3637 121.707C58.7434 122.028 59.1674 122.293 59.6226 122.494C60.0733 122.708 60.5519 122.857 61.0444 122.938C60.6629 122.615 60.237 122.348 59.7799 122.145ZM46.8933 112.923C46.4432 112.708 45.9642 112.561 45.4714 112.485C45.8526 112.807 46.2785 113.072 46.7359 113.271C47.1853 113.489 47.6645 113.638 48.1578 113.715C47.7762 113.392 47.3504 113.125 46.8933 112.923ZM33.2423 130.317C33.0778 129.847 32.8449 129.404 32.551 129.002C32.592 129.498 32.7037 129.987 32.8826 130.452C33.0521 130.92 33.2846 131.362 33.5739 131.767C33.5341 131.27 33.4224 130.782 33.2423 130.317ZM51.5803 96.5631C51.4144 96.0938 51.1815 95.6509 50.8891 95.248C50.9294 95.743 51.0411 96.2294 51.2207 96.6924C51.3866 97.1635 51.6194 97.6083 51.9119 98.0131C51.8715 97.5164 51.7599 97.028 51.5803 96.5631ZM56.9474 113.328C56.7803 112.859 56.5475 112.416 56.2562 112.013C56.2966 112.509 56.4082 112.998 56.5878 113.462C56.7545 113.933 56.9893 114.376 57.2846 114.778C57.2418 114.281 57.1282 113.792 56.9474 113.328ZM44.797 135.6C44.6298 135.131 44.3971 134.688 44.1057 134.285C44.1467 134.781 44.2584 135.269 44.4373 135.735C44.516 135.931 44.5947 136.128 44.6902 136.297L45.033 136.364C44.9705 136.104 44.8917 135.849 44.797 135.6ZM54.1824 126.383C54.0129 125.915 53.7804 125.473 53.4911 125.068C53.5321 125.564 53.6438 126.053 53.8227 126.518C53.9909 126.988 54.2236 127.432 54.514 127.838C54.4736 127.34 54.3619 126.85 54.1824 126.383ZM41.7229 118.807C41.554 118.336 41.3194 117.892 41.026 117.486C41.0664 117.985 41.178 118.475 41.3576 118.942C41.5275 119.415 41.764 119.862 42.0601 120.268C42.0189 119.767 41.9053 119.275 41.7229 118.807ZM31.9946 120.544L31.7867 121.016L31.9272 120.971C32.3967 120.8 32.8395 120.564 33.2423 120.268C32.8156 120.302 32.3957 120.394 31.9946 120.544ZM41.4812 129.176C41.0111 129.344 40.5666 129.577 40.1605 129.867C40.659 129.827 41.1492 129.715 41.6161 129.536C42.0836 129.37 42.5247 129.137 42.9255 128.844C42.4306 128.885 41.9442 128.996 41.4812 129.176ZM41.189 107.989C40.7293 108.157 40.2959 108.389 39.902 108.68C40.3986 108.639 40.8869 108.527 41.3519 108.348C41.821 108.179 42.2637 107.945 42.667 107.651C42.1606 107.692 41.6627 107.805 41.189 107.989ZM58.33 131.98C57.8599 132.149 57.4154 132.381 57.0093 132.672C57.506 132.631 57.9943 132.52 58.4592 132.34C58.9295 132.176 59.3728 131.943 59.7743 131.649C59.2794 131.689 58.7929 131.801 58.33 131.98ZM52.5582 118.757C52.0881 118.925 51.6436 119.157 51.2375 119.448C51.7342 119.407 52.2226 119.296 52.6875 119.116C53.1578 118.953 53.6011 118.72 54.0026 118.425C53.5077 118.465 53.0212 118.577 52.5582 118.757ZM58.004 101.003C57.5362 101.172 57.0938 101.405 56.6889 101.694C57.6868 101.605 58.6431 101.252 59.4596 100.671C58.961 100.712 58.4708 100.823 58.004 101.003Z" fill="black"/>
<path d="M55.1547 103.577C59.3641 111.552 67.9289 126.057 74.2627 127.181C80.9617 128.35 90.6056 121.915 94.6577 120.032C96.3437 119.234 88.3127 107.994 86.3232 108.382C84.3337 108.77 78.0337 113.12 76.5219 113.125C75.0101 113.131 66.4677 103.852 60.4094 98.8111C53.2776 92.8595 51.7377 97.1026 55.1547 103.577Z" fill="#EB9481"/>
<path d="M95.7311 97.7877C96.1591 97.937 96.532 98.2123 96.8008 98.5773C97.0696 98.9424 97.2218 99.3802 97.2373 99.8333C97.9846 99.6288 98.78 99.6924 99.4853 100.013C100.694 100.637 100.25 102.823 100.25 102.823C101.064 102.773 101.875 102.968 102.576 103.385C103.672 104.093 103.537 106.347 103.537 106.347C104.311 106.717 104.926 107.353 105.268 108.14C106.106 110.27 104.015 113.08 102.711 114.884C101.407 116.688 94.416 120.639 93.3819 120.639L83.5469 110.815C83.5469 110.815 85.1374 105.369 88.8297 101.463C90.3584 99.8446 94.062 97.2987 95.7311 97.7877Z" fill="#EB9481"/>
<path d="M96.99 99.7882C94.9331 101.092 93.3763 102.935 91.7184 104.683C91.6791 104.723 91.7184 104.779 91.7802 104.739C93.41 102.98 95.3658 101.57 97.063 99.8781C97.1136 99.8332 97.0462 99.7545 96.99 99.7882Z" fill="#263238"/>
<path d="M100.036 102.745C99.5989 103.086 99.2078 103.483 98.8726 103.925C98.4849 104.374 98.1139 104.824 97.7486 105.285C96.9993 106.199 96.2856 107.136 95.6074 108.095C95.5793 108.134 95.6074 108.196 95.6692 108.151C96.4055 107.235 97.1529 106.336 97.9172 105.453C98.305 105.009 98.6984 104.571 99.0918 104.138C99.4893 103.751 99.8436 103.321 100.148 102.857C100.156 102.841 100.158 102.824 100.155 102.806C100.152 102.789 100.144 102.773 100.132 102.761C100.12 102.749 100.104 102.74 100.087 102.738C100.069 102.735 100.052 102.737 100.036 102.745Z" fill="#263238"/>
<path d="M103.492 106.387C103.102 106.704 102.768 107.084 102.503 107.511L101.514 108.781C100.851 109.624 100.188 110.467 99.4908 111.288C99.4571 111.327 99.5189 111.389 99.5526 111.344C100.261 110.518 100.98 109.697 101.683 108.86C102.025 108.449 102.368 108.039 102.705 107.623C103.053 107.278 103.334 106.872 103.537 106.426C103.542 106.42 103.545 106.412 103.544 106.405C103.544 106.397 103.54 106.389 103.534 106.384C103.528 106.379 103.521 106.376 103.513 106.377C103.505 106.377 103.497 106.381 103.492 106.387Z" fill="#263238"/>
<path d="M83.294 109.281L91.0327 123.893C91.0327 123.893 78.3371 130.193 72.0259 127.17C65.7146 124.146 56.9137 109.135 54.188 102.408C51.4623 95.6807 54.5477 93.4776 60.1902 98.2602C65.8326 103.043 75.7688 112.22 76.1734 112.423C76.5781 112.625 83.294 109.281 83.294 109.281Z" fill="#FFC727"/>
<path opacity="0.1" d="M58.004 101.003C57.5362 101.172 57.0938 101.405 56.689 101.694C57.6869 101.605 58.6431 101.252 59.4596 100.671C58.9611 100.712 58.4709 100.823 58.004 101.003ZM76.0218 121.909C75.5507 122.075 75.1059 122.308 74.7011 122.601C75.6992 122.508 76.6552 122.154 77.4717 121.572C76.9747 121.614 76.4864 121.728 76.0218 121.909ZM84.064 110.714C83.8617 110.765 83.6706 110.832 83.502 110.9C83.0309 111.066 82.5861 111.299 82.1813 111.591C82.6798 111.551 83.17 111.439 83.6369 111.259C83.8418 111.182 84.0425 111.094 84.2382 110.995L84.064 110.714ZM69.0642 111.276C68.8948 110.807 68.6623 110.362 68.3729 109.956C68.4666 110.953 68.8192 111.908 69.3958 112.726C69.3554 112.23 69.2437 111.741 69.0642 111.276ZM71.4696 126.372C71.3001 125.904 71.0675 125.461 70.7783 125.057C70.8193 125.553 70.9309 126.041 71.1099 126.507L71.1942 126.714C71.3515 126.81 71.5089 126.9 71.6606 126.979C71.6044 126.782 71.537 126.585 71.4696 126.383V126.372ZM82.1476 117.717C81.9793 117.249 81.7466 116.806 81.4563 116.402C81.4973 116.898 81.6089 117.387 81.7879 117.852C81.9562 118.32 82.1888 118.763 82.4791 119.167C82.4323 118.673 82.315 118.189 82.1307 117.728L82.1476 117.717ZM68.6596 119.302C68.2089 119.089 67.7301 118.941 67.2377 118.863C67.6203 119.184 68.0459 119.448 68.5022 119.65C68.9526 119.865 69.4314 120.015 69.9241 120.094C69.5271 119.773 69.0861 119.509 68.6146 119.313L68.6596 119.302ZM90.0156 121.853C89.8132 121.73 89.6053 121.623 89.3917 121.516C88.9408 121.305 88.462 121.159 87.9699 121.083C88.3539 121.401 88.7792 121.666 89.2344 121.87C89.5501 122.015 89.8771 122.133 90.2123 122.224L90.0156 121.853ZM61.2861 107.983C60.839 107.765 60.3616 107.615 59.8699 107.539C60.2482 107.864 60.6724 108.131 61.1288 108.331C61.5797 108.544 62.0584 108.691 62.5506 108.77C62.1506 108.445 61.7033 108.184 61.2243 107.994L61.2861 107.983ZM63.2644 115.913C63.0513 116.363 62.9036 116.842 62.826 117.335C63.149 116.955 63.4159 116.531 63.6184 116.076C63.83 115.625 63.9775 115.146 64.0568 114.654C63.7111 115.033 63.4232 115.461 63.2025 115.924L63.2644 115.913ZM76.0442 115.385C75.8269 115.834 75.6773 116.313 75.6003 116.806C76.2396 116.037 76.6642 115.112 76.831 114.126C76.485 114.503 76.1988 114.932 75.9824 115.396L76.0442 115.385ZM81.327 125.18C81.1162 125.632 80.9669 126.11 80.8831 126.602C81.2099 126.225 81.4772 125.801 81.6755 125.343C81.8909 124.893 82.0386 124.414 82.1138 123.921C81.7745 124.304 81.489 124.731 81.2652 125.191L81.327 125.18Z" fill="black"/>
<path d="M83.9065 117.694C83.3894 116.638 82.8443 115.592 82.3048 114.553C82.0406 114.047 81.7877 113.547 81.5067 113.052C81.2257 112.558 80.9447 111.956 80.6132 111.45C80.6132 111.411 80.5401 111.45 80.5513 111.479C80.7537 112.041 81.0459 112.603 81.2819 113.165C81.518 113.727 81.7484 114.193 81.9901 114.704C82.4846 115.767 82.9848 116.834 83.5075 117.885C84.5584 119.998 85.6599 122.072 86.7952 124.135C86.7969 124.141 86.8 124.147 86.8043 124.152C86.8086 124.158 86.814 124.162 86.8201 124.164C86.8262 124.167 86.8328 124.169 86.8395 124.168C86.8462 124.168 86.8528 124.167 86.8588 124.164C86.8648 124.161 86.87 124.156 86.8741 124.151C86.8782 124.146 86.8811 124.14 86.8826 124.133C86.884 124.127 86.884 124.12 86.8825 124.113C86.881 124.107 86.878 124.101 86.8738 124.095C85.9241 121.954 84.9462 119.807 83.9065 117.694Z" fill="#263238"/>
<path d="M61.8817 116.334C61.1455 115.115 58.3917 110.22 57.8971 109.309C56.9024 107.466 55.9245 105.611 54.9298 103.773H54.8961C55.3513 104.948 55.8571 106.1 56.4022 107.235L56.2505 107.022C55.9301 106.589 55.5929 106.168 55.2557 105.746C55.2557 105.718 55.1939 105.746 55.2108 105.78C55.5143 106.241 55.8065 106.701 56.1268 107.151C56.3292 107.432 56.5483 107.713 56.7563 107.977C57.0036 108.472 57.2565 108.955 57.515 109.444C58.0152 110.377 60.7352 115.278 61.8087 116.362C61.848 116.424 61.9098 116.385 61.8817 116.334Z" fill="#263238"/>
<path d="M69.8004 88.1946C72.0484 87.8012 75.1618 86.104 76.8366 86.3569C77.2506 86.4047 77.6382 86.5847 77.9419 86.8702C78.2456 87.1557 78.4492 87.5314 78.5226 87.9417C78.5226 87.9417 79.7759 86.5423 81.2595 87.0256C82.0239 87.2729 82.2992 88.7116 82.2992 88.7116C82.601 88.4124 82.9791 88.2017 83.3923 88.1026C83.8056 88.0035 84.2381 88.0198 84.6428 88.1496C85.6712 88.5543 85.7668 89.9312 85.7668 89.9312C85.7668 89.9312 87.2561 89.3692 88.1721 90.1166C90.0324 91.634 87.5146 100.795 83.7548 101.278C82.0014 101.503 82.7376 99.2997 82.7376 99.2997C82.7376 99.2997 80.9111 102.211 79.0115 101.739C77.112 101.267 78.2416 98.4623 78.2416 98.4623C78.2416 98.4623 76.4488 101.272 74.5268 100.581C72.6047 99.8898 74.184 97.2259 74.184 97.2259C74.184 97.2259 72.2451 98.8782 70.8906 98.0184C68.6426 96.5909 72.7902 93.5786 72.8633 91.4373L69.8509 89.4141L69.8004 88.1946Z" fill="#EB9481"/>
<path d="M73.1892 87.1551C71.0311 87.3406 69.2552 84.2552 67.187 84.1372C64.377 83.9798 66.153 87.7059 69.8397 89.4368L72.9419 90.2798L73.1892 87.1551Z" fill="#EB9481"/>
<path d="M82.333 88.6668C82.333 88.6275 82.4004 88.6387 82.4004 88.6668C82.2671 92.348 80.822 95.8602 78.3259 98.5693C78.236 98.6592 78.0674 98.6536 78.1629 98.5693C79.7703 96.6641 81.7766 91.6848 82.333 88.6668Z" fill="#263238"/>
<path d="M73.9199 97.3836C76.3365 94.7085 77.6515 91.5332 78.5339 88.0769C78.5339 88.0319 78.6069 88.0769 78.6069 88.0769C78.6069 89.8865 77.8426 92.0109 77.0839 93.6463C76.411 95.1608 75.353 96.4726 74.0154 97.451C73.9592 97.5072 73.8693 97.4398 73.9199 97.3836Z" fill="#263238"/>
<path d="M56.5316 95.4948C54.1937 93.3704 46.9326 90.8864 43.4426 92.1228C39.0365 93.7132 31.9047 107.516 33.2254 108.769C35.5858 111.017 47.2192 104.835 50.1641 101.868C53.109 98.9005 56.5316 95.4948 56.5316 95.4948Z" fill="#FFC727"/>
<path opacity="0.1" d="M45.7918 91.8027C45.5668 91.9143 45.3524 92.046 45.1511 92.1961C45.646 92.1558 46.1325 92.0441 46.5954 91.8646H46.6573C46.365 91.814 46.084 91.8027 45.7918 91.8027ZM40.4921 95.1747C40.4247 95.0061 40.3572 94.8375 40.2786 94.6746L40.02 94.9724C40.0538 95.0848 40.0931 95.1972 40.1324 95.3096C40.2996 95.7784 40.5323 96.2212 40.8237 96.6247C40.7828 96.1299 40.6711 95.6435 40.4921 95.1804V95.1747ZM51.5804 96.5572C51.4144 96.0879 51.1816 95.645 50.8891 95.2422C50.9295 95.7371 51.0412 96.2235 51.2207 96.6865C51.3866 97.1576 51.6194 97.6024 51.912 98.0072C51.871 97.5124 51.7594 97.026 51.5804 96.5629V96.5572ZM36.8166 102.846C36.366 102.633 35.8872 102.485 35.3948 102.408C35.7743 102.731 36.1983 102.998 36.6537 103.2C37.1049 103.412 37.5835 103.559 38.0755 103.638C37.696 103.315 37.272 103.049 36.8166 102.846ZM43.9203 99.918C43.7049 100.368 43.5572 100.847 43.482 101.34C43.8014 100.957 44.0662 100.531 44.2688 100.075C44.4845 99.6272 44.634 99.1502 44.7127 98.6591C44.3915 99.0318 44.1248 99.448 43.9203 99.8955V99.918Z" fill="black"/>
<path d="M53.5137 99.4008C52.9011 99.7886 52.2773 100.165 51.6703 100.559C52.5639 99.7043 53.4631 98.8725 54.3286 97.9733C54.3286 97.9396 54.3286 97.889 54.278 97.9171C53.1731 98.7578 52.1149 99.6584 51.1083 100.615C50.0405 101.548 48.9727 102.486 47.8656 103.369C46.7715 104.261 45.6124 105.071 44.3981 105.791C43.1007 106.519 41.7521 107.152 40.3629 107.685C39.5761 107.988 38.7893 108.28 37.9969 108.556C37.1447 108.848 36.2709 109.074 35.3836 109.23C35.215 109.23 35.3049 109.326 35.3836 109.32C36.13 109.24 36.8674 109.091 37.5866 108.876C38.3341 108.663 39.0872 108.449 39.8346 108.224C41.2665 107.816 42.6615 107.288 44.0047 106.645C46.618 105.347 48.776 103.43 50.8386 101.396L50.9566 101.278C51.3219 101.042 51.6816 100.795 52.03 100.536C52.5414 100.16 53.0585 99.8111 53.598 99.4739C53.6092 99.4739 53.5643 99.3727 53.5137 99.4008Z" fill="#263238"/>
<path d="M218.618 197.319C218.618 197.319 221.097 205.58 224.036 214.016C226.975 222.451 229.594 241.829 229.043 242.329C228.492 242.829 221.99 223.991 220.079 215.387C218.168 206.783 216.848 197.965 216.848 197.965L218.618 197.319Z" fill="#FFC727"/>
<path d="M218.657 197.111L220.624 202.719L217.5 203.478L216.561 197.701L218.657 197.111Z" fill="#DBDBDB"/>
<path d="M218.663 197.11C218.882 196.399 218.929 195.646 218.8 194.913C218.671 194.18 218.37 193.488 217.921 192.895C216.555 190.945 216.954 189.427 216.954 189.427C216.954 189.427 213.436 193.923 216.561 197.7L218.663 197.11Z" fill="#455A64"/>
<path d="M216.983 189.203C217.162 189.49 216.797 190.889 217.455 192.013C218.112 193.137 214.886 194.778 215.15 193.109C215.454 191.221 216.657 188.68 216.983 189.203Z" fill="#FFC727"/>
<path d="M234.028 202.151C234.028 202.151 231.634 208.839 228.852 215.639C226.07 222.44 223.08 238.271 223.507 238.681C223.935 239.092 230.122 223.906 232.044 216.909C233.966 209.913 235.478 202.741 235.478 202.741L234.028 202.151Z" fill="#A6A6A6"/>
<path d="M234.005 201.977L232.145 206.507L234.68 207.271L235.703 202.556L234.005 201.977Z" fill="#DBDBDB"/>
<path d="M234 201.983C234.27 198.251 237.231 195.239 237.231 195.239C237.231 195.239 238.434 199.617 235.703 202.578L234 201.983Z" fill="#455A64"/>
<path d="M226.666 193.384C226.666 193.384 227.61 200.426 228.914 207.664C230.218 214.903 229.83 231.004 229.318 231.341C228.807 231.678 225.946 215.51 225.519 208.266C225.092 201.021 225.148 193.654 225.148 193.654L226.666 193.384Z" fill="#37474F"/>
<path d="M226.722 193.221L227.599 198.038L224.957 198.251L224.94 193.429L226.722 193.221Z" fill="#DBDBDB"/>
<path d="M224.941 193.429C224.941 193.429 226.627 193.26 226.722 193.221C227.247 191.575 227.665 189.896 227.975 188.197C227.874 188.062 222.288 188.849 222.316 189.371C222.344 189.894 224.941 193.429 224.941 193.429Z" fill="#455A64"/>
<path d="M232.842 220.046H218.067C216.708 220.046 215.606 221.148 215.606 222.507V242.385C215.606 243.745 216.708 244.847 218.067 244.847H232.842C234.202 244.847 235.304 243.745 235.304 242.385V222.507C235.304 221.148 234.202 220.046 232.842 220.046Z" fill="#455A64"/>
<path d="M232.814 216.128H218.09V220.046H232.814V216.128Z" fill="#455A64"/>
</svg>
