<svg width="244" height="244" viewBox="0 0 244 244" fill="none" xmlns="http://www.w3.org/2000/svg">
<path d="M44.4909 33.4084C44.5024 30.6611 43.879 27.9483 42.6695 25.4816C41.46 23.0149 39.697 20.8609 37.5181 19.1877C35.3391 17.5144 32.8031 16.3671 30.1077 15.8352C27.4124 15.3034 24.6307 15.4013 21.9794 16.1215C19.3282 16.8416 16.8791 18.1644 14.8232 19.9868C12.7674 21.8091 11.1603 24.0818 10.1272 26.6275C9.09422 29.1732 8.66322 31.9231 8.86785 34.6627C9.07248 37.4024 9.90721 40.0578 11.3069 42.4218L11.3606 42.4852C12.0438 43.6418 12.8978 44.4372 13.7665 45.6767L24.1218 59.3895C24.4215 59.7876 24.8096 60.1106 25.2555 60.3331C25.7014 60.5555 26.1929 60.6713 26.6911 60.6713C27.1894 60.6713 27.6809 60.5555 28.1268 60.3331C28.5727 60.1106 28.9608 59.7876 29.2605 59.3895L39.4109 45.9012C40.3352 44.811 41.1986 43.6706 41.9973 42.4852L42.0363 42.4364C43.6486 39.7013 44.4963 36.5833 44.4909 33.4084ZM26.6545 41.1774C25.1016 41.1774 23.5835 40.7168 22.2923 39.8541C21.001 38.9913 19.9946 37.765 19.4003 36.3302C18.806 34.8955 18.6505 33.3167 18.9535 31.7936C19.2565 30.2705 20.0043 28.8714 21.1024 27.7733C22.2005 26.6752 23.5996 25.9274 25.1227 25.6244C26.6458 25.3214 28.2246 25.4769 29.6593 26.0712C31.0941 26.6655 32.3204 27.6719 33.1832 28.9631C34.046 30.2544 34.5065 31.7725 34.5065 33.3254C34.5071 34.3567 34.3045 35.3781 33.9101 36.331C33.5157 37.2839 32.9374 38.1498 32.2081 38.879C31.4789 39.6083 30.613 40.1866 29.6601 40.581C28.7072 40.9753 27.6859 41.178 26.6545 41.1774Z" fill="#F5F5F5"/>
<path d="M236.856 141.578C236.857 140.37 236.58 139.177 236.046 138.092C235.511 137.008 234.734 136.062 233.774 135.327C232.814 134.592 231.698 134.088 230.512 133.854C229.326 133.621 228.102 133.664 226.935 133.981C225.769 134.297 224.691 134.879 223.785 135.68C222.88 136.481 222.171 137.48 221.715 138.599C221.258 139.718 221.066 140.928 221.153 142.133C221.24 143.339 221.603 144.508 222.216 145.551V145.58C222.518 146.068 222.899 146.454 223.28 146.985L227.842 153.032C227.975 153.208 228.146 153.35 228.343 153.448C228.54 153.547 228.757 153.598 228.977 153.598C229.197 153.598 229.414 153.547 229.611 153.448C229.808 153.35 229.979 153.208 230.112 153.032L234.596 147.088C235.005 146.605 235.386 146.1 235.738 145.575V145.551C236.461 144.351 236.848 142.979 236.856 141.578ZM228.994 144.994C228.31 144.994 227.641 144.791 227.072 144.411C226.503 144.031 226.059 143.491 225.797 142.859C225.536 142.226 225.467 141.531 225.601 140.859C225.734 140.188 226.064 139.572 226.547 139.088C227.031 138.604 227.648 138.275 228.319 138.141C228.99 138.008 229.686 138.076 230.318 138.338C230.95 138.6 231.491 139.043 231.871 139.612C232.251 140.181 232.454 140.85 232.454 141.534C232.455 141.989 232.366 142.44 232.192 142.861C232.019 143.281 231.764 143.664 231.443 143.986C231.121 144.308 230.74 144.564 230.32 144.739C229.899 144.913 229.449 145.004 228.994 145.004V144.994Z" fill="#F5F5F5"/>
<path d="M209.748 203.589C217.435 195.902 217.435 183.437 209.748 175.749C202.06 168.062 189.595 168.062 181.908 175.749C174.22 183.437 174.22 195.902 181.908 203.589C189.595 211.277 202.06 211.277 209.748 203.589Z" fill="#F5F5F5"/>
<path d="M195.829 206.058C192.588 206.059 189.419 205.099 186.724 203.299C184.029 201.499 181.927 198.94 180.686 195.945C179.445 192.951 179.12 189.656 179.752 186.477C180.384 183.298 181.944 180.378 184.235 178.085C186.527 175.793 189.447 174.232 192.626 173.599C195.805 172.966 199.1 173.291 202.095 174.531C205.089 175.771 207.649 177.871 209.45 180.566C211.25 183.261 212.212 186.43 212.212 189.671C212.208 194.015 210.481 198.18 207.409 201.252C204.338 204.325 200.174 206.053 195.829 206.058ZM195.829 176.09C193.143 176.09 190.518 176.886 188.284 178.379C186.051 179.871 184.31 181.992 183.282 184.474C182.254 186.955 181.985 189.686 182.509 192.321C183.033 194.955 184.327 197.375 186.226 199.274C188.126 201.174 190.545 202.467 193.18 202.991C195.814 203.515 198.545 203.246 201.027 202.218C203.508 201.19 205.629 199.45 207.122 197.216C208.614 194.983 209.411 192.357 209.411 189.671C209.407 186.07 207.975 182.618 205.428 180.072C202.882 177.526 199.43 176.094 195.829 176.09Z" fill="white"/>
<path d="M195.717 195.273C194.523 195.273 193.356 194.919 192.363 194.255C191.37 193.592 190.597 192.649 190.14 191.545C189.683 190.442 189.564 189.228 189.797 188.057C190.03 186.886 190.606 185.81 191.451 184.966C192.295 184.122 193.371 183.548 194.543 183.315C195.714 183.083 196.928 183.203 198.031 183.661C199.134 184.119 200.076 184.893 200.739 185.886C201.402 186.88 201.755 188.047 201.754 189.241C201.753 190.842 201.116 192.376 199.984 193.507C198.852 194.638 197.317 195.273 195.717 195.273ZM195.717 186.001C195.078 186.001 194.454 186.191 193.922 186.546C193.391 186.901 192.977 187.405 192.733 187.995C192.488 188.586 192.424 189.235 192.549 189.862C192.673 190.489 192.981 191.064 193.433 191.516C193.885 191.968 194.46 192.275 195.087 192.4C195.714 192.525 196.363 192.461 196.954 192.216C197.544 191.972 198.048 191.558 198.403 191.026C198.758 190.495 198.948 189.871 198.948 189.232C198.944 188.377 198.602 187.558 197.997 186.955C197.391 186.352 196.572 186.012 195.717 186.011V186.001Z" fill="white"/>
<path d="M195.717 189.242H188.09L189.422 191.594L171.469 199.822L172.074 200.832L190.086 192.697L191.32 195.034L195.717 189.242Z" fill="#E0E0E0"/>
<path d="M171.468 199.822L171.278 199.636C170.816 199.185 170.242 198.865 169.615 198.709C168.988 198.553 168.331 198.566 167.711 198.748L160.552 200.832L164.539 202.584L162.938 206.844L169.658 204.472C170.395 204.208 171.028 203.714 171.463 203.063C171.898 202.412 172.112 201.638 172.074 200.856L171.468 199.822Z" fill="#E0E0E0"/>
<path d="M84.5948 203.95L84.7412 203.901L85.1658 203.779L86.7957 203.291L92.9006 201.578L92.842 201.681C92.5297 200.631 92.1783 199.46 91.8075 198.201V198.147L91.8563 198.104C93.547 196.687 94.9858 194.994 96.1116 193.097C96.7388 192.028 97.2182 190.879 97.5366 189.681C97.8706 188.407 97.9486 187.08 97.7659 185.777C97.3231 182.944 95.9042 180.354 93.7546 178.457C91.4307 176.427 88.5296 175.176 85.4586 174.88C83.1531 174.684 80.8395 175.147 78.7876 176.217C76.8102 177.179 75.1018 178.616 73.8149 180.399C72.6294 182.079 71.8936 184.034 71.6775 186.079C71.6482 186.567 71.575 187.055 71.5847 187.543C71.5945 188.031 71.6091 188.519 71.6238 188.968C71.7013 189.884 71.8647 190.791 72.1118 191.677C72.3543 192.508 72.6813 193.313 73.0878 194.078C73.4858 194.79 73.9568 195.459 74.4932 196.073C75.472 197.171 76.6264 198.098 77.9092 198.816C79.7811 199.878 81.8323 200.586 83.9604 200.905H83.9946V200.934L84.4826 203.149C84.5314 203.393 84.5704 203.584 84.5948 203.72C84.6192 203.857 84.6339 203.916 84.6339 203.921C84.6107 203.864 84.5943 203.805 84.5851 203.745L84.4484 203.189L83.9214 200.953L83.9653 200.993C81.8137 200.701 79.7361 200.007 77.8409 198.948C76.5403 198.228 75.3692 197.296 74.3761 196.191C73.8188 195.568 73.3281 194.89 72.9121 194.165C72.4874 193.39 72.144 192.572 71.8873 191.725C71.6426 190.826 71.4793 189.907 71.3993 188.978L71.3554 187.514C71.3554 187.026 71.4188 186.538 71.4481 186.05C71.6611 183.964 72.4072 181.967 73.6148 180.253C74.9228 178.432 76.6614 176.963 78.6754 175.978C80.7765 174.882 83.1468 174.41 85.5074 174.616C88.6393 174.913 91.5982 176.188 93.9644 178.261C95.0797 179.243 96.0073 180.418 96.7021 181.731C96.8874 182.045 97.0505 182.371 97.1901 182.707C97.3409 183.023 97.4682 183.349 97.5707 183.683C97.6732 184.025 97.7855 184.357 97.8782 184.693C97.9709 185.03 98.0002 185.381 98.0636 185.723C98.2451 187.059 98.1605 188.417 97.8147 189.72C97.4867 190.936 96.9942 192.102 96.3507 193.185C95.2029 195.097 93.7393 196.802 92.0222 198.226L92.0563 198.128L93.0665 201.607L93.0909 201.685L93.0128 201.71L86.8396 203.35L85.2146 203.774L84.8047 203.877L84.5948 203.95Z" fill="#E0E0E0"/>
<path d="M93.696 203.955C92.3101 204.474 90.8939 204.909 89.4553 205.258C88.0396 205.691 86.599 206.038 85.1414 206.297C86.5287 205.783 87.9447 205.349 89.3821 204.999C90.7981 204.566 92.2386 204.217 93.696 203.955Z" fill="#E0E0E0"/>
<path d="M91.7879 207.946C91.352 208.254 90.8511 208.458 90.3239 208.542C89.8156 208.706 89.2766 208.752 88.7477 208.678C89.2367 208.493 89.7437 208.359 90.2605 208.278C90.7574 208.117 91.269 208.006 91.7879 207.946Z" fill="#E0E0E0"/>
<path d="M86.3369 203.496C86.3144 203.453 86.298 203.407 86.2881 203.359C86.2588 203.252 86.2247 203.115 86.1759 202.945C86.0783 202.557 85.9416 202.025 85.766 201.349C85.4146 199.938 84.9168 197.933 84.302 195.459C83.9945 194.214 83.6627 192.853 83.326 191.394C83.2541 191.033 83.1097 190.691 82.9014 190.388C82.8135 190.239 82.6746 190.127 82.5105 190.072C82.3464 190.018 82.1681 190.024 82.0084 190.091C81.8569 190.192 81.7347 190.332 81.6542 190.495C81.5737 190.659 81.5376 190.841 81.5496 191.023C81.5613 191.414 81.7158 191.787 81.984 192.072C82.2723 192.369 82.6285 192.593 83.0219 192.723C83.4154 192.853 83.8345 192.886 84.2434 192.819C84.6722 192.753 85.0781 192.582 85.424 192.321C85.77 192.059 86.0452 191.715 86.2247 191.32C86.6233 190.498 86.7234 189.563 86.5077 188.675C86.4246 188.226 86.2126 187.811 85.8977 187.48C85.7474 187.33 85.5521 187.233 85.3416 187.204C85.1311 187.175 84.9168 187.215 84.7314 187.319C84.5717 187.462 84.4637 187.654 84.424 187.865C84.3843 188.076 84.4151 188.294 84.5118 188.485C84.7259 188.883 85.0384 189.219 85.4195 189.461C86.1388 190.033 87.0049 190.39 87.918 190.491C88.3533 190.53 88.7916 190.464 89.1966 190.3C89.5789 190.123 89.9135 189.857 90.1726 189.525C90.4338 189.201 90.5904 188.807 90.6216 188.392C90.6377 188.194 90.6132 187.994 90.5494 187.805C90.4856 187.616 90.384 187.442 90.2507 187.294C90.1363 187.152 89.9842 187.044 89.8116 186.984C89.6391 186.923 89.453 186.913 89.2747 186.953C89.1004 187.016 88.9429 187.119 88.8144 187.252C88.6858 187.386 88.5895 187.547 88.5329 187.724C88.2938 188.441 88.5036 189.241 88.5915 189.978C88.8257 191.442 89.0795 192.838 89.3381 194.092C89.8261 196.591 90.2507 198.616 90.5386 200.036C90.6752 200.724 90.7875 201.266 90.8656 201.651C90.8948 201.827 90.9241 201.964 90.9436 202.076C90.9484 202.125 90.9484 202.174 90.9436 202.222C90.9236 202.177 90.9089 202.129 90.8997 202.081C90.8704 201.973 90.8363 201.837 90.7924 201.666C90.6996 201.28 90.5776 200.744 90.4166 200.06C90.0994 198.665 89.6456 196.644 89.1332 194.131C88.8794 192.877 88.6012 191.501 88.3524 190.013C88.2987 189.637 88.2352 189.261 88.1962 188.866C88.1392 188.457 88.1725 188.04 88.2938 187.646C88.3628 187.434 88.4791 187.241 88.6338 187.081C88.7886 186.922 88.9777 186.799 89.1868 186.723C89.4128 186.666 89.6505 186.673 89.8725 186.745C90.0944 186.816 90.2916 186.949 90.441 187.128C90.5947 187.301 90.7123 187.503 90.7869 187.721C90.8615 187.94 90.8915 188.172 90.8753 188.402C90.8478 188.868 90.6774 189.315 90.3873 189.681C90.0969 190.052 89.7199 190.347 89.2893 190.54C88.8457 190.72 88.366 190.793 87.8888 190.754C86.927 190.648 86.0142 190.274 85.2536 189.676C84.8353 189.4 84.4984 189.018 84.2776 188.568C84.1372 188.327 84.0917 188.042 84.1501 187.769C84.2085 187.496 84.3665 187.254 84.5932 187.092C84.82 186.929 85.0993 186.857 85.3766 186.889C85.6539 186.921 85.9093 187.055 86.0929 187.265C86.4429 187.633 86.68 188.094 86.7761 188.592C87.0054 189.541 86.8967 190.541 86.4687 191.418C86.2682 191.848 85.9647 192.223 85.5851 192.508C85.2054 192.793 84.7614 192.98 84.2922 193.053C83.8419 193.125 83.3807 193.087 82.9486 192.94C82.5166 192.794 82.1268 192.545 81.8132 192.213C81.5054 191.883 81.3315 191.45 81.3252 190.998C81.3123 190.773 81.3608 190.548 81.4657 190.347C81.5705 190.147 81.7277 189.979 81.9205 189.861C82.0249 189.811 82.1382 189.782 82.2538 189.777C82.3694 189.771 82.485 189.788 82.594 189.827C82.7918 189.911 82.9613 190.05 83.082 190.227C83.3044 190.559 83.4618 190.93 83.5456 191.32C83.892 192.784 84.2141 194.151 84.5216 195.4L85.888 201.3C86.0392 201.983 86.1612 202.52 86.2491 202.91C86.2832 203.081 86.3125 203.218 86.3369 203.33C86.3472 203.385 86.3472 203.441 86.3369 203.496Z" fill="#E0E0E0"/>
<path d="M93.3593 205.78C92.2495 206.225 91.1076 206.585 89.9433 206.858C88.7965 207.215 87.6256 207.489 86.4394 207.678C87.5492 207.232 88.6911 206.872 89.8554 206.599C91.0023 206.243 92.1732 205.969 93.3593 205.78Z" fill="#E0E0E0"/>
<path d="M226.012 228.316C226.012 228.384 179.442 228.442 122.005 228.442C64.5672 228.442 17.9876 228.384 17.9876 228.316C17.9876 228.247 64.5477 228.189 122.005 228.189C179.462 228.189 226.012 228.242 226.012 228.316Z" fill="#263238"/>
<path d="M217.419 32.0129H26.6838V44.2325H217.419V32.0129Z" fill="#E0E0E0"/>
<path d="M217.389 55.4565H26.6546V162.426H217.389V55.4565Z" fill="white"/>
<path d="M26.6838 44.1394H52.8748L55.4661 36.5852H97.9221L100.513 44.1394H217.419V55.7148H26.6838V44.1394Z" fill="#EBEBEB"/>
<path d="M32.979 36.8881C32.979 37.1719 32.8949 37.4492 32.7372 37.6852C32.5796 37.9211 32.3555 38.105 32.0934 38.2136C31.8312 38.3222 31.5427 38.3506 31.2644 38.2952C30.9861 38.2399 30.7305 38.1032 30.5298 37.9026C30.3292 37.7019 30.1925 37.4463 30.1372 37.168C30.0818 36.8897 30.1102 36.6012 30.2188 36.3391C30.3274 36.0769 30.5113 35.8528 30.7472 35.6952C30.9832 35.5375 31.2605 35.4534 31.5443 35.4534C31.7329 35.4527 31.9198 35.4894 32.0941 35.5613C32.2685 35.6331 32.4269 35.7388 32.5602 35.8722C32.6936 36.0055 32.7993 36.1639 32.8711 36.3383C32.943 36.5127 32.9797 36.6995 32.979 36.8881Z" fill="#263238"/>
<path d="M37.4149 36.8881C37.4149 37.1719 37.3308 37.4492 37.1731 37.6852C37.0155 37.9211 36.7914 38.105 36.5292 38.2136C36.2671 38.3222 35.9786 38.3506 35.7003 38.2952C35.422 38.2399 35.1663 38.1032 34.9657 37.9026C34.765 37.7019 34.6284 37.4463 34.573 37.168C34.5177 36.8897 34.5461 36.6012 34.6547 36.3391C34.7633 36.0769 34.9472 35.8528 35.1831 35.6952C35.419 35.5375 35.6964 35.4534 35.9802 35.4534C36.1688 35.4527 36.3556 35.4894 36.53 35.5613C36.7044 35.6331 36.8628 35.7388 36.9961 35.8722C37.1295 36.0055 37.2351 36.1639 37.307 36.3383C37.3789 36.5127 37.4156 36.6995 37.4149 36.8881Z" fill="#263238"/>
<path d="M41.8509 36.8881C41.8509 37.1719 41.7667 37.4492 41.6091 37.6852C41.4514 37.9211 41.2274 38.105 40.9652 38.2136C40.703 38.3222 40.4146 38.3506 40.1363 38.2952C39.858 38.2399 39.6023 38.1032 39.4017 37.9026C39.201 37.7019 39.0644 37.4463 39.009 37.168C38.9537 36.8897 38.9821 36.6012 39.0907 36.3391C39.1992 36.0769 39.3831 35.8528 39.6191 35.6952C39.855 35.5375 40.1324 35.4534 40.4162 35.4534C40.6048 35.4527 40.7916 35.4894 40.966 35.5613C41.1403 35.6331 41.2987 35.7388 41.4321 35.8722C41.5655 36.0055 41.6711 36.1639 41.743 36.3383C41.8149 36.5127 41.8515 36.6995 41.8509 36.8881Z" fill="#263238"/>
<path d="M196.337 53.4118H65.4798C64.5169 53.4118 63.5934 53.0293 62.9125 52.3484C62.2316 51.6675 61.8491 50.744 61.8491 49.7811C61.8491 48.8182 62.2316 47.8947 62.9125 47.2138C63.5934 46.5329 64.5169 46.1504 65.4798 46.1504H196.337C197.3 46.1504 198.223 46.5329 198.904 47.2138C199.585 47.8947 199.968 48.8182 199.968 49.7811C199.968 50.744 199.585 51.6675 198.904 52.3484C198.223 53.0293 197.3 53.4118 196.337 53.4118Z" fill="#FAFAFA"/>
<path d="M68.6128 50.2641V51.4939H67.993V50.3617C67.993 50.0153 67.832 49.8737 67.5587 49.8737C67.2854 49.8737 67.0414 50.0592 67.0414 50.4496V51.5134H66.4217V48.5366H67.0414V49.5712C67.2278 49.4016 67.4727 49.3106 67.7246 49.3174C67.8485 49.3091 67.9727 49.3285 68.0882 49.374C68.2038 49.4195 68.3078 49.4901 68.3927 49.5806C68.4777 49.6712 68.5415 49.7795 68.5795 49.8977C68.6176 50.0159 68.6289 50.141 68.6128 50.2641Z" fill="#E0E0E0"/>
<path d="M70.555 51.3862C70.4095 51.4793 70.2396 51.5269 70.067 51.5229C69.961 51.5374 69.8532 51.5278 69.7515 51.4946C69.6498 51.4614 69.5569 51.4056 69.4799 51.3314C69.4028 51.2572 69.3436 51.1665 69.3067 51.0661C69.2698 50.9657 69.2561 50.8583 69.2667 50.7518V49.8734H68.9348V49.3854H69.2667V48.8633H69.8865V49.3854H70.4184V49.8734H69.8865V50.7518C69.8812 50.789 69.8843 50.8268 69.8957 50.8626C69.9071 50.8983 69.9264 50.931 69.9522 50.9582C69.9781 50.9855 70.0097 51.0065 70.0448 51.0198C70.0799 51.033 70.1175 51.0382 70.1548 51.0349C70.2448 51.036 70.3324 51.0068 70.4037 50.9519L70.555 51.3862Z" fill="#E0E0E0"/>
<path d="M72.224 51.3862C72.078 51.4782 71.9085 51.5257 71.736 51.5229C71.63 51.5374 71.5221 51.5278 71.4204 51.4946C71.3187 51.4614 71.2259 51.4056 71.1489 51.3314C71.0718 51.2572 71.0126 51.1665 70.9757 51.0661C70.9388 50.9657 70.9251 50.8583 70.9357 50.7518V49.8734H70.6038V49.3854H70.9357V48.8633H71.5554V49.3854H72.0922V49.8734H71.5554V50.7518C71.5511 50.7888 71.5549 50.8263 71.5666 50.8616C71.5783 50.8969 71.5977 50.9293 71.6233 50.9563C71.6489 50.9833 71.6801 51.0043 71.7148 51.0179C71.7495 51.0315 71.7867 51.0373 71.8238 51.0349C71.9152 51.036 72.0044 51.0068 72.0776 50.9519L72.224 51.3862Z" fill="#E0E0E0"/>
<path d="M74.9275 50.42C74.9364 50.5643 74.9151 50.7088 74.865 50.8443C74.8149 50.9799 74.7371 51.1035 74.6365 51.2073C74.5359 51.3111 74.4148 51.3927 74.2809 51.4471C74.147 51.5014 74.0033 51.5273 73.8588 51.5229C73.7392 51.5286 73.6197 51.5084 73.5086 51.4637C73.3974 51.4191 73.2972 51.3511 73.2146 51.2643V52.2403H72.5949V49.3123H73.2V49.5612C73.2844 49.4674 73.3886 49.3938 73.5052 49.3457C73.6217 49.2975 73.7475 49.2761 73.8734 49.283C74.0198 49.2803 74.1651 49.3085 74.2997 49.3658C74.4344 49.4231 74.5555 49.5083 74.655 49.6156C74.7545 49.7229 74.8302 49.8501 74.8772 49.9887C74.9241 50.1273 74.9413 50.2743 74.9275 50.42ZM74.298 50.42C74.2885 50.3145 74.2486 50.214 74.1831 50.1308C74.1176 50.0476 74.0293 49.9852 73.929 49.9512C73.8287 49.9172 73.7206 49.9131 73.618 49.9394C73.5154 49.9656 73.4226 50.0212 73.351 50.0992C73.2794 50.1772 73.2319 50.2744 73.2145 50.3789C73.1971 50.4834 73.2104 50.5907 73.2528 50.6877C73.2952 50.7848 73.3649 50.8674 73.4535 50.9256C73.542 50.9838 73.6455 51.015 73.7514 51.0154C73.8277 51.0165 73.9034 51.0014 73.9735 50.9712C74.0435 50.941 74.1064 50.8963 74.158 50.8401C74.2096 50.7839 74.2488 50.7174 74.2729 50.645C74.297 50.5726 74.3056 50.496 74.298 50.42Z" fill="#E0E0E0"/>
<path d="M75.191 49.7028C75.2018 49.6074 75.2472 49.5193 75.3188 49.4553C75.3904 49.3913 75.483 49.356 75.579 49.356C75.675 49.356 75.7676 49.3913 75.8392 49.4553C75.9108 49.5193 75.9562 49.6074 75.967 49.7028C75.9731 49.7574 75.9676 49.8127 75.9509 49.865C75.9342 49.9174 75.9067 49.9656 75.8701 50.0065C75.8334 50.0475 75.7886 50.0803 75.7384 50.1027C75.6883 50.1252 75.6339 50.1368 75.579 50.1368C75.5241 50.1368 75.4697 50.1252 75.4196 50.1027C75.3694 50.0803 75.3246 50.0475 75.2879 50.0065C75.2513 49.9656 75.2238 49.9174 75.2071 49.865C75.1904 49.8127 75.1849 49.7574 75.191 49.7028ZM75.191 51.1326C75.2018 51.0372 75.2472 50.9491 75.3188 50.8851C75.3904 50.8212 75.483 50.7858 75.579 50.7858C75.675 50.7858 75.7676 50.8212 75.8392 50.8851C75.9108 50.9491 75.9562 51.0372 75.967 51.1326C75.9731 51.1872 75.9676 51.2425 75.9509 51.2948C75.9342 51.3472 75.9067 51.3954 75.8701 51.4364C75.8334 51.4774 75.7886 51.5101 75.7384 51.5326C75.6883 51.555 75.6339 51.5666 75.579 51.5666C75.5241 51.5666 75.4697 51.555 75.4196 51.5326C75.3694 51.5101 75.3246 51.4774 75.2879 51.4364C75.2513 51.3954 75.2238 51.3472 75.2071 51.2948C75.1904 51.2425 75.1849 51.1872 75.191 51.1326Z" fill="#E0E0E0"/>
<path d="M77.4944 48.1362H78.0507L76.7331 51.889H76.1817L77.4944 48.1362Z" fill="#E0E0E0"/>
<path d="M78.7681 48.1362H79.3195L78.0068 51.889H77.4505L78.7681 48.1362Z" fill="#E0E0E0"/>
<path d="M196.22 74.6933H82.2085C80.5014 74.6933 78.8642 74.0151 77.6571 72.808C76.4499 71.6009 75.7718 69.9637 75.7718 68.2565C75.7731 66.5498 76.4516 64.9134 77.6585 63.7065C78.8653 62.4997 80.5018 61.8211 82.2085 61.8198H196.22C197.927 61.8211 199.563 62.4997 200.77 63.7065C201.977 64.9134 202.655 66.5498 202.657 68.2565C202.657 69.9637 201.979 71.6009 200.771 72.808C199.564 74.0151 197.927 74.6933 196.22 74.6933Z" fill="#FAFAFA"/>
<path d="M196.22 74.6934C197.129 74.6737 198.026 74.4713 198.855 74.098C199.671 73.7223 200.401 73.1813 200.997 72.5094C201.593 71.8374 202.044 71.049 202.32 70.194C202.551 69.4311 202.641 68.6321 202.583 67.837C202.523 66.9468 202.277 66.0791 201.861 65.2896C201.396 64.4247 200.74 63.677 199.943 63.1034C199.072 62.4759 198.057 62.0796 196.991 61.9517C196.425 61.9032 195.856 61.8869 195.288 61.9029H193.511H177.12L82.2182 61.937C81.0787 61.9403 79.961 62.2505 78.9828 62.835C78.0216 63.4088 77.2304 64.2281 76.6903 65.2087C76.1503 66.1893 75.8808 67.2959 75.9096 68.415C75.9384 69.5341 76.2645 70.6254 76.8542 71.577C77.444 72.5285 78.2764 73.3059 79.2658 73.8296C80.2431 74.3361 81.3325 74.5879 82.4329 74.5616H114.241L156.907 74.5909L185.699 74.6299H193.507H195.542C196 74.6299 196.235 74.6299 196.235 74.6299H195.542H193.507H185.699L156.907 74.6738L114.241 74.6982H89.0404H82.4329C81.2913 74.7277 80.161 74.4657 79.1487 73.937C77.8528 73.2517 76.8236 72.1524 76.2252 70.8142C75.6267 69.4761 75.4935 67.9761 75.8466 66.5534C76.1998 65.1307 77.019 63.8671 78.1738 62.9642C79.3285 62.0612 80.7523 61.5708 82.2182 61.571L177.144 61.7321H193.536H195.312C195.887 61.718 196.462 61.736 197.035 61.7858C198.119 61.9206 199.152 62.3287 200.036 62.9716C200.811 63.527 201.453 64.2477 201.916 65.0815C202.378 65.9153 202.649 66.8415 202.71 67.793C202.762 68.6007 202.666 69.4109 202.427 70.1842C202.206 70.8593 201.876 71.4938 201.451 72.063C200.789 72.9604 199.907 73.6714 198.889 74.1273C198.269 74.3999 197.611 74.576 196.937 74.6494C196.454 74.6934 196.22 74.6934 196.22 74.6934Z" fill="#263238"/>
<path d="M84.8242 69.6279L85.0633 69.0911C85.3652 69.298 85.722 69.4102 86.0881 69.4132C86.5126 69.4132 86.6834 69.2716 86.6834 69.0813C86.6834 68.5006 84.8827 68.9008 84.8827 67.7491C84.8827 67.222 85.3073 66.7731 86.1906 66.7731C86.5665 66.7659 86.9374 66.8603 87.2642 67.0464L87.0446 67.5929C86.7845 67.4379 86.4884 67.3538 86.1857 67.3489C85.7611 67.3489 85.5952 67.51 85.5952 67.7052C85.5952 68.2761 87.3959 67.8808 87.3959 69.0179C87.3959 69.5352 86.9665 69.9939 86.0832 69.9939C85.6359 70.0042 85.1962 69.8764 84.8242 69.6279Z" fill="#E0E0E0"/>
<path d="M90.158 68.9399H88.3573C88.3931 69.09 88.482 69.2221 88.6075 69.3118C88.7331 69.4015 88.8869 69.4427 89.0405 69.4279C89.1504 69.4313 89.2599 69.4123 89.3623 69.3721C89.4646 69.3318 89.5577 69.2711 89.6358 69.1937L90.0018 69.5938C89.8157 69.7729 89.5833 69.8963 89.3308 69.9503C89.0783 70.0043 88.8157 69.9867 88.5727 69.8994C88.3296 69.8121 88.1158 69.6587 87.9553 69.4564C87.7948 69.2541 87.694 69.011 87.6643 68.7545C87.6621 68.5893 87.6938 68.4254 87.7573 68.2728C87.8209 68.1203 87.915 67.9825 88.0339 67.8677C88.1528 67.7529 88.2939 67.6637 88.4485 67.6056C88.6032 67.5474 88.7681 67.5216 88.9331 67.5296C89.0977 67.5212 89.2622 67.5474 89.416 67.6064C89.5699 67.6655 89.7096 67.756 89.8264 67.8723C89.9431 67.9886 90.0342 68.128 90.0939 68.2816C90.1535 68.4352 90.1803 68.5996 90.1726 68.7642C90.1726 68.8082 90.1629 68.8814 90.158 68.9399ZM88.3475 68.5349H89.5187C89.4936 68.3979 89.4213 68.274 89.3143 68.1849C89.2073 68.0957 89.0724 68.0469 88.9331 68.0469C88.7938 68.0469 88.659 68.0957 88.552 68.1849C88.445 68.274 88.3726 68.3979 88.3475 68.5349Z" fill="#E0E0E0"/>
<path d="M92.6712 68.574V69.9355H92.0271V69.6378C91.9466 69.7531 91.8367 69.8447 91.7088 69.9031C91.5809 69.9615 91.4397 69.9845 91.2999 69.9697C90.7436 69.9697 90.4118 69.6573 90.4118 69.2474C90.4118 68.8375 90.7095 68.5349 91.4317 68.5349H91.9831C91.9831 68.2421 91.8026 68.0469 91.4317 68.0469C91.1863 68.0448 90.9467 68.1218 90.7485 68.2665L90.4996 67.7785C90.8053 67.5834 91.1619 67.4832 91.5244 67.4906C92.232 67.5199 92.6712 67.8566 92.6712 68.574ZM91.9831 69.184V68.94H91.4951C91.1731 68.94 91.0706 69.0571 91.0706 69.2181C91.0706 69.3792 91.217 69.5061 91.4561 69.5061C91.567 69.517 91.6785 69.4915 91.7736 69.4334C91.8687 69.3752 91.9423 69.2877 91.9831 69.184Z" fill="#E0E0E0"/>
<path d="M94.7745 67.5195V68.1539H94.6183C94.5317 68.1467 94.4446 68.159 94.3633 68.1897C94.282 68.2204 94.2085 68.2688 94.1483 68.3314C94.088 68.394 94.0424 68.4692 94.0148 68.5516C93.9872 68.634 93.9783 68.7215 93.9888 68.8078V69.9351H93.2958V67.5536H93.9546V67.866C94.054 67.7474 94.1802 67.6541 94.3227 67.5938C94.4653 67.5336 94.6201 67.5081 94.7745 67.5195Z" fill="#E0E0E0"/>
<path d="M94.9891 68.7446C94.9893 68.575 95.0245 68.4072 95.0926 68.2519C95.1607 68.0965 95.2602 67.9569 95.3849 67.8419C95.5096 67.7268 95.6567 67.6388 95.817 67.5834C95.9773 67.5279 96.1474 67.5063 96.3165 67.5197C96.5341 67.5023 96.7518 67.5507 96.9415 67.6586C97.1313 67.7665 97.2841 67.929 97.3803 68.1249L96.8435 68.4128C96.7943 68.314 96.7183 68.231 96.6243 68.1733C96.5303 68.1155 96.422 68.0852 96.3116 68.0858C96.1369 68.0858 95.9693 68.1552 95.8458 68.2788C95.7222 68.4023 95.6528 68.5699 95.6528 68.7446C95.6528 68.9194 95.7222 69.0869 95.8458 69.2105C95.9693 69.334 96.1369 69.4034 96.3116 69.4034C96.4222 69.4052 96.531 69.3754 96.6253 69.3175C96.7195 69.2596 96.7952 69.176 96.8435 69.0765L97.3803 69.3693C97.2824 69.5634 97.129 69.7241 96.9396 69.831C96.7502 69.9378 96.5333 69.9861 96.3165 69.9695C96.1474 69.983 95.9773 69.9613 95.817 69.9059C95.6567 69.8504 95.5096 69.7624 95.3849 69.6474C95.2602 69.5323 95.1607 69.3928 95.0926 69.2374C95.0245 69.082 94.9893 68.9143 94.9891 68.7446Z" fill="#E0E0E0"/>
<path d="M100.196 68.5738V69.9354H99.5032V68.6763C99.5032 68.2908 99.3275 68.1151 99.0152 68.1151C98.7029 68.1151 98.4442 68.3201 98.4442 68.7593V69.9354H97.7513V66.6511H98.4442V67.8028C98.5452 67.7078 98.6641 67.6338 98.794 67.5852C98.9238 67.5366 99.0621 67.5144 99.2006 67.5198C99.3392 67.5091 99.4785 67.5295 99.6081 67.5795C99.7378 67.6296 99.8547 67.708 99.9501 67.8091C100.046 67.9101 100.117 68.0313 100.16 68.1636C100.202 68.2959 100.215 68.4361 100.196 68.5738Z" fill="#E0E0E0"/>
<path d="M101.904 69.5352C101.904 69.4213 101.949 69.312 102.03 69.2315C102.11 69.151 102.22 69.1057 102.334 69.1057C102.448 69.1057 102.557 69.151 102.637 69.2315C102.718 69.312 102.763 69.4213 102.763 69.5352C102.763 69.649 102.718 69.7583 102.637 69.8388C102.557 69.9194 102.448 69.9646 102.334 69.9646C102.22 69.9646 102.11 69.9194 102.03 69.8388C101.949 69.7583 101.904 69.649 101.904 69.5352Z" fill="#E0E0E0"/>
<path d="M103.066 69.5352C103.067 69.4504 103.093 69.3679 103.14 69.2979C103.188 69.2279 103.256 69.1737 103.334 69.1419C103.413 69.1101 103.499 69.1023 103.582 69.1195C103.665 69.1366 103.741 69.1778 103.8 69.2381C103.86 69.2983 103.9 69.3749 103.917 69.458C103.933 69.5412 103.924 69.6273 103.891 69.7055C103.859 69.7837 103.804 69.8504 103.733 69.8974C103.663 69.9444 103.58 69.9695 103.495 69.9695C103.438 69.9701 103.382 69.9593 103.329 69.9377C103.276 69.916 103.228 69.884 103.188 69.8435C103.148 69.8029 103.117 69.7547 103.096 69.7018C103.074 69.6488 103.064 69.5921 103.066 69.5352Z" fill="#E0E0E0"/>
<path d="M104.222 69.5352C104.222 69.4213 104.267 69.312 104.348 69.2315C104.428 69.151 104.538 69.1057 104.652 69.1057C104.765 69.1057 104.875 69.151 104.955 69.2315C105.036 69.312 105.081 69.4213 105.081 69.5352C105.081 69.5916 105.07 69.6474 105.048 69.6995C105.027 69.7516 104.995 69.7989 104.955 69.8388C104.915 69.8787 104.868 69.9103 104.816 69.9319C104.764 69.9535 104.708 69.9646 104.652 69.9646C104.595 69.9646 104.539 69.9535 104.487 69.9319C104.435 69.9103 104.388 69.8787 104.348 69.8388C104.308 69.7989 104.276 69.7516 104.255 69.6995C104.233 69.6474 104.222 69.5916 104.222 69.5352Z" fill="#E0E0E0"/>
<path d="M62.4982 85.8879C62.4982 85.9611 57.9207 86.0147 52.2794 86.0147C46.6382 86.0147 42.0607 85.9611 42.0607 85.8879C42.0607 85.8147 46.6333 85.761 52.2794 85.761C57.9256 85.761 62.4982 85.8293 62.4982 85.8879Z" fill="black"/>
<path d="M63.2985 91.7393H42.0607V112.977H63.2985V91.7393Z" fill="#27BBAD"/>
<path d="M192.345 96.7458C192.345 96.8141 165.993 96.8727 133.473 96.8727C100.953 96.8727 74.5957 96.8141 74.5957 96.7458C74.5957 96.6775 100.948 96.6189 133.473 96.6189C165.998 96.6189 192.345 96.6726 192.345 96.7458Z" fill="black"/>
<path d="M106.804 104.739C106.804 104.813 99.8546 104.866 91.2902 104.866C82.7258 104.866 75.7718 104.813 75.7718 104.739C75.7718 104.666 82.716 104.613 91.2902 104.613C99.8644 104.613 106.804 104.671 106.804 104.739Z" fill="black"/>
<path d="M173.528 112.157C173.528 112.225 151.641 112.284 124.65 112.284C97.6586 112.284 75.7718 112.225 75.7718 112.157C75.7718 112.089 97.6537 112.025 124.65 112.025C151.646 112.025 173.528 112.084 173.528 112.157Z" fill="#E0E0E0"/>
<path d="M62.4982 123.952C62.4982 124.02 57.9207 124.079 52.2794 124.079C46.6382 124.079 42.0607 124.02 42.0607 123.952C42.0607 123.884 46.6333 123.825 52.2794 123.825C57.9256 123.825 62.4982 123.869 62.4982 123.952Z" fill="black"/>
<path d="M63.2985 129.779H42.0607V151.016H63.2985V129.779Z" fill="#27BBAD"/>
<path d="M199.343 134.78C199.343 134.854 171.415 134.907 136.972 134.907C102.529 134.907 74.5957 134.854 74.5957 134.78C74.5957 134.707 102.519 134.654 136.972 134.654C171.425 134.654 199.343 134.712 199.343 134.78Z" fill="black"/>
<path d="M106.804 142.779C106.804 142.848 99.8546 142.906 91.2902 142.906C82.7258 142.906 75.7718 142.848 75.7718 142.779C75.7718 142.711 82.716 142.652 91.2902 142.652C99.8644 142.652 106.804 142.711 106.804 142.779Z" fill="black"/>
<path d="M190.549 150.192C190.549 150.265 164.856 150.318 133.165 150.318C101.475 150.318 75.7718 150.265 75.7718 150.192C75.7718 150.118 101.465 150.065 133.165 150.065C164.866 150.065 190.549 150.123 190.549 150.192Z" fill="#E0E0E0"/>
<path d="M217.419 162.685C217.419 161.845 217.38 111.542 217.316 32.0129L217.419 32.1153H26.6985L26.8254 31.9885C26.8254 78.6315 26.8254 122.947 26.8254 162.66L26.7082 162.543L217.443 162.66L26.7082 162.772H26.5911V162.66C26.5911 122.947 26.5911 78.6315 26.5911 31.9885V31.8616H26.7326H217.453H217.555V31.9641C217.463 111.542 217.419 161.845 217.419 162.685Z" fill="#263238"/>
<path d="M92.7688 41.4797C92.7688 41.5529 86.0344 41.6065 77.7286 41.6065C69.4229 41.6065 62.6885 41.5529 62.6885 41.4797C62.6885 41.4065 69.4229 41.3528 77.7286 41.3528C86.0344 41.3528 92.7688 41.4113 92.7688 41.4797Z" fill="black"/>
<path d="M65.636 65.4995H38.9229V73.5466H65.636V65.4995Z" fill="#455A64"/>
<path d="M112.938 86.5761C112.938 86.6493 104.642 86.703 94.3939 86.703C84.1459 86.703 75.8499 86.6493 75.8499 86.5761C75.8499 86.5029 84.1459 86.4492 94.3939 86.4492C104.642 86.4492 112.938 86.5078 112.938 86.5761Z" fill="#27BBAD"/>
<path d="M112.938 123.952C112.938 124.02 104.642 124.079 94.3939 124.079C84.1459 124.079 75.8499 124.02 75.8499 123.952C75.8499 123.884 84.1459 123.825 94.3939 123.825C104.642 123.825 112.938 123.869 112.938 123.952Z" fill="#27BBAD"/>
<path d="M193.765 70.399C193.151 70.4 192.55 70.2186 192.039 69.878C191.528 69.5373 191.129 69.0526 190.894 68.4853C190.658 67.918 190.597 67.2935 190.716 66.691C190.836 66.0885 191.131 65.535 191.566 65.1007C192 64.6663 192.554 64.3707 193.156 64.2511C193.759 64.1315 194.383 64.1933 194.95 64.4288C195.518 64.6644 196.002 65.0629 196.343 65.5741C196.684 66.0852 196.865 66.6859 196.864 67.3002C196.863 68.1217 196.536 68.9091 195.955 69.49C195.374 70.0708 194.587 70.3977 193.765 70.399ZM193.765 64.6845C193.248 64.6836 192.742 64.8361 192.311 65.123C191.88 65.4098 191.544 65.818 191.345 66.2958C191.147 66.7737 191.094 67.2998 191.194 67.8075C191.295 68.3152 191.544 68.7817 191.909 69.148C192.275 69.5143 192.741 69.7639 193.248 69.8653C193.756 69.9666 194.282 69.9151 194.76 69.7172C195.239 69.5194 195.647 69.1842 195.935 68.7539C196.223 68.3237 196.376 67.8177 196.376 67.3002C196.376 66.6073 196.101 65.9428 195.612 65.4524C195.122 64.962 194.458 64.6858 193.765 64.6845Z" fill="#27BBAD"/>
<path d="M197.577 71.775C197.511 71.7748 197.447 71.7485 197.401 71.7017L195.381 69.6961C195.358 69.6733 195.34 69.6463 195.327 69.6166C195.315 69.5869 195.309 69.555 195.309 69.5228C195.309 69.4907 195.315 69.4588 195.327 69.4291C195.34 69.3993 195.358 69.3723 195.381 69.3496C195.403 69.3268 195.43 69.3088 195.46 69.2965C195.49 69.2842 195.522 69.2778 195.554 69.2778C195.586 69.2778 195.618 69.2842 195.648 69.2965C195.677 69.3088 195.704 69.3268 195.727 69.3496L197.747 71.3553C197.78 71.39 197.802 71.4334 197.811 71.4804C197.82 71.5273 197.815 71.5758 197.797 71.6201C197.779 71.6643 197.749 71.7025 197.71 71.7299C197.671 71.7574 197.624 71.773 197.577 71.775Z" fill="#27BBAD"/>
<path d="M146.341 104.193C146.341 104.261 138.353 104.32 128.495 104.32C118.638 104.32 110.644 104.261 110.644 104.193C110.644 104.124 118.638 104.066 128.495 104.066C138.353 104.066 146.341 104.12 146.341 104.193Z" fill="black"/>
<path d="M169.409 103.642C169.409 103.715 165.227 103.768 160.074 103.768C154.92 103.768 150.733 103.715 150.733 103.642C150.733 103.568 154.916 103.515 160.074 103.515C165.232 103.515 169.409 103.573 169.409 103.642Z" fill="black"/>
<path d="M146.171 142.779C146.171 142.848 138.182 142.906 128.324 142.906C118.467 142.906 110.478 142.848 110.478 142.779C110.478 142.711 118.467 142.652 128.324 142.652C138.182 142.652 146.171 142.711 146.171 142.779Z" fill="black"/>
<path d="M50.3714 152.822C46.4088 154.872 43.3734 158.405 41.1921 162.294C39.0107 166.183 37.6004 170.444 36.2096 174.704L34.9896 196.552C39.5963 188.714 43.2856 179.501 44.2909 170.463L41.2262 170.19C43.2807 169.878 45.0082 168.389 46.1062 166.623C47.2042 164.856 47.7654 162.821 48.3169 160.815L44.5788 161.372C47.5372 159.373 49.6117 156.311 50.3714 152.822Z" fill="#455A64"/>
<g opacity="0.3">
<path d="M50.3714 152.822C46.4088 154.872 43.3734 158.405 41.1921 162.294C39.0107 166.183 37.6004 170.444 36.2096 174.704L34.9896 196.552C39.5963 188.714 43.2856 179.501 44.2909 170.463L41.2262 170.19C43.2807 169.878 45.0082 168.389 46.1062 166.623C47.2042 164.856 47.7654 162.821 48.3169 160.815L44.5788 161.372C47.5372 159.373 49.6117 156.311 50.3714 152.822Z" fill="black"/>
</g>
<path d="M34.3064 201.642C34.3064 201.642 24.3073 189.676 24.4244 178.252H28.4602C28.4602 178.252 24.0682 175.363 24.4195 173.748C24.7709 172.132 24.9075 166.018 24.9075 166.018L28.6017 166.94C28.6017 166.94 25.8299 165.554 25.4834 163.363C25.1369 161.172 26.2935 151.012 26.2935 151.012C26.2935 151.012 30.7928 155.745 32.1787 160.591C33.5647 165.437 37.1759 171.093 36.112 185.865C35.0482 200.636 34.3064 201.642 34.3064 201.642Z" fill="#455A64"/>
<path d="M39.3767 202.774C39.3767 202.774 50.2103 195.556 52.6162 186.347L49.3661 185.44C49.3661 185.44 53.5287 184.083 53.6019 182.707C53.6751 181.331 54.9195 176.387 54.9195 176.387L51.7475 176.324C51.7475 176.324 54.2803 175.836 55.0367 174.128C55.7931 172.42 57.0911 164.026 57.0911 164.026C57.0911 164.026 52.4356 166.842 50.2591 170.439C48.0827 174.035 43.9151 177.783 41.5483 189.895C39.1815 202.007 39.3767 202.774 39.3767 202.774Z" fill="#455A64"/>
<path d="M29.0018 161.45C29.0191 161.489 29.0321 161.53 29.0409 161.572L29.1287 161.938C29.2068 162.284 29.3142 162.758 29.4557 163.358C29.7338 164.592 30.1047 166.383 30.5244 168.604C31.3784 173.04 32.3886 179.208 33.184 186.06C33.9794 192.911 34.3991 199.148 34.5797 203.667C34.6724 205.926 34.7212 207.751 34.731 209.035C34.731 209.654 34.731 210.137 34.731 210.499C34.731 210.655 34.731 210.777 34.731 210.879C34.7382 210.921 34.7382 210.964 34.731 211.006C34.7242 210.964 34.7242 210.921 34.731 210.879C34.731 210.782 34.731 210.655 34.731 210.503C34.731 210.147 34.7017 209.664 34.6773 209.039C34.6382 207.776 34.5602 205.95 34.443 203.696C34.2186 199.182 33.7647 192.96 32.979 186.128C32.1934 179.296 31.2076 173.118 30.3975 168.672C29.9974 166.452 29.6558 164.656 29.4215 163.416C29.3044 162.811 29.2117 162.333 29.1434 161.991C29.119 161.835 29.0946 161.713 29.0799 161.616C29.042 161.567 29.0153 161.51 29.0018 161.45Z" fill="#263238"/>
<path d="M32.9205 208.971C32.9205 208.971 23.7705 198.616 20.9254 192.311L23.0726 191.398C21.5159 191.652 19.925 190.984 18.7197 189.968C17.5617 188.896 16.5656 187.662 15.7624 186.304L18.5879 185.816C15.9933 185.078 13.7815 183.371 12.4098 181.048C15.7477 181.594 18.7538 183.424 21.2475 185.713C23.2264 187.61 25.0236 189.689 26.6155 191.92C27.4117 192.993 28.1076 194.136 28.6944 195.336C30.2218 198.518 32.9253 205.16 32.9205 208.971Z" fill="#455A64"/>
<path d="M52.7576 170.087C52.7502 170.125 52.737 170.161 52.7186 170.195L52.582 170.497L52.0305 171.654C51.5425 172.63 50.8544 174.094 50.0151 175.904C48.3364 179.501 46.1111 184.527 43.9346 190.178C41.7581 195.829 40.0306 201.036 38.8301 204.818C38.2396 206.717 37.776 208.234 37.4637 209.323L37.088 210.557L36.9855 210.874C36.9855 210.943 36.9464 210.982 36.9416 210.977C36.9367 210.972 36.9416 210.938 36.9416 210.865L37.0196 210.543L37.3417 209.303C37.6248 208.229 38.064 206.683 38.6349 204.779C39.772 200.968 41.4848 195.746 43.6711 190.086C45.8573 184.425 48.107 179.408 49.8296 175.826C50.6885 174.035 51.4059 172.596 51.9183 171.61L52.5136 170.473L52.6747 170.185C52.6985 170.149 52.7263 170.117 52.7576 170.087Z" fill="#263238"/>
<path d="M33.6964 213.422C33.6254 213.18 33.5764 212.931 33.55 212.68C33.4768 212.192 33.3548 211.514 33.184 210.665C32.7353 208.457 32.1136 206.289 31.3247 204.179C30.5234 202.072 29.5557 200.033 28.4309 198.079C27.9966 197.333 27.6354 196.732 27.3719 196.327C27.2281 196.12 27.1024 195.902 26.9962 195.673C27.1666 195.858 27.3202 196.057 27.4549 196.269C27.7428 196.664 28.1332 197.245 28.587 197.991C29.7635 199.928 30.76 201.968 31.5638 204.086C32.3615 206.208 32.9626 208.399 33.3597 210.631C33.5061 211.489 33.6037 212.182 33.6476 212.67C33.6848 212.919 33.7011 213.17 33.6964 213.422Z" fill="#263238"/>
<path d="M45.7695 210.977H25.742V215.061H45.7695V210.977Z" fill="#27BBAD"/>
<path d="M27.6501 215.066L29.8168 228.804H41.9192L43.9395 215.066H27.6501Z" fill="#27BBAD"/>
<path d="M44.5398 215.067C44.5398 215.135 40.7529 215.193 36.0779 215.193C31.4028 215.193 27.6208 215.135 27.6208 215.067C27.6208 214.998 31.4077 214.94 36.0779 214.94C40.748 214.94 44.5398 214.993 44.5398 215.067Z" fill="#263238"/>
<path d="M131.76 218.668V228.799L152.197 228.701C152.051 226.647 140.832 222.548 140.832 222.548L141.056 218.644L131.76 218.668Z" fill="#455A64"/>
<g opacity="0.6">
<path d="M135.074 221.63C134.875 221.703 134.709 221.846 134.606 222.031C134.504 222.217 134.472 222.433 134.517 222.64C134.564 222.844 134.689 223.021 134.865 223.134C135.041 223.246 135.255 223.284 135.459 223.241C135.67 223.161 135.845 223.009 135.953 222.811C136.061 222.613 136.093 222.382 136.045 222.162C136.009 222.061 135.953 221.968 135.881 221.889C135.809 221.81 135.722 221.745 135.624 221.7C135.527 221.655 135.422 221.629 135.315 221.624C135.208 221.62 135.101 221.637 135 221.674" fill="white"/>
</g>
<path d="M131.76 228.799V227.184L151.28 227.413C151.28 227.413 152.295 228.023 152.202 228.701L131.76 228.799Z" fill="#263238"/>
<path d="M140.842 222.743C140.842 222.85 140.354 222.904 139.866 223.231C139.378 223.558 139.129 224.021 139.036 223.982C138.943 223.943 139.085 223.328 139.675 222.923C140.266 222.518 140.861 222.645 140.842 222.743Z" fill="#263238"/>
<path d="M143.521 223.68C143.521 223.782 143.116 223.967 142.784 224.416C142.452 224.865 142.364 225.339 142.267 225.334C142.169 225.329 142.096 224.739 142.516 224.187C142.935 223.636 143.516 223.582 143.521 223.68Z" fill="#263238"/>
<path d="M144.726 226.261C144.633 226.286 144.487 225.773 144.726 225.183C144.965 224.592 145.434 224.368 145.478 224.456C145.522 224.543 145.239 224.856 145.043 225.334C144.848 225.812 144.824 226.251 144.726 226.261Z" fill="#263238"/>
<path d="M140.642 219.859C140.603 219.956 140.154 219.82 139.583 219.859C139.012 219.898 138.607 220.103 138.538 220.01C138.47 219.917 138.899 219.522 139.558 219.493C140.217 219.464 140.69 219.776 140.642 219.859Z" fill="#263238"/>
<path d="M140.759 223.197C140.814 222.995 140.829 222.784 140.803 222.577C140.758 222.008 140.572 221.459 140.261 220.981C140.048 220.653 139.777 220.367 139.461 220.137C139.367 220.057 139.254 220.003 139.133 219.982C139.012 219.961 138.888 219.972 138.773 220.015C138.653 220.082 138.553 220.178 138.482 220.296C138.411 220.413 138.371 220.546 138.368 220.683C138.399 221.212 138.586 221.719 138.906 222.141C139.226 222.564 139.663 222.881 140.163 223.055C140.653 223.21 141.178 223.215 141.67 223.069C142.163 222.923 142.6 222.633 142.925 222.235C143.085 222.052 143.209 221.84 143.291 221.611C143.333 221.479 143.333 221.337 143.291 221.206C143.269 221.14 143.232 221.08 143.184 221.029C143.136 220.979 143.078 220.939 143.013 220.913C142.802 220.85 142.574 220.873 142.379 220.976C142.21 221.053 142.047 221.143 141.891 221.245C141.432 221.552 141.036 221.945 140.725 222.401C140.597 222.563 140.501 222.746 140.442 222.943C140.865 222.349 141.392 221.836 141.998 221.43C142.272 221.274 142.633 221.049 142.921 221.152C143.047 221.201 143.096 221.352 143.038 221.528C142.963 221.719 142.854 221.894 142.716 222.045C142.42 222.396 142.028 222.651 141.587 222.779C141.147 222.907 140.679 222.901 140.241 222.762C139.804 222.608 139.42 222.332 139.134 221.968C138.848 221.603 138.672 221.164 138.626 220.703C138.623 220.615 138.643 220.528 138.685 220.45C138.727 220.373 138.79 220.309 138.865 220.264C138.943 220.239 139.026 220.234 139.106 220.249C139.186 220.265 139.261 220.3 139.324 220.352C139.619 220.556 139.876 220.813 140.08 221.108C140.388 221.545 140.593 222.045 140.681 222.572C140.744 222.977 140.734 223.197 140.759 223.197Z" fill="#263238"/>
<path d="M124.298 220.132L124.645 222.743L124.416 228.623L116.754 228.809L116.481 222.743L117.349 219.136L124.298 220.132Z" fill="#455A64"/>
<path d="M120.629 228.179C120.58 228.179 120.692 226.383 120.873 224.163C121.053 221.943 121.244 220.137 121.287 220.132C121.331 220.127 121.224 221.933 121.043 224.153C120.863 226.374 120.673 228.179 120.629 228.179Z" fill="#263238"/>
<path d="M124.445 227.642L116.705 227.735V228.809L124.45 228.804L124.445 227.642Z" fill="#263238"/>
<path d="M116.725 224.26C116.725 224.26 116.778 224.138 116.92 223.953C117.123 223.687 117.352 223.441 117.603 223.221C117.973 222.886 118.388 222.607 118.838 222.391C119.624 222.007 120.512 221.885 121.372 222.044C122.233 222.203 123.019 222.634 123.615 223.274C123.841 223.525 124.03 223.806 124.176 224.109C124.239 224.216 124.28 224.333 124.298 224.455C124.06 224.079 123.793 223.721 123.498 223.387C122.732 222.631 121.7 222.207 120.624 222.206C119.545 222.238 118.511 222.641 117.696 223.348C117.066 223.87 116.754 224.289 116.725 224.26Z" fill="#263238"/>
<path d="M120.595 55.9928L120.536 82.4716L131.902 83.0133L132.233 76.5717C132.233 76.5717 136.269 77.372 137.309 73.6437C137.977 71.2476 137.797 52.7378 137.797 52.7378L120.595 55.9928Z" fill="#B78876"/>
<path d="M139.28 54.5974C137.489 55.1098 137.099 58.0134 137.099 58.0134L134.293 64.2159C132.863 63.0984 130.94 63.1618 130.579 65.6799C130.315 67.4953 132.575 67.8613 132.575 67.8613C131.257 70.1012 130.369 71.9117 128.451 74.0394C126.392 76.3574 125.221 76.5867 122.976 76.616H120.497C120.497 76.616 119.282 72.6778 117.037 62.8349C114.548 51.9134 127.461 53.3189 129.857 50.5324C133.756 45.9989 144.936 52.9822 139.28 54.5974Z" fill="#263238"/>
<path d="M142.433 52.2162C142.334 51.6337 142.03 51.1057 141.577 50.7273C141.123 50.3488 140.549 50.1448 139.958 50.1519C140.143 49.8407 140.212 49.4743 140.153 49.1172C140.094 48.7602 139.911 48.4353 139.636 48.1999C139.351 47.9758 139.02 47.8161 138.667 47.7319C138.314 47.6476 137.947 47.6408 137.592 47.7119C136.88 47.856 136.193 48.1025 135.552 48.4439C135.312 47.7362 134.85 47.125 134.234 46.7018C133.571 46.3134 132.81 46.1253 132.043 46.1601C128.554 46.1601 126.719 48.5464 124.845 50.9815C124.572 51.4352 124.18 51.8063 123.713 52.0551C123.373 52.1552 123.018 52.1948 122.664 52.1723C121.331 52.2145 120.032 52.6076 118.899 53.3119C117.767 54.0162 116.84 55.0067 116.212 56.1836C114.992 58.5407 114.08 63.9916 117.242 67.4076L119.145 71.6581L137.362 57.2231C137.494 57.2914 138.636 57.8477 139.514 57.389C141.696 56.2373 140.778 54.3243 140.778 54.3243C140.954 54.2023 142.618 53.3874 142.433 52.2162Z" fill="#263238"/>
<path d="M125.572 66.4214C125.724 67.0859 125.702 67.7784 125.509 68.4319C125.406 69.1066 125.129 69.7426 124.704 70.2766C124.625 70.2375 124.991 69.4275 125.226 68.3685C125.46 67.3095 125.489 66.4214 125.572 66.4214Z" fill="#455A64"/>
<path d="M126.948 65.1189C127.044 65.7702 127.007 66.434 126.841 67.0709C126.768 67.7202 126.564 68.3478 126.241 68.9155C126.289 68.2744 126.395 67.6391 126.558 67.0172C126.628 66.3735 126.759 65.7379 126.948 65.1189Z" fill="#455A64"/>
<path d="M130.882 60.7461C130.911 60.7851 130.589 61.0194 130.179 61.4976C129.656 62.1311 129.242 62.8467 128.954 63.6155C128.674 64.393 128.447 65.1887 128.276 65.997C128.228 66.334 128.132 66.6625 127.993 66.973C127.972 66.6243 128 66.2745 128.076 65.9335C128.191 65.1007 128.396 64.2827 128.686 63.4935C128.983 62.693 129.441 61.9622 130.032 61.3463C130.264 61.0817 130.555 60.876 130.882 60.7461Z" fill="#455A64"/>
<path d="M132.473 57.7742C132.507 57.7742 132.624 58.0279 132.697 58.4866C132.779 59.0911 132.745 59.7058 132.595 60.2971C132.452 60.8895 132.191 61.4472 131.828 61.9368C131.55 62.3126 131.34 62.4931 131.296 62.4687C131.253 62.4443 131.994 61.5562 132.316 60.2288C132.638 58.9014 132.385 57.7839 132.473 57.7742Z" fill="#455A64"/>
<path d="M118.911 64.3865C118.872 64.4597 118.525 64.3377 118.135 64.1181C117.745 63.8985 117.457 63.6692 117.496 63.596C117.535 63.5228 117.881 63.6497 118.272 63.8693C118.662 64.0889 118.95 64.3182 118.911 64.3865Z" fill="#455A64"/>
<path d="M124.401 61.5609C124.445 61.9719 124.33 62.3842 124.079 62.7126C123.728 63.2933 123.254 63.5958 123.205 63.5373C123.157 63.4787 123.513 63.0981 123.83 62.5613C124.147 62.0245 124.318 61.5414 124.401 61.5609Z" fill="#455A64"/>
<path d="M126.089 60.6536C126.084 61.1537 125.912 61.6377 125.601 62.0297C125.148 62.7227 124.577 63.0936 124.533 63.0057C124.489 62.9179 124.938 62.5177 125.362 61.8492C125.581 61.4369 125.824 61.0377 126.089 60.6536Z" fill="#455A64"/>
<path d="M134.483 49.5563C134.483 49.5563 134.268 49.3953 133.858 49.161C133.272 48.8499 132.619 48.6826 131.955 48.673C130.971 48.6469 130 48.9062 129.159 49.4197C128.149 50.0828 127.33 50.9978 126.782 52.0744C126.363 52.8622 126.035 53.6957 125.806 54.5583L125.758 54.7242L125.606 54.6413C124.824 54.2318 123.957 54.0096 123.074 53.9922C122.373 53.9763 121.674 54.0819 121.009 54.3045C120.418 54.524 119.852 54.8071 119.321 55.1488C119.43 55.0182 119.559 54.9048 119.702 54.8121C120.085 54.5326 120.506 54.3077 120.951 54.1435C121.629 53.8854 122.348 53.7547 123.074 53.758C124 53.7557 124.914 53.9749 125.738 54.3973L125.538 54.4851C125.764 53.601 126.091 52.7462 126.514 51.9377C127.085 50.8171 127.946 49.8701 129.008 49.1952C129.891 48.6692 130.909 48.4162 131.936 48.4681C132.627 48.4977 133.299 48.7044 133.888 49.0683C134.045 49.1677 134.19 49.2838 134.322 49.4148C134.444 49.5026 134.488 49.5514 134.483 49.5563Z" fill="#455A64"/>
<path d="M140.461 51.0008C140.437 51.0008 140.773 50.913 141.11 51.2936C141.207 51.4072 141.281 51.5392 141.326 51.6817C141.371 51.8242 141.387 51.9743 141.374 52.1232C141.344 52.3217 141.269 52.5105 141.153 52.6749C141.038 52.8392 140.886 52.9744 140.71 53.0699C140.291 53.3076 139.797 53.3757 139.329 53.2602C138.815 53.1248 138.332 52.8894 137.909 52.5673C137.465 52.2129 136.998 51.8869 136.513 51.5913C135.988 51.3073 135.422 51.108 134.834 51.0008C133.694 50.7954 132.52 50.8759 131.418 51.235C130.514 51.5332 129.66 51.9677 128.886 52.5234C127.558 53.475 126.904 54.2753 126.86 54.2314C126.992 54.029 127.144 53.8409 127.314 53.6702C127.761 53.1887 128.251 52.7493 128.778 52.3574C129.556 51.7639 130.425 51.2993 131.35 50.9813C132.496 50.5928 133.722 50.5021 134.912 50.7178C135.529 50.8312 136.124 51.042 136.674 51.3424C137.165 51.6368 137.636 51.9629 138.084 52.3184C138.477 52.6271 138.926 52.8559 139.407 52.9918C139.819 53.105 140.258 53.058 140.637 52.8601C140.79 52.782 140.923 52.6703 141.027 52.5334C141.131 52.3965 141.203 52.238 141.237 52.0695C141.272 51.8085 141.204 51.5441 141.047 51.3326C140.897 51.1561 140.689 51.0385 140.461 51.0008Z" fill="#455A64"/>
<path d="M193.409 71.3259C192.98 70.9453 187.192 73.3707 187.192 73.3707C187.192 73.3707 182.873 76.7867 181.097 78.7631L179.999 79.6756L163.573 92.4466L143.37 84.0432L138.978 95.3111C138.978 95.3111 161.66 104.344 165.115 102.797C168.868 101.118 182.849 86.4832 182.883 86.4344L184.903 84.4824C184.903 84.4824 185.972 84.4824 186.782 84.4141C187.592 84.3458 189.964 82.7891 189.964 82.7891C190.189 82.3559 190.344 81.8898 190.422 81.408C190.472 81.2162 190.456 81.0132 190.376 80.8318C190.296 80.6503 190.158 80.5009 189.983 80.4076C190.066 80.0325 190.079 79.6455 190.022 79.2657C189.93 78.6215 189.046 77.8749 189.046 77.8749C189.322 77.5944 189.51 77.2401 189.588 76.855C189.783 76.1083 188.822 75.391 188.822 75.391C188.822 75.391 192.184 73.1071 192.999 72.7021C193.814 72.2971 193.838 71.7066 193.409 71.3259Z" fill="#B78876"/>
<path d="M146.341 186.752C146.41 186.011 146.444 185.44 146.444 185.083L148.728 148.664C148.728 148.664 146.81 138.026 145.902 135.205L137.748 132.048L126.88 136.279C126.812 135.405 126.768 134.863 126.768 134.863L110.776 140.397C110.776 140.397 110.361 151.314 110.776 154.637C110.913 155.706 111.327 158.463 111.835 161.713C111.835 161.713 112.352 168.774 112.46 169.17C112.845 170.609 112.948 174.138 112.948 177.671C112.948 182.16 113.192 187.504 113.475 190.042C113.758 192.579 113.889 220.512 113.889 220.512H125.699L127.217 176.026C127.47 171.258 127.851 163.968 128.095 158.692L130.867 175.118C130.867 175.719 132.555 185.113 132.555 185.113C132.166 188.069 131.925 191.043 131.833 194.024C131.638 202.32 130.667 220.512 130.667 220.512H142.223C142.223 220.512 145.697 194.219 146.371 186.752H146.341Z" fill="#263238"/>
<path d="M148.352 146.483C147.973 146.339 147.613 146.148 147.283 145.912C146.464 145.386 145.698 144.78 144.999 144.101C144.3 143.425 143.67 142.681 143.116 141.881C142.866 141.562 142.664 141.209 142.516 140.832C142.783 141.129 143.031 141.444 143.257 141.774C143.846 142.535 144.487 143.254 145.175 143.926C145.864 144.591 146.6 145.205 147.376 145.765C147.718 145.981 148.044 146.221 148.352 146.483Z" fill="#455A64"/>
<path d="M127.719 153.1C127.627 152.992 127.551 152.87 127.495 152.739C127.313 152.397 127.151 152.045 127.007 151.685C126.513 150.501 126.151 149.265 125.928 148.001C125.711 146.736 125.633 145.452 125.694 144.17C125.723 143.682 125.762 143.287 125.806 143.013C125.815 142.87 125.846 142.728 125.899 142.594C125.938 142.594 125.899 143.204 125.875 144.175C125.86 145.442 125.961 146.708 126.177 147.957C126.393 149.205 126.719 150.432 127.153 151.622C127.5 152.534 127.754 153.081 127.719 153.1Z" fill="#455A64"/>
<path d="M129.437 166.813C129.365 166.607 129.314 166.395 129.286 166.179C129.201 165.717 129.094 165.136 128.964 164.437C128.71 162.909 128.368 160.899 127.988 158.673C127.334 154.589 126.89 151.807 126.685 150.514C126.95 151.279 127.136 152.068 127.241 152.871C127.524 154.335 127.875 156.38 128.246 158.629C128.617 160.879 128.925 162.929 129.139 164.407C129.232 165.11 129.315 165.696 129.379 166.164C129.422 166.378 129.442 166.595 129.437 166.813Z" fill="#455A64"/>
<path d="M101.567 106.067C101.567 106.067 100.011 117.042 99.7179 120.887C99.5422 123.205 101.894 126.255 103.69 126.504C105.486 126.753 111.537 127.09 111.537 127.09L112.025 120.204L111.869 118.833L109.99 118.482L110.556 107.56L101.567 106.067Z" fill="#B78876"/>
<path d="M110.322 107.931C110.37 108.126 110.395 108.326 110.395 108.526C110.425 108.912 110.444 109.468 110.459 110.161C110.493 111.537 110.459 113.445 110.342 115.529C110.225 117.613 110.054 119.531 109.922 120.897C109.849 121.58 109.79 122.137 109.741 122.517C109.73 122.717 109.696 122.916 109.639 123.108C109.617 122.908 109.617 122.707 109.639 122.507C109.663 122.068 109.697 121.531 109.737 120.878C109.829 119.448 109.946 117.579 110.078 115.51C110.21 113.44 110.259 111.518 110.273 110.142C110.273 109.497 110.273 108.951 110.273 108.512C110.269 108.317 110.286 108.122 110.322 107.931Z" fill="#AA6550"/>
<g opacity="0.3">
<path d="M110.917 140.598C113.992 141.74 117.359 141.833 120.624 141.549C123.889 141.266 127.119 140.608 130.384 140.3C135.332 139.838 140.321 140.167 145.165 141.276C145.503 141.379 145.859 141.412 146.21 141.374C146.384 141.352 146.548 141.277 146.679 141.161C146.811 141.044 146.904 140.89 146.947 140.72C147.034 140.173 146.434 139.793 145.927 139.583C140.341 137.273 134.336 136.15 128.294 136.284C122.251 136.418 116.302 137.808 110.825 140.364" fill="black"/>
</g>
<path d="M157.99 89.0306L140.656 80.4027C137.923 80.0821 135.17 79.9614 132.419 80.0416H120.946C120.946 80.0416 107.048 84.1408 104.749 87.9228L98.7907 105.784L110.571 107.56L112.035 120.394C112.035 120.394 110.571 135.254 110.571 137.411C110.539 138.41 110.6 139.41 110.752 140.397C110.752 140.397 134.322 136.816 140.124 138.704C145.927 140.593 147.493 140.397 147.493 140.397C147.493 140.397 147.005 134.229 146.581 130.637L145.243 112.728L144.267 99.0639L155.174 102.402L157.99 89.0306Z" fill="#27BBAD"/>
<path d="M110.464 107.702C110.42 107.702 110.303 106.965 110.044 105.774C109.7 104.225 109.243 102.704 108.678 101.221C108.1 99.7273 107.426 98.2732 106.657 96.8681L105.945 95.5896C105.844 95.4381 105.764 95.2741 105.706 95.1016C105.833 95.2327 105.945 95.3785 106.038 95.5359C106.238 95.8238 106.526 96.2484 106.823 96.7852C107.647 98.1726 108.352 99.6271 108.931 101.133C109.502 102.626 109.937 104.168 110.229 105.74C110.337 106.34 110.405 106.828 110.439 107.17C110.469 107.345 110.478 107.524 110.464 107.702Z" fill="#263238"/>
<path d="M132.692 112.772C132.683 112.854 132.662 112.935 132.629 113.011L132.409 113.67C132.311 113.958 132.189 114.304 132.028 114.704C131.867 115.104 131.697 115.563 131.472 116.051C131.047 117.027 130.496 118.208 129.803 119.467C129.11 120.726 128.29 122.063 127.363 123.42C126.436 124.777 125.411 126.001 124.489 127.085C123.566 128.168 122.644 129.081 121.854 129.822C121.468 130.203 121.092 130.52 120.775 130.798C120.458 131.077 120.17 131.325 119.936 131.516L119.389 131.945C119.328 131.999 119.261 132.047 119.189 132.087C119.189 132.087 119.243 132.018 119.36 131.906L119.872 131.418C120.097 131.223 120.36 130.974 120.682 130.676C121.004 130.379 121.356 130.057 121.732 129.671C122.503 128.92 123.381 127.983 124.313 126.909C125.245 125.835 126.211 124.596 127.158 123.254C128.105 121.912 128.915 120.57 129.598 119.35C130.281 118.13 130.862 116.959 131.306 115.978C131.54 115.49 131.721 115.036 131.892 114.646C132.063 114.255 132.204 113.914 132.316 113.631C132.429 113.348 132.507 113.143 132.58 112.986C132.608 112.91 132.646 112.838 132.692 112.772Z" fill="#263238"/>
<path d="M140.7 81.5835C140.244 82.2355 139.933 82.9777 139.788 83.76C139.641 84.6077 139.641 85.4743 139.788 86.322C139.977 87.3655 140.221 88.3982 140.52 89.4159C141.12 91.6021 141.749 93.5493 142.232 94.9547C142.462 95.6184 142.652 96.1747 142.808 96.6188C142.889 96.8192 142.951 97.0267 142.994 97.2385C142.88 97.0534 142.785 96.8572 142.711 96.6529C142.55 96.2723 142.32 95.716 142.057 95.0181C141.53 93.6273 140.866 91.6753 140.266 89.4842C139.974 88.4622 139.741 87.4243 139.568 86.3757C139.425 85.5035 139.438 84.6128 139.607 83.7453C139.727 83.1599 139.955 82.6021 140.28 82.1008C140.388 81.9043 140.53 81.729 140.7 81.5835Z" fill="#263238"/>
<path d="M107.994 100.386C107.737 100.664 107.42 100.879 107.067 101.016C106.238 101.397 105.315 101.526 104.413 101.388C103.511 101.25 102.67 100.851 101.992 100.24C101.697 100.006 101.46 99.7072 101.299 99.3665C101.333 99.3372 101.587 99.6837 102.109 100.103C102.788 100.652 103.602 101.011 104.465 101.142C105.329 101.273 106.212 101.173 107.023 100.85C107.624 100.606 107.97 100.352 107.994 100.386Z" fill="white"/>
<path d="M141.213 92.3293C141.178 92.4591 141.131 92.5851 141.071 92.7051C140.964 92.9491 140.798 93.3005 140.559 93.7397C139.872 94.9852 139.003 96.1217 137.982 97.1117C136.455 98.5935 134.551 99.6281 132.477 100.103C131.255 100.383 129.991 100.438 128.749 100.264C127.42 100.053 126.141 99.5978 124.977 98.9222C122.581 97.5851 120.556 95.8917 118.34 95.0817C116.38 94.3572 114.248 94.2399 112.22 94.7449C110.852 95.0733 109.561 95.665 108.419 96.4871C107.619 97.0776 107.243 97.4924 107.223 97.4631C107.565 97.072 107.946 96.7171 108.36 96.4041C109.777 95.3305 111.439 94.6269 113.196 94.3568C114.953 94.0867 116.749 94.2587 118.423 94.8572C120.692 95.677 122.732 97.3753 125.099 98.6929C126.235 99.3621 127.483 99.8185 128.783 100.04C129.997 100.211 131.232 100.161 132.429 99.8933C134.466 99.4368 136.341 98.4368 137.855 96.9995C138.88 96.0341 139.761 94.9264 140.471 93.7104C140.72 93.2809 140.905 92.9345 141.022 92.7002C141.076 92.5718 141.139 92.4478 141.213 92.3293Z" fill="white"/>
<path d="M152.066 86.0686C152.162 86.248 152.238 86.4379 152.29 86.6347C152.451 87.1627 152.546 87.7085 152.573 88.2597C152.668 90.1081 152.083 91.9272 150.929 93.374C150.258 94.1163 149.53 94.8049 148.752 95.4333C148.141 95.9457 147.643 96.5787 147.288 97.2926C147.048 97.7734 146.936 98.3077 146.961 98.8444C146.99 99.2251 147.073 99.43 147.049 99.4349C147.025 99.4398 147.015 99.391 146.976 99.2934C146.921 99.1521 146.883 99.0046 146.864 98.8542C146.797 98.2958 146.886 97.7299 147.122 97.2194C147.465 96.4717 147.965 95.8061 148.586 95.2674C149.344 94.6361 150.056 93.9528 150.719 93.2227C151.833 91.8175 152.422 90.0673 152.383 88.2744C152.345 87.5309 152.239 86.7925 152.066 86.0686Z" fill="white"/>
<path d="M123.874 127.212C123.72 127.294 123.556 127.355 123.386 127.393C122.915 127.527 122.436 127.628 121.951 127.695C121.22 127.817 120.472 127.773 119.76 127.568C119.338 127.434 118.948 127.215 118.613 126.924C118.277 126.605 117.964 126.263 117.676 125.899C117.394 125.554 117.066 125.248 116.7 124.992C116.353 124.765 115.977 124.585 115.583 124.455C114.907 124.239 114.193 124.171 113.489 124.255C113.012 124.307 112.547 124.439 112.113 124.645C111.957 124.733 111.793 124.808 111.625 124.87C111.753 124.742 111.901 124.636 112.064 124.557C112.496 124.308 112.971 124.142 113.465 124.069C114.196 123.952 114.943 124.004 115.651 124.221C116.071 124.349 116.47 124.537 116.837 124.777C117.227 125.04 117.576 125.359 117.872 125.724C118.152 126.077 118.455 126.411 118.779 126.724C119.089 126.996 119.448 127.205 119.838 127.339C120.518 127.54 121.233 127.598 121.937 127.51C123.122 127.368 123.864 127.168 123.874 127.212Z" fill="white"/>
<path d="M146.317 126.172C146.271 126.223 146.218 126.267 146.161 126.304C146.005 126.421 145.842 126.529 145.673 126.626C145.067 126.996 144.409 127.274 143.721 127.451C142.687 127.717 141.612 127.78 140.554 127.636C139.249 127.46 138.01 126.956 136.952 126.172C135.947 125.361 134.986 124.496 134.073 123.581C133.326 122.855 132.462 122.261 131.516 121.824C130.881 121.53 130.19 121.377 129.491 121.375C129.003 121.375 128.72 121.458 128.715 121.429C128.777 121.4 128.843 121.379 128.91 121.366C129.098 121.315 129.291 121.284 129.486 121.273C130.207 121.24 130.926 121.372 131.589 121.658C132.566 122.082 133.459 122.675 134.229 123.41C135.122 124.201 136.011 125.162 137.104 125.967C138.128 126.721 139.324 127.207 140.583 127.383C141.613 127.532 142.662 127.491 143.677 127.261C144.356 127.099 145.012 126.851 145.629 126.524C145.851 126.393 146.081 126.275 146.317 126.172Z" fill="white"/>
<path d="M187.797 56.6375C184.253 54.9421 181.159 52.4334 178.768 49.3158C176.376 46.1983 174.755 42.56 174.036 38.6973C173.318 34.8346 173.521 30.8567 174.631 27.0876C175.741 23.3186 177.725 19.8649 180.422 17.0079C183.119 14.1509 186.453 11.9714 190.152 10.6468C193.851 9.32228 197.811 8.89019 201.708 9.38574C205.606 9.88129 209.331 11.2905 212.581 13.4985C215.831 15.7065 218.514 18.6509 220.41 22.092C222.964 26.7195 223.982 32.0387 223.317 37.2823C222.652 42.5258 220.338 47.4225 216.71 51.2659C213.082 55.1093 208.326 57.7007 203.129 58.6661C197.933 59.6316 192.564 58.9212 187.797 56.6375ZM208.596 13.1372C203.59 10.7476 197.895 10.225 192.537 11.6638C187.18 13.1025 182.513 16.4078 179.378 20.9838C176.242 25.5599 174.845 31.1055 175.437 36.6208C176.03 42.1362 178.573 47.2584 182.609 51.064C186.645 54.8696 191.908 57.1081 197.448 57.376C202.989 57.644 208.443 55.9236 212.827 52.5252C217.211 49.1267 220.237 44.2738 221.359 38.8414C222.481 33.4089 221.625 27.7544 218.946 22.8972C216.6 18.6428 212.98 15.2298 208.596 13.1372Z" fill="#263238"/>
<path d="M229.902 83.9363C229.201 84.367 228.358 84.5025 227.558 84.3132C226.758 84.1239 226.065 83.6251 225.632 82.9261L209.318 56.4814C209.244 56.3617 209.22 56.2173 209.252 56.0801C209.284 55.9428 209.369 55.8239 209.489 55.7494L212.968 53.6022C213.087 53.5298 213.229 53.5061 213.364 53.5361C213.5 53.5662 213.618 53.6476 213.695 53.7633L230.853 79.5443C231.089 79.892 231.252 80.284 231.332 80.6965C231.412 81.109 231.407 81.5335 231.318 81.9441C231.229 82.3548 231.058 82.7431 230.814 83.0856C230.571 83.428 230.26 83.7174 229.902 83.9363Z" fill="#263238"/>
<path d="M188.397 55.3784C184.851 53.6839 181.755 51.1754 179.361 48.0575C176.968 44.9395 175.345 41.3003 174.625 37.4362C173.905 33.5722 174.108 29.5926 175.217 25.8219C176.327 22.0511 178.311 18.5958 181.009 15.7375C183.708 12.8792 187.043 10.6987 190.743 9.37371C194.444 8.04874 198.405 7.61675 202.304 8.11296C206.203 8.60916 209.93 10.0195 213.181 12.2291C216.431 14.4387 219.114 17.385 221.01 20.828C223.563 25.4558 224.579 30.7746 223.914 36.0175C223.248 41.2604 220.935 46.1564 217.307 49.9997C213.679 53.8429 208.925 56.4347 203.729 57.4014C198.533 58.3681 193.164 57.6597 188.397 55.3784ZM209.196 11.8781C204.19 9.48847 198.495 8.96593 193.138 10.4047C187.78 11.8434 183.113 15.1487 179.978 19.7247C176.843 24.3008 175.445 29.8464 176.038 35.3617C176.63 40.8771 179.174 45.9993 183.21 49.8049C187.245 53.6105 192.508 55.849 198.049 56.1169C203.589 56.3849 209.043 54.6645 213.427 51.2661C217.812 47.8676 220.837 43.0147 221.959 37.5823C223.081 32.1498 222.226 26.4953 219.546 21.6381C217.2 17.3837 213.581 13.9707 209.196 11.8781Z" fill="#455A64"/>
<path d="M209.639 54.7363L214.012 52.0384L231.36 80.1604C231.7 80.7112 231.807 81.3743 231.658 82.004C231.508 82.6337 231.115 83.1784 230.565 83.5181L230.311 83.6744C229.76 84.0142 229.097 84.1212 228.468 83.972C227.838 83.8228 227.293 83.4296 226.953 82.8788L209.605 54.7568L209.639 54.7363Z" fill="#455A64"/>
<path d="M180.531 26.9473C180.554 26.6868 180.6 26.4288 180.667 26.1762C180.725 25.8757 180.802 25.579 180.897 25.2881C181.007 24.8962 181.137 24.5102 181.287 24.1315L181.536 23.4727C181.629 23.2434 181.751 23.0189 181.863 22.7749C182.083 22.2869 182.38 21.7989 182.678 21.2865C183.37 20.1875 184.171 19.1608 185.069 18.2218C185.984 17.3014 186.987 16.4742 188.065 15.7526C188.539 15.4436 189.027 15.1585 189.529 14.8986C189.764 14.7766 189.988 14.6497 190.213 14.5472L190.867 14.269C191.239 14.1088 191.621 13.9687 192.008 13.8494C192.297 13.7455 192.592 13.6607 192.892 13.5956C193.143 13.5243 193.399 13.4705 193.658 13.4346C193.417 13.5362 193.169 13.6194 192.916 13.6835C192.623 13.7643 192.334 13.862 192.052 13.9762C191.672 14.106 191.299 14.2559 190.935 14.4252L190.296 14.7131C190.071 14.8156 189.852 14.9474 189.622 15.0694C189.134 15.3085 188.685 15.6208 188.183 15.9331C187.13 16.6503 186.15 17.4675 185.255 18.3731C184.368 19.299 183.573 20.3072 182.878 21.3841C182.58 21.8721 182.278 22.3601 182.053 22.8481C181.941 23.0823 181.814 23.3019 181.717 23.5264L181.443 24.1755C181.258 24.5805 181.146 24.9709 181.024 25.3076C180.919 25.5934 180.831 25.8851 180.76 26.1811C180.704 26.4422 180.628 26.6984 180.531 26.9473Z" fill="#E0E0E0"/>
</svg>
