<svg width="48" height="48" viewBox="0 0 48 48" fill="none" xmlns="http://www.w3.org/2000/svg">
<circle cx="24" cy="24" r="24" fill="#EDFAF8"/>
<path d="M20.2701 15.7101L22.3401 14.8701C23.1501 14.5401 24.0801 14.9301 24.4101 15.7501L25.0401 17.2901C25.3701 18.1001 24.9801 19.0301 24.1601 19.3701L21.8701 20.3001C22.1101 21.4501 22.4801 22.8001 23.0601 24.2601C23.7101 25.9101 24.4601 27.2701 25.1401 28.3601L27.4301 27.4301C28.2501 27.1001 29.1801 27.4901 29.5101 28.3101L30.1401 29.8501C30.4701 30.6701 30.0801 31.6001 29.2601 31.9301L27.1901 32.7701L27.1501 32.7901C24.9201 33.6901 22.3501 32.8201 21.1901 30.7201C20.4101 29.3101 19.6401 27.7301 18.9301 25.9601C18.2901 24.3601 17.7901 22.8301 17.4101 21.4101C16.7801 19.0801 18.0001 16.6501 20.2301 15.7401L20.2701 15.7101Z" stroke="#27BBAD" stroke-width="1.5" stroke-miterlimit="10" stroke-linecap="round" stroke-linejoin="round"/>
</svg>
