<svg width="36" height="36" viewBox="0 0 36 36" fill="none" xmlns="http://www.w3.org/2000/svg">
<path d="M25.7535 15.552C28.909 15.552 31.467 12.994 31.467 9.8385C31.467 6.68302 28.909 4.125 25.7535 4.125C22.598 4.125 20.04 6.68302 20.04 9.8385C20.04 12.994 22.598 15.552 25.7535 15.552Z" stroke="#FF854E" stroke-linecap="round" stroke-linejoin="round"/>
<path d="M25.7535 31.875C28.909 31.875 31.467 29.317 31.467 26.1615C31.467 23.006 28.909 20.448 25.7535 20.448C22.598 20.448 20.04 23.006 20.04 26.1615C20.04 29.317 22.598 31.875 25.7535 31.875Z" stroke="#FF854E" stroke-linecap="round" stroke-linejoin="round"/>
<path d="M23.8763 24.6931C24.4624 24.6931 24.9375 24.2179 24.9375 23.6318C24.9375 23.0457 24.4624 22.5706 23.8763 22.5706C23.2901 22.5706 22.815 23.0457 22.815 23.6318C22.815 24.2179 23.2901 24.6931 23.8763 24.6931Z" stroke="#FF854E" stroke-linecap="round" stroke-linejoin="round"/>
<path d="M25.7535 26.724C26.0642 26.724 26.316 26.4722 26.316 26.1615C26.316 25.8508 26.0642 25.599 25.7535 25.599C25.4428 25.599 25.191 25.8508 25.191 26.1615C25.191 26.4722 25.4428 26.724 25.7535 26.724Z" fill="#FF854E"/>
<path d="M27.6308 24.6113C28.2169 24.6113 28.692 24.1361 28.692 23.55C28.692 22.9639 28.2169 22.4888 27.6308 22.4888C27.0446 22.4888 26.5695 22.9639 26.5695 23.55C26.5695 24.1361 27.0446 24.6113 27.6308 24.6113Z" stroke="#FF854E" stroke-linecap="round" stroke-linejoin="round"/>
<path d="M28.8555 28.2022C29.4416 28.2022 29.9168 27.7271 29.9168 27.141C29.9168 26.5549 29.4416 26.0797 28.8555 26.0797C28.2694 26.0797 27.7943 26.5549 27.7943 27.141C27.7943 27.7271 28.2694 28.2022 28.8555 28.2022Z" stroke="#FF854E" stroke-linecap="round" stroke-linejoin="round"/>
<path d="M25.7535 30.4066C26.3396 30.4066 26.8147 29.9314 26.8147 29.3453C26.8147 28.7592 26.3396 28.2841 25.7535 28.2841C25.1674 28.2841 24.6922 28.7592 24.6922 29.3453C24.6922 29.9314 25.1674 30.4066 25.7535 30.4066Z" stroke="#FF854E" stroke-linecap="round" stroke-linejoin="round"/>
<path d="M22.6523 28.2022C23.2384 28.2022 23.7135 27.7271 23.7135 27.141C23.7135 26.5549 23.2384 26.0797 22.6523 26.0797C22.0661 26.0797 21.591 26.5549 21.591 27.141C21.591 27.7271 22.0661 28.2022 22.6523 28.2022Z" stroke="#FF854E" stroke-linecap="round" stroke-linejoin="round"/>
<path d="M17.592 18.5625C17.9027 18.5625 18.1545 18.3107 18.1545 18C18.1545 17.6893 17.9027 17.4375 17.592 17.4375C17.2813 17.4375 17.0295 17.6893 17.0295 18C17.0295 18.3107 17.2813 18.5625 17.592 18.5625Z" fill="#FF854E"/>
<path d="M23.0603 21.0203L9.4305 7.38977H4.533L20.6115 23.4675M17.592 20.4488L9.4305 28.6103H4.533L15.1433 18M17.592 15.5513L20.6115 12.5318M20.04 18L23.0603 14.9798" stroke="#FF854E" stroke-linecap="round" stroke-linejoin="round"/>
</svg>
