<svg width="36" height="36" viewBox="0 0 36 36" fill="none" xmlns="http://www.w3.org/2000/svg">
<path d="M24.276 4.125H11.724C10.227 4.125 9.01202 5.3745 9.01202 6.915V29.085C9.01202 30.6255 10.227 31.875 11.724 31.875H24.276C25.773 31.875 26.988 30.6255 26.988 29.085V6.915C26.988 5.3745 25.773 4.125 24.276 4.125Z" stroke="#FF854E" stroke-width="1.5" stroke-linecap="round" stroke-linejoin="round"/>
<path d="M15.0045 7.90796H20.9955M18 28.1595C18.1063 28.1661 18.2128 28.1508 18.313 28.1147C18.4132 28.0786 18.5049 28.0223 18.5825 27.9493C18.6602 27.8764 18.722 27.7883 18.7643 27.6906C18.8066 27.5928 18.8284 27.4875 18.8284 27.381C18.8284 27.2745 18.8066 27.1691 18.7643 27.0713C18.722 26.9736 18.6602 26.8855 18.5825 26.8126C18.5049 26.7396 18.4132 26.6834 18.313 26.6472C18.2128 26.6111 18.1063 26.5959 18 26.6025C17.8019 26.6148 17.6159 26.7021 17.48 26.8468C17.344 26.9914 17.2684 27.1825 17.2684 27.381C17.2684 27.5795 17.344 27.7705 17.48 27.9151C17.6159 28.0598 17.8019 28.1472 18 28.1595Z" stroke="#FF854E" stroke-width="1.5" stroke-linecap="round" stroke-linejoin="round"/>
</svg>
