<svg width="36" height="36" viewBox="0 0 36 36" fill="none" xmlns="http://www.w3.org/2000/svg">
<g clip-path="url(#clip0_12_77)">
<path d="M7.71428 18V11.2371C7.73436 9.90776 8.01655 8.59544 8.54469 7.37534C9.07282 6.15525 9.83652 5.05135 10.792 4.12691C11.7475 3.20246 12.876 2.47564 14.1129 1.9881C15.3498 1.50055 16.6707 1.26185 18 1.28568C19.3293 1.26185 20.6502 1.50055 21.8871 1.9881C23.124 2.47564 24.2525 3.20246 25.208 4.12691C26.1635 5.05135 26.9272 6.15525 27.4553 7.37534C27.9834 8.59544 28.2656 9.90776 28.2857 11.2371V18M23.1428 31.5C24.5068 31.5 25.8149 30.9581 26.7794 29.9937C27.7439 29.0292 28.2857 27.7211 28.2857 26.3571V20.5714M23.1428 31.5C23.1428 32.3524 22.8042 33.17 22.2014 33.7728C21.5986 34.3756 20.781 34.7143 19.9286 34.7143H16.0714C15.2189 34.7143 14.4014 34.3756 13.7986 33.7728C13.1958 33.17 12.8571 32.3524 12.8571 31.5C12.8571 30.6475 13.1958 29.8299 13.7986 29.2271C14.4014 28.6243 15.2189 28.2857 16.0714 28.2857H19.9286C20.781 28.2857 21.5986 28.6243 22.2014 29.2271C22.8042 29.8299 23.1428 30.6475 23.1428 31.5ZM3.85713 14.1428H6.42856C6.76956 14.1428 7.09658 14.2783 7.3377 14.5194C7.57882 14.7605 7.71428 15.0875 7.71428 15.4285V23.1428C7.71428 23.4838 7.57882 23.8108 7.3377 24.052C7.09658 24.2931 6.76956 24.4285 6.42856 24.4285H3.85713C3.17515 24.4285 2.5211 24.1576 2.03886 23.6754C1.55662 23.1931 1.28571 22.5391 1.28571 21.8571V16.7143C1.28571 16.0323 1.55662 15.3782 2.03886 14.896C2.5211 14.4137 3.17515 14.1428 3.85713 14.1428ZM32.1428 24.4285H29.5714C29.2304 24.4285 28.9034 24.2931 28.6623 24.052C28.4212 23.8108 28.2857 23.4838 28.2857 23.1428V15.4285C28.2857 15.0875 28.4212 14.7605 28.6623 14.5194C28.9034 14.2783 29.2304 14.1428 29.5714 14.1428H32.1428C32.8248 14.1428 33.4789 14.4137 33.9611 14.896C34.4434 15.3782 34.7143 16.0323 34.7143 16.7143V21.8571C34.7143 22.5391 34.4434 23.1931 33.9611 23.6754C33.4789 24.1576 32.8248 24.4285 32.1428 24.4285Z" stroke="#FF854E" stroke-width="2" stroke-linecap="round" stroke-linejoin="round"/>
</g>
<defs>
<clipPath id="clip0_12_77">
<rect width="36" height="36" fill="white"/>
</clipPath>
</defs>
</svg>
