<svg width="36" height="36" viewBox="0 0 36 36" fill="none" xmlns="http://www.w3.org/2000/svg">
<path d="M8.06175 2.35121C8.25413 2.43889 8.41791 2.57901 8.53431 2.75551C8.65071 2.932 8.71502 3.13772 8.71987 3.34908C8.75137 4.74408 9.24863 5.62496 9.83363 6.53283L9.99563 6.78033C10.5469 7.61621 11.2511 8.68496 11.2511 10.125C11.2519 10.7751 11.1115 11.4176 10.8396 12.0081C10.5676 12.5986 10.1707 13.123 9.67612 13.545C10.0755 13.9578 10.368 14.4416 10.5817 14.9388C11.1521 16.2607 11.2511 17.8661 11.2511 19.1317C11.2511 21.2062 10.9271 24.6532 10.3342 27.5951C10.0384 29.061 9.66488 30.4638 9.2025 31.5258C8.97413 32.0523 8.69625 32.5597 8.3475 32.9535C8.0055 33.3405 7.47338 33.75 6.7545 33.75C6.0345 33.75 5.50237 33.3405 5.16037 32.9535C4.81275 32.5597 4.53487 32.0535 4.30537 31.5258C3.843 30.465 3.46725 29.0621 3.17138 27.5951C2.57737 24.6543 2.25112 21.2062 2.25112 19.1317C2.25112 17.865 2.35237 16.2596 2.92387 14.9366C3.13762 14.4416 3.43013 13.959 3.8295 13.5472C3.33445 13.1249 2.93687 12.6002 2.66418 12.0094C2.3915 11.4186 2.25019 10.7757 2.25 10.125C2.25 9.07308 2.38275 7.96271 3.08588 6.68246C3.7665 5.44158 4.94213 4.11408 6.87488 2.50871C7.03771 2.37361 7.23534 2.28717 7.44508 2.25931C7.65482 2.23145 7.86929 2.2633 8.06175 2.35121ZM5.05913 7.76246C4.5945 8.60958 4.50112 9.31158 4.50112 10.1238C4.50112 10.7206 4.73818 11.2929 5.16013 11.7148C5.58209 12.1368 6.15439 12.3738 6.75112 12.3738C7.34786 12.3738 7.92016 12.1368 8.34212 11.7148C8.76407 11.2929 9.00113 10.7206 9.00113 10.1238C9.00113 9.38358 8.66813 8.86946 8.05387 7.92108L7.94475 7.75233C7.5555 7.15158 7.12913 6.44958 6.8355 5.56083C5.93663 6.44058 5.39325 7.15496 5.05913 7.76246ZM4.98937 15.8287C4.61137 16.7051 4.5 17.9156 4.5 19.1328C4.5 21.0453 4.80825 24.3427 5.37525 27.1518C5.661 28.5603 5.9985 29.7832 6.36637 30.6281C6.51038 30.9577 6.642 31.1917 6.75337 31.3481C6.90555 31.1217 7.03445 30.8804 7.13812 30.6281C7.506 29.7843 7.8435 28.5615 8.12812 27.1518C8.69287 24.3427 9 21.0453 9 19.1328C9 17.9133 8.89087 16.7028 8.51512 15.831C8.334 15.4113 8.1135 15.1222 7.8615 14.9377C7.62075 14.7622 7.281 14.6261 6.75337 14.6261C6.22575 14.6261 5.88487 14.7611 5.643 14.9388C5.391 15.1245 5.16937 15.4125 4.98825 15.8321M12.357 7.51833C13.4713 6.98616 14.6951 6.72349 15.9296 6.75153C17.1642 6.77956 18.3748 7.09753 19.4638 7.67974C20.5528 8.26195 21.4896 9.09209 22.1985 10.1031C22.9075 11.1142 23.3688 12.2778 23.5451 13.5H19.6886C18.3462 13.5 17.0587 14.0332 16.1093 14.9823C15.1599 15.9315 14.6264 17.2189 14.6261 18.5613V22.4201C14.0039 22.3303 13.3947 22.1664 12.8115 21.9318C12.7493 22.7033 12.671 23.4733 12.5764 24.2415C13.2424 24.4605 13.9293 24.6098 14.6261 24.687V27.5625C14.6261 28.9051 15.1595 30.1928 16.1089 31.1422C17.0583 32.0916 18.346 32.625 19.6886 32.625H28.6886C30.0313 32.625 31.3189 32.0916 32.2684 31.1422C33.2178 30.1928 33.7511 28.9051 33.7511 27.5625V18.5625C33.7511 17.2198 33.2178 15.9321 32.2684 14.9827C31.3189 14.0333 30.0313 13.5 28.6886 13.5H25.8142C25.6334 11.879 25.0636 10.3257 24.1533 8.97225C23.2431 7.61882 22.0193 6.50533 20.5862 5.72653C19.1531 4.94774 17.5531 4.52668 15.9223 4.4992C14.2915 4.47172 12.6782 4.83863 11.2196 5.56871L11.25 5.61596L11.403 5.84658C11.6685 6.24371 12.0443 6.80846 12.3593 7.51496M28.6875 15.75C29.4334 15.75 30.1488 16.0463 30.6762 16.5737C31.2037 17.1012 31.5 17.8165 31.5 18.5625V27.5625C31.5 28.3084 31.2037 29.0238 30.6762 29.5512C30.1488 30.0786 29.4334 30.375 28.6875 30.375H19.6875C18.9416 30.375 18.2262 30.0786 17.6988 29.5512C17.1713 29.0238 16.875 28.3084 16.875 27.5625V24.6881C19.1575 24.4322 21.2852 23.4083 22.9093 21.7843C24.5334 20.1602 25.5573 18.0324 25.8131 15.75H28.6875ZM16.875 22.4212V18.5625C16.875 17.8165 17.1713 17.1012 17.6988 16.5737C18.2262 16.0463 18.9416 15.75 19.6875 15.75H23.5462C23.3037 17.4332 22.5228 18.9927 21.3202 20.1952C20.1177 21.3977 18.5582 22.1786 16.875 22.4212Z" fill="#FF854E"/>
</svg>
